<svg width="1845" height="1502" viewBox="0 0 1845 1502" fill="none" xmlns="http://www.w3.org/2000/svg">
<rect width="1845" height="1502" fill="#fff"/>
<g opacity="0.8">
<path d="M-126.392 684.07C373.069 1225.73 1279.32 -40.6271 1980.31 526.181" stroke="#00AEB5" stroke-opacity="0.4" stroke-width="1"/>
<path d="M-126.392 694.44C373.069 1236.11 1279.32 -30.2567 1980.31 536.551" stroke="#00AEB5" stroke-opacity="0.4" stroke-width="1"/>
<path d="M-126.392 704.811C373.069 1246.48 1279.32 -19.8861 1980.31 546.922" stroke="#00AEB5" stroke-opacity="0.4" stroke-width="1"/>
<path d="M-126.392 715.181C373.069 1256.85 1279.32 -9.51601 1980.31 557.292" stroke="#00AEB5" stroke-opacity="0.4" stroke-width="1"/>
<path d="M-126.392 725.552C373.069 1267.22 1279.32 0.854595 1980.31 567.663" stroke="#00AEB5" stroke-opacity="0.4" stroke-width="1"/>
<path d="M-126.392 735.922C373.069 1277.59 1279.32 11.2252 1980.31 578.033" stroke="#00AEB5" stroke-opacity="0.4" stroke-width="1"/>
<path d="M-126.392 746.292C373.069 1287.96 1279.32 21.5953 1980.31 588.403" stroke="#00AEB5" stroke-opacity="0.4" stroke-width="1"/>
<path d="M-126.392 756.663C373.069 1298.33 1279.32 31.9659 1980.31 598.774" stroke="#00AEB5" stroke-opacity="0.4" stroke-width="1"/>
<path d="M-126.392 767.033C373.069 1308.7 1279.32 42.3363 1980.31 609.144" stroke="#00AEB5" stroke-opacity="0.4" stroke-width="1"/>
<path d="M-126.392 777.404C373.069 1319.07 1279.32 52.7069 1980.31 619.515" stroke="#00AEB5" stroke-opacity="0.4" stroke-width="1"/>
<path d="M-126.392 787.774C373.069 1329.44 1279.32 63.0773 1980.31 629.885" stroke="#00AEB5" stroke-opacity="0.4" stroke-width="1"/>
<path d="M-126.392 798.145C373.069 1339.81 1279.32 73.4476 1980.31 640.256" stroke="#00AEB5" stroke-opacity="0.4" stroke-width="1"/>
<path d="M-126.392 808.515C373.069 1350.18 1279.32 83.818 1980.31 650.626" stroke="#00AEB5" stroke-opacity="0.4" stroke-width="1"/>
<path d="M-126.392 818.886C373.069 1360.55 1279.32 94.1886 1980.31 660.997" stroke="#00AEB5" stroke-opacity="0.4" stroke-width="1"/>
<path d="M-126.392 829.256C373.069 1370.92 1279.32 104.559 1980.31 671.367" stroke="#00AEB5" stroke-opacity="0.4" stroke-width="1"/>
<path d="M-126.392 839.626C373.069 1381.29 1279.32 114.929 1980.31 681.737" stroke="#00AEB5" stroke-opacity="0.4" stroke-width="1"/>
<path d="M-126.392 849.997C373.069 1391.66 1279.32 125.3 1980.31 692.108" stroke="#00AEB5" stroke-opacity="0.4" stroke-width="1"/>
<path d="M-126.392 860.367C373.069 1402.03 1279.32 135.671 1980.31 702.478" stroke="#00AEB5" stroke-opacity="0.4" stroke-width="1"/>
<path d="M-126.392 870.738C373.069 1412.4 1279.32 146.041 1980.31 712.849" stroke="#00AEB5" stroke-opacity="0.4" stroke-width="1"/>
<path d="M-126.392 881.108C373.069 1422.77 1279.32 156.411 1980.31 723.219" stroke="#00AEB5" stroke-opacity="0.4" stroke-width="1"/>
<path d="M-126.392 891.479C373.069 1433.14 1279.32 166.782 1980.31 733.59" stroke="#00AEB5" stroke-opacity="0.4" stroke-width="1"/>
<path d="M-126.392 901.849C373.069 1443.51 1279.32 177.152 1980.31 743.96" stroke="#00AEB5" stroke-opacity="0.4" stroke-width="1"/>
<path d="M-126.392 912.22C373.069 1453.88 1279.32 187.523 1980.31 754.33" stroke="#00AEB5" stroke-opacity="0.4" stroke-width="1"/>
<path d="M-126.392 922.59C373.069 1464.25 1279.32 197.893 1980.31 764.701" stroke="#00AEB5" stroke-opacity="0.4" stroke-width="1"/>
<path d="M2016.14 384.055C1624.26 1063.71 276.304 139.477 -328.45 907.835" stroke="#00AEB5" stroke-opacity="0.4" stroke-width="1"/>
<path d="M2019.06 394.003C1627.19 1073.65 279.232 149.426 -325.522 917.784" stroke="#00AEB5" stroke-opacity="0.4" stroke-width="1"/>
<path d="M2021.99 403.952C1630.12 1083.6 282.16 159.374 -322.594 927.732" stroke="#00AEB5" stroke-opacity="0.4" stroke-width="1"/>
<path d="M2024.92 413.9C1633.05 1093.55 285.088 169.323 -319.666 937.681" stroke="#00AEB5" stroke-opacity="0.4" stroke-width="1"/>
<path d="M2027.85 423.849C1635.97 1103.5 288.016 179.271 -316.738 947.629" stroke="#00AEB5" stroke-opacity="0.4" stroke-width="1"/>
<path d="M2030.78 433.797C1638.9 1113.45 290.944 189.22 -313.81 957.578" stroke="#00AEB5" stroke-opacity="0.4" stroke-width="1"/>
<path d="M2033.7 443.746C1641.83 1123.4 293.871 199.168 -310.882 967.527" stroke="#00AEB5" stroke-opacity="0.4" stroke-width="1"/>
<path d="M2036.63 453.694C1644.76 1133.35 296.799 209.117 -307.954 977.475" stroke="#00AEB5" stroke-opacity="0.4" stroke-width="1"/>
<path d="M2039.56 463.643C1647.69 1143.29 299.727 219.065 -305.026 987.424" stroke="#00AEB5" stroke-opacity="0.4" stroke-width="1"/>
<path d="M2042.49 473.592C1650.61 1153.24 302.655 229.014 -302.098 997.372" stroke="#00AEB5" stroke-opacity="0.4" stroke-width="1"/>
<path d="M2045.42 483.54C1653.54 1163.19 305.583 238.962 -299.171 1007.32" stroke="#00AEB5" stroke-opacity="0.4" stroke-width="1"/>
<path d="M2048.34 493.489C1656.47 1173.14 308.511 248.911 -296.243 1017.27" stroke="#00AEB5" stroke-opacity="0.4" stroke-width="1"/>
<path d="M2051.27 503.437C1659.4 1183.09 311.439 258.86 -293.315 1027.22" stroke="#00AEB5" stroke-opacity="0.4" stroke-width="1"/>
<path d="M2054.2 513.386C1662.33 1193.04 314.367 268.808 -290.387 1037.17" stroke="#00AEB5" stroke-opacity="0.4" stroke-width="1"/>
<path d="M2057.13 523.334C1665.25 1202.99 317.295 278.757 -287.459 1047.12" stroke="#00AEB5" stroke-opacity="0.4" stroke-width="1"/>
<path d="M2060.05 533.283C1668.18 1212.93 320.223 288.705 -284.531 1057.06" stroke="#00AEB5" stroke-opacity="0.4" stroke-width="1"/>
<path d="M2062.98 543.231C1671.11 1222.88 323.151 298.654 -281.603 1067.01" stroke="#00AEB5" stroke-opacity="0.4" stroke-width="1"/>
<path d="M2065.91 553.18C1674.04 1232.83 326.079 308.602 -278.675 1076.96" stroke="#00AEB5" stroke-opacity="0.4" stroke-width="1"/>
<path d="M2068.84 563.128C1676.96 1242.78 329.006 318.551 -275.747 1086.91" stroke="#00AEB5" stroke-opacity="0.4" stroke-width="1"/>
<path d="M2071.77 573.076C1679.89 1252.73 331.934 328.499 -272.819 1096.86" stroke="#00AEB5" stroke-opacity="0.4" stroke-width="1"/>
<path d="M2074.69 583.025C1682.82 1262.68 334.862 338.448 -269.891 1106.81" stroke="#00AEB5" stroke-opacity="0.4" stroke-width="1"/>
<path d="M2077.62 592.974C1685.75 1272.62 337.79 348.397 -266.963 1116.75" stroke="#00AEB5" stroke-opacity="0.4" stroke-width="1"/>
<path d="M2080.55 602.922C1688.68 1282.57 340.718 358.345 -264.035 1126.7" stroke="#00AEB5" stroke-opacity="0.4" stroke-width="1"/>
<path d="M2083.48 612.871C1691.6 1292.52 343.646 368.293 -261.108 1136.65" stroke="#00AEB5" stroke-opacity="0.4" stroke-width="1"/>
</g>
</svg>
