<svg width="111" height="108" viewBox="0 0 111 108" fill="none" xmlns="http://www.w3.org/2000/svg">
<rect width="111" height="108" fill="#fff"/>
<g style="mix-blend-mode:multiply" opacity="0.3">
<g style="mix-blend-mode:multiply">
<g style="mix-blend-mode:multiply">
<path d="M-21 29.126H135.23V119.323H-21V29.126Z" fill="white"/>
</g>
<g style="mix-blend-mode:multiply">
<path d="M56.7471 109.966C20.3424 109.585 -9.00191 93.2749 -8.7952 73.5364C-8.58849 53.7979 21.0909 38.1057 57.4957 38.4869C93.9004 38.8682 123.245 55.1785 123.038 74.917C122.831 94.6555 93.1519 110.348 56.7471 109.966Z" fill="white"/>
</g>
<g style="mix-blend-mode:multiply">
<path d="M56.7497 109.733C20.5898 109.354 -8.55707 93.154 -8.35176 73.5491C-8.14645 53.9441 21.3333 38.3581 57.4932 38.7368C93.653 39.1155 122.8 55.3154 122.595 74.9204C122.389 94.5253 92.9095 110.111 56.7497 109.733Z" fill="white"/>
</g>
<g style="mix-blend-mode:multiply">
<path d="M56.7521 109.499C20.8327 109.123 -8.12041 93.0295 -7.91646 73.5536C-7.7125 54.0778 21.5713 38.5945 57.4907 38.9706C93.4101 39.3468 122.363 55.44 122.159 74.9158C121.955 94.3917 92.6715 109.875 56.7521 109.499Z" fill="white"/>
</g>
<g style="mix-blend-mode:multiply">
<path d="M56.7546 109.257C21.0801 108.883 -7.67558 92.9006 -7.47302 73.5584C-7.27046 54.2161 21.8137 38.839 57.4882 39.2126C93.1627 39.5862 121.918 55.569 121.716 74.9113C121.513 94.2535 92.4291 109.631 56.7546 109.257Z" fill="white"/>
</g>
<g style="mix-blend-mode:multiply">
<path d="M56.7571 109.015C21.323 108.644 -7.23885 92.768 -7.03764 73.5549C-6.83643 54.3417 22.0517 39.0673 57.4857 39.4383C92.9198 39.8094 121.482 55.6855 121.28 74.8987C121.079 94.1118 92.1912 109.386 56.7571 109.015Z" fill="white"/>
</g>
<g style="mix-blend-mode:multiply">
<path d="M56.7596 108.773C21.5704 108.405 -6.79405 92.639 -6.59424 73.5595C-6.39444 54.4799 22.294 39.3116 57.4832 39.6802C92.6723 40.0487 121.037 55.8144 120.837 74.894C120.637 93.9735 91.9488 109.142 56.7596 108.773Z" fill="white"/>
</g>
<g style="mix-blend-mode:multiply">
<path d="M56.762 108.548C21.8133 108.182 -6.35735 92.5225 -6.15889 73.5721C-5.96044 54.6217 22.532 39.556 57.4807 39.922C92.4294 40.288 120.6 55.9471 120.402 74.8975C120.203 93.8479 91.7108 108.914 56.762 108.548Z" fill="white"/>
</g>
<g style="mix-blend-mode:multiply">
<path d="M56.7646 108.306C22.0608 107.942 -5.91248 92.3935 -5.71543 73.5767C-5.51837 54.7599 22.7744 39.8004 57.4782 40.1638C92.182 40.5273 120.155 56.076 119.958 74.8928C119.761 93.7096 91.4684 108.669 56.7646 108.306Z" fill="white"/>
</g>
<g style="mix-blend-mode:multiply">
<path d="M56.7671 108.064C22.3037 107.703 -5.47579 92.2609 -5.28008 73.5732C-5.08438 54.8855 23.0124 40.0287 57.4758 40.3896C91.9392 40.7505 119.719 56.1925 119.523 74.8802C119.327 93.5679 91.2305 108.425 56.7671 108.064Z" fill="white"/>
</g>
<g style="mix-blend-mode:multiply">
<path d="M56.7696 107.83C22.5511 107.472 -5.03098 92.1401 -4.83668 73.586C-4.64237 55.0318 23.2547 40.2813 57.4732 40.6396C91.6917 40.998 119.274 56.3295 119.079 74.8837C118.885 93.4378 90.9881 108.188 56.7696 107.83Z" fill="white"/>
</g>
<g style="mix-blend-mode:multiply">
<path d="M56.7721 107.58C22.7941 107.224 -4.59419 92.0029 -4.40129 73.5824C-4.20838 55.1618 23.4926 40.5175 57.4707 40.8733C91.4487 41.2291 118.837 56.4504 118.644 74.8709C118.451 93.2915 90.7502 107.936 56.7721 107.58Z" fill="white"/>
</g>
<g style="mix-blend-mode:multiply">
<path d="M56.7746 107.346C23.0414 106.993 -4.14941 91.8785 -3.95785 73.5871C-3.7663 55.2957 23.7351 40.7539 57.4683 41.1072C91.2014 41.4604 118.392 56.575 118.201 74.8664C118.009 93.1578 90.5077 107.7 56.7746 107.346Z" fill="#FEFFFF"/>
</g>
<g style="mix-blend-mode:multiply">
<path d="M56.7771 107.104C23.2844 106.754 -3.71269 91.7495 -3.52253 73.5916C-3.33238 55.4338 23.973 40.9983 57.4657 41.349C90.9584 41.6998 117.955 56.704 117.765 74.8618C117.575 93.0197 90.2698 107.455 56.7771 107.104Z" fill="#FEFFFF"/>
</g>
<g style="mix-blend-mode:multiply">
<path d="M56.7795 106.871C23.5317 106.522 -3.26791 91.625 -3.07911 73.5963C-2.8903 55.5675 24.2154 41.2346 57.4632 41.5828C90.7111 41.931 117.511 56.8284 117.322 74.8571C117.133 92.8859 90.0274 107.219 56.7795 106.871Z" fill="#FEFEFF"/>
</g>
<g style="mix-blend-mode:multiply">
<path d="M56.7821 106.629C23.7747 106.283 -2.83113 91.4959 -2.64372 73.6008C-2.45632 55.7057 24.4534 41.479 57.4607 41.8247C90.4681 42.1703 117.074 56.9574 116.887 74.8526C116.699 92.7477 89.7895 106.974 56.7821 106.629Z" fill="#FEFEFF"/>
</g>
<g style="mix-blend-mode:multiply">
<path d="M56.7845 106.403C24.0221 106.06 -2.38636 91.3795 -2.2003 73.6135C-2.01425 55.8475 24.6958 41.7234 57.4583 42.0665C90.2208 42.4096 116.629 57.0899 116.443 74.856C116.257 92.622 89.547 106.746 56.7845 106.403Z" fill="#FEFEFF"/>
</g>
<g style="mix-blend-mode:multiply">
<path d="M56.7871 106.161C24.265 105.82 -1.94961 91.2505 -1.76496 73.618C-1.58031 55.9856 24.9337 41.9678 57.4557 42.3084C89.9778 42.649 116.192 57.219 116.008 74.8514C115.823 92.4838 89.3091 106.502 56.7871 106.161Z" fill="#FEFEFF"/>
</g>
<g style="mix-blend-mode:multiply">
<path d="M56.7895 105.919C24.5124 105.581 -1.50484 91.118 -1.32154 73.6147C-1.13824 56.1114 25.1761 42.1962 57.4533 42.5342C89.7304 42.8722 115.748 57.3355 115.564 74.8388C115.381 92.3421 89.0666 106.257 56.7895 105.919Z" fill="#FEFEFF"/>
</g>
<g style="mix-blend-mode:multiply">
<path d="M56.7921 105.677C24.7554 105.342 -1.06805 90.9889 -0.886149 73.6191C-0.704247 56.2494 25.4141 42.4404 57.4508 42.7759C89.4875 43.1114 115.311 57.4644 115.129 74.8341C114.947 92.2038 88.8288 106.013 56.7921 105.677Z" fill="#FDFEFE"/>
</g>
<g style="mix-blend-mode:multiply">
<path d="M56.7946 105.436C25.0028 105.103 -0.62328 90.86 -0.442777 73.6239C-0.262274 56.3877 25.6564 42.685 57.4482 43.0179C89.24 43.3508 114.866 57.5934 114.686 74.8295C114.505 92.0657 88.5864 105.768 56.7946 105.436Z" fill="#FDFEFE"/>
</g>
<g style="mix-blend-mode:multiply">
<path d="M56.797 105.21C25.2457 104.879 -0.186552 90.7435 -0.0074008 73.6365C0.17175 56.5295 25.8944 42.9293 57.4458 43.2598C88.9972 43.5902 114.429 57.726 114.25 74.833C114.071 91.9401 88.3484 105.54 56.797 105.21Z" fill="#FDFEFE"/>
</g>
<g style="mix-blend-mode:multiply">
<path d="M56.7996 104.968C25.4931 104.64 0.258295 90.6145 0.436047 73.6411C0.613799 56.6677 26.1368 43.1737 57.4433 43.5016C88.7497 43.8294 113.985 57.8549 113.807 74.8284C113.629 91.8018 88.1061 105.296 56.7996 104.968Z" fill="#FDFDFE"/>
</g>
<g style="mix-blend-mode:multiply">
<path d="M56.802 104.734C25.7404 104.409 0.703026 90.4901 0.879426 73.6458C1.05583 56.8015 26.3792 43.4102 57.4408 43.7355C88.5024 44.0608 113.54 57.9795 113.363 74.8238C113.187 91.6681 87.8636 105.059 56.802 104.734Z" fill="#FCFDFE"/>
</g>
<g style="mix-blend-mode:multiply">
<path d="M56.8045 104.484C25.9834 104.161 1.13981 90.3531 1.31481 73.6423C1.48981 56.9316 26.6171 43.6465 57.4383 43.9693C88.2594 44.2921 113.103 58.1004 112.928 74.8112C112.753 91.5219 87.6257 104.807 56.8045 104.484Z" fill="#FCFDFE"/>
</g>
<g style="mix-blend-mode:multiply">
<path d="M56.807 104.25C26.2307 103.93 1.58459 90.2285 1.75824 73.6469C1.93188 57.0653 26.8596 43.8828 57.4358 44.2031C88.0121 44.5233 112.658 58.2249 112.485 74.8065C112.311 91.3881 87.3832 104.571 56.807 104.25Z" fill="#FCFDFE"/>
</g>
<g style="mix-blend-mode:multiply">
<path d="M56.8095 104.017C26.4737 103.699 2.02131 90.1076 2.19356 73.6595C2.36581 57.2115 27.0975 44.1353 57.4333 44.453C87.7691 44.7707 112.221 58.362 112.049 74.81C111.877 91.258 87.1453 104.334 56.8095 104.017Z" fill="#FCFDFE"/>
</g>
<g style="mix-blend-mode:multiply">
<path d="M56.8119 103.783C26.721 103.468 2.46609 89.9831 2.63698 73.6642C2.80788 57.3453 27.3399 44.3716 57.4308 44.6867C87.5217 45.0019 111.777 58.4864 111.606 74.8053C111.435 91.1242 86.9028 104.098 56.8119 103.783Z" fill="#FBFDFE"/>
</g>
<g style="mix-blend-mode:multiply">
<path d="M56.8145 103.541C26.964 103.228 2.90287 89.854 3.07237 73.6687C3.24187 57.4834 27.5778 44.616 57.4283 44.9286C87.2788 45.2412 111.34 58.6154 111.17 74.8008C111.001 90.9861 86.665 103.853 56.8145 103.541Z" fill="#FBFCFE"/>
</g>
<g style="mix-blend-mode:multiply">
<path d="M56.817 103.299C27.2114 102.989 3.34766 89.7252 3.51576 73.6734C3.68385 57.6217 27.8202 44.8605 57.4257 45.1706C87.0313 45.4806 110.895 58.7444 110.727 74.7962C110.559 90.8479 86.4226 103.609 56.817 103.299Z" fill="#FBFCFE"/>
</g>
<g style="mix-blend-mode:multiply">
<path d="M56.8195 103.065C27.4543 102.758 3.78438 89.6006 3.95113 73.678C4.11788 57.7554 28.0582 45.0968 57.4233 45.4044C86.7884 45.7119 110.458 58.869 110.292 74.7916C110.125 90.7143 86.1846 103.373 56.8195 103.065Z" fill="#FAFCFE"/>
</g>
<g style="mix-blend-mode:multiply">
<path d="M56.822 102.815C27.7018 102.51 4.22922 89.4636 4.39456 73.6745C4.55991 57.8855 28.3006 45.3332 57.4208 45.6381C86.541 45.9431 110.014 58.9899 109.848 74.7789C109.683 90.5679 85.9422 103.12 56.822 102.815Z" fill="#FAFCFD"/>
</g>
<g style="mix-blend-mode:multiply">
<path d="M56.8245 102.582C27.9447 102.279 4.66594 89.339 4.82994 73.6791C4.99394 58.0192 28.5386 45.5695 57.4184 45.8719C86.2981 46.1744 109.577 59.1144 109.413 74.7743C109.249 90.4343 85.7043 102.884 56.8245 102.582Z" fill="#FAFCFD"/>
</g>
<g style="mix-blend-mode:multiply">
<path d="M56.8791 102.421C28.2427 102.135 5.1541 89.3156 5.30937 73.7884C5.46464 58.2612 28.8049 45.9061 57.4414 46.1924C86.0779 46.4788 109.166 59.2982 109.011 74.8254C108.856 90.3526 85.5156 102.708 56.8791 102.421Z" fill="#F9FBFD"/>
</g>
<g style="mix-blend-mode:multiply">
<path d="M56.8294 102.114C28.435 101.817 5.54744 89.0935 5.70869 73.6963C5.86993 58.2991 29.0189 46.0583 57.4133 46.3556C85.8078 46.653 108.695 59.3759 108.534 74.7732C108.373 90.1704 85.2239 102.411 56.8294 102.114Z" fill="#F9FBFD"/>
</g>
<g style="mix-blend-mode:multiply">
<path d="M56.832 101.872C28.6824 101.577 5.99231 88.9647 6.15216 73.7011C6.31201 58.4374 29.2613 46.3028 57.4109 46.5976C85.5604 46.8924 108.251 59.505 108.091 74.7686C107.931 90.0322 84.9816 102.167 56.832 101.872Z" fill="#F9FBFD"/>
</g>
<g style="mix-blend-mode:multiply">
<path d="M56.8344 101.638C28.9253 101.346 6.429 88.84 6.5875 73.7055C6.74599 58.571 29.4993 46.539 57.4084 46.8313C85.3175 47.1235 107.814 59.6294 107.655 74.7639C107.497 89.8984 84.7436 101.93 56.8344 101.638Z" fill="#F8FBFD"/>
</g>
<g style="mix-blend-mode:multiply">
<path d="M56.8369 101.388C29.1727 101.099 6.87381 88.7031 7.0309 73.7022C7.188 58.7012 29.7416 46.7754 57.4058 47.0652C85.0701 47.3549 107.369 59.7504 107.212 74.7513C107.055 89.7522 84.5012 101.678 56.8369 101.388Z" fill="#F8FAFD"/>
</g>
<g style="mix-blend-mode:multiply">
<path d="M56.8394 101.155C29.4156 100.867 7.31053 88.5785 7.46627 73.7067C7.62201 58.8349 29.9796 47.0118 57.4034 47.299C84.8272 47.5862 106.932 59.8749 106.777 74.7467C106.621 89.6185 84.2632 101.442 56.8394 101.155Z" fill="#F7FAFD"/>
</g>
<g style="mix-blend-mode:multiply">
<path d="M56.842 100.913C29.6631 100.628 7.75537 88.4496 7.90971 73.7113C8.06405 58.9731 30.222 47.2562 57.4009 47.5408C84.5798 47.8254 106.487 60.0038 106.333 74.7421C106.179 89.4803 84.0208 101.197 56.842 100.913Z" fill="#F7FAFC"/>
</g>
<g style="mix-blend-mode:multiply">
<path d="M56.8445 100.671C29.906 100.389 8.1921 88.3205 8.34505 73.7159C8.49799 59.1113 30.4599 47.5005 57.3983 47.7827C84.3368 48.0648 106.051 60.1329 105.898 74.7375C105.745 89.3421 83.7829 100.953 56.8445 100.671Z" fill="#F6F9FC"/>
</g>
<g style="mix-blend-mode:multiply">
<path d="M56.8469 100.445C30.1534 100.166 8.63688 88.2042 8.78847 73.7287C8.94007 59.2532 30.7023 47.7451 57.3959 48.0246C84.0894 48.3041 105.606 60.2655 105.454 74.741C105.303 89.2165 83.5405 100.725 56.8469 100.445Z" fill="#F6F9FC"/>
</g>
<g style="mix-blend-mode:multiply">
<path d="M56.8495 100.203C30.3964 99.9261 9.07366 88.075 9.22386 73.7331C9.37405 59.3912 30.9403 47.9893 57.3934 48.2663C83.8465 48.5434 105.169 60.3944 105.019 74.7363C104.869 89.0782 83.3026 100.48 56.8495 100.203Z" fill="#F5F9FC"/>
</g>
<g style="mix-blend-mode:multiply">
<path d="M56.9029 100.051C30.6932 99.7888 9.56132 88.0539 9.70346 73.8403C9.84559 59.6267 31.2079 48.3168 57.4176 48.5789C83.6272 48.841 104.759 60.5759 104.617 74.7894C104.475 89.003 83.1125 100.313 56.9029 100.051Z" fill="#F5F8FC"/>
</g>
<g style="mix-blend-mode:multiply">
<path d="M56.8544 99.7194C30.8867 99.4475 9.95516 87.8136 10.1026 73.7343C10.25 59.6551 31.4206 48.4621 57.3884 48.734C83.3561 49.006 104.288 60.6399 104.14 74.7191C103.993 88.7984 82.8222 99.9914 56.8544 99.7194Z" fill="#F4F8FC"/>
</g>
<g style="mix-blend-mode:multiply">
<path d="M56.8569 99.4856C31.134 99.2162 10.3999 87.6891 10.546 73.739C10.6921 59.7889 31.6631 48.6984 57.3859 48.9678C83.1088 49.2372 103.843 60.7644 103.697 74.7145C103.551 88.6646 82.5798 99.755 56.8569 99.4856Z" fill="#F4F8FC"/>
</g>
<g style="mix-blend-mode:multiply">
<path d="M56.8594 99.2437C31.377 98.9769 10.8367 87.56 10.9814 73.7435C11.1261 59.927 31.901 48.9428 57.3834 49.2097C82.8658 49.4765 103.406 60.8934 103.261 74.7099C103.117 88.5264 82.3419 99.5106 56.8594 99.2437Z" fill="#F3F7FB"/>
</g>
<g style="mix-blend-mode:multiply">
<path d="M56.8618 99.018C31.6243 98.7537 11.2814 87.4436 11.4248 73.7562C11.5681 60.0688 32.1434 49.1872 57.3809 49.4515C82.6184 49.7158 102.961 61.0259 102.818 74.7133C102.675 88.4007 82.0994 99.2823 56.8618 99.018Z" fill="#F3F7FB"/>
</g>
<g style="mix-blend-mode:multiply">
<path d="M56.8644 98.7761C31.8673 98.5143 11.7182 87.3146 11.8602 73.7607C12.0021 60.2069 32.3813 49.4316 57.3784 49.6934C82.3755 49.9551 102.525 61.1549 102.383 74.7087C102.241 88.2625 81.8615 99.0379 56.8644 98.7761Z" fill="#F2F7FB"/>
</g>
<g style="mix-blend-mode:multiply">
<path d="M56.8669 98.5343C32.1147 98.2751 12.163 87.1857 12.3036 73.7655C12.4441 60.3452 32.6237 49.6761 57.3758 49.9353C82.128 50.1945 102.08 61.2839 101.939 74.7042C101.799 88.1244 81.6191 98.7935 56.8669 98.5343Z" fill="#F2F6FB"/>
</g>
<g style="mix-blend-mode:multiply">
<path d="M56.8694 98.2923C32.3576 98.0356 12.5997 87.053 12.7389 73.7618C12.8781 60.4707 32.8617 49.9042 57.3734 50.1609C81.8852 50.4176 101.643 61.4003 101.504 74.6914C101.365 87.9825 81.3811 98.549 56.8694 98.2923Z" fill="#F1F6FB"/>
</g>
<g style="mix-blend-mode:multiply">
<path d="M56.8719 98.0505C32.6051 97.7964 13.0446 86.9241 13.1824 73.7666C13.3202 60.609 33.1041 50.1488 57.3709 50.4029C81.6378 50.657 101.198 61.5293 101.06 74.6869C100.923 87.8444 81.1388 98.3047 56.8719 98.0505Z" fill="#F0F5FB"/>
</g>
<g style="mix-blend-mode:multiply">
<path d="M56.8744 97.8167C32.848 97.5651 13.4813 86.7995 13.6177 73.7711C13.7542 60.7427 33.342 50.3851 57.3685 50.6367C81.3949 50.8883 100.762 61.6539 100.625 74.6823C100.489 87.7107 80.9008 98.0683 56.8744 97.8167Z" fill="#F0F5FA"/>
</g>
<g style="mix-blend-mode:multiply">
<path d="M56.8769 97.5748C33.0953 97.3258 13.9261 86.6706 14.0611 73.7757C14.1962 60.8809 33.5844 50.6295 57.3659 50.8785C81.1474 51.1276 100.317 61.7828 100.182 74.6776C100.047 87.5724 80.6584 97.8239 56.8769 97.5748Z" fill="#EFF5FA"/>
</g>
<g style="mix-blend-mode:multiply">
<path d="M56.8793 97.341C33.3382 97.0945 14.3628 86.546 14.4965 73.7803C14.6302 61.0146 33.8224 50.8658 57.3634 51.1123C80.9045 51.3589 99.88 61.9074 99.7463 74.6731C99.6126 87.4388 80.4204 97.5876 56.8793 97.341Z" fill="#EEF4FA"/>
</g>
<g style="mix-blend-mode:multiply">
<path d="M56.8819 97.1073C33.5857 96.8633 14.8077 86.4252 14.9399 73.7931C15.0722 61.161 34.0648 51.1184 57.3609 51.3623C80.6571 51.6063 99.4352 62.0444 99.3029 74.6766C99.1706 87.3087 80.1781 97.3513 56.8819 97.1073Z" fill="#EEF4FA"/>
</g>
<g style="mix-blend-mode:multiply">
<path d="M56.8843 96.8734C33.8286 96.6319 15.2444 86.3005 15.3753 73.7975C15.5063 61.2945 34.3028 51.3546 57.3585 51.596C80.4142 51.8375 98.9985 62.1689 98.8675 74.6719C98.7366 87.1749 79.9401 97.1148 56.8843 96.8734Z" fill="#EDF3F9"/>
</g>
<g style="mix-blend-mode:multiply">
<path d="M56.8868 96.6235C34.076 96.3847 15.6892 86.1636 15.8187 73.7942C15.9482 61.4248 34.5451 51.591 57.3559 51.8299C80.1668 52.0688 98.5536 62.2898 98.4241 74.6593C98.2945 87.0287 79.6977 96.8624 56.8868 96.6235Z" fill="#ECF3F9"/>
</g>
<g style="mix-blend-mode:multiply">
<path d="M56.8894 96.3817C34.319 96.1453 16.1259 86.0346 16.2541 73.7987C16.3822 61.5629 34.783 51.8354 57.3534 52.0718C79.9238 52.3081 98.1169 62.4189 97.9887 74.6547C97.8606 86.8905 79.4598 96.618 56.8894 96.3817Z" fill="#ECF2F9"/>
</g>
<g style="mix-blend-mode:multiply">
<path d="M56.8919 96.1478C34.5664 95.914 16.5707 85.9101 16.6975 73.8034C16.8243 61.6966 35.0255 52.0717 57.351 52.3055C79.6765 52.5393 97.6721 62.5433 97.5453 74.65C97.4186 86.7567 79.2174 96.3816 56.8919 96.1478Z" fill="#EBF2F9"/>
</g>
<g style="mix-blend-mode:multiply">
<path d="M56.8944 95.914C34.8093 95.6827 17.0075 85.7891 17.1328 73.816C17.2582 61.8428 35.2634 52.3242 57.3484 52.5555C79.4335 52.7868 97.2353 62.6804 97.1099 74.6535C96.9846 86.6267 78.9794 96.1453 56.8944 95.914Z" fill="#EAF1F9"/>
</g>
<g style="mix-blend-mode:multiply">
<path d="M56.8968 95.6803C35.0566 95.4516 17.4522 85.6647 17.5763 73.8207C17.7003 61.9767 35.5058 52.5606 57.346 52.7894C79.1862 53.0181 96.7906 62.805 96.6665 74.649C96.5425 86.493 78.737 95.909 56.8968 95.6803Z" fill="#E9F1F8"/>
</g>
<g style="mix-blend-mode:multiply">
<path d="M56.8994 95.4383C35.2996 95.2121 17.889 85.5356 18.0117 73.8251C18.1343 62.1147 35.7437 52.8049 57.3435 53.0311C78.9432 53.2573 96.3538 62.9339 96.2312 74.6443C96.1086 86.3547 78.4991 95.6645 56.8994 95.4383Z" fill="#E9F0F8"/>
</g>
<g style="mix-blend-mode:multiply">
<path d="M56.9018 95.1965C35.5469 94.9729 18.3337 85.4031 18.455 73.8218C18.5763 62.2405 35.9861 53.0333 57.341 53.2569C78.6958 53.4806 95.909 63.0504 95.7877 74.6317C95.6664 86.213 78.2566 95.4202 56.9018 95.1965Z" fill="#E8F0F8"/>
</g>
<g style="mix-blend-mode:multiply">
<path d="M56.9043 94.9547C35.7899 94.7336 18.7705 85.2741 18.8904 73.8264C19.0103 62.3786 36.2241 53.2777 57.3385 53.4988C78.4529 53.7199 95.4723 63.1794 95.3524 74.6271C95.2325 86.0748 78.0187 95.1758 56.9043 94.9547Z" fill="#E7EFF8"/>
</g>
<g style="mix-blend-mode:multiply">
<path d="M56.9068 94.7289C36.0373 94.5103 19.2153 85.1576 19.3338 73.839C19.4524 62.5204 36.4665 53.5221 57.336 53.7406C78.2055 53.9592 95.0275 63.3119 94.909 74.6305C94.7904 85.9491 77.7763 94.9474 56.9068 94.7289Z" fill="#E6EFF7"/>
</g>
<g style="mix-blend-mode:multiply">
<path d="M56.9093 94.487C36.2802 94.271 19.652 85.0286 19.7692 73.8436C19.8863 62.6586 36.7044 53.7665 57.3335 53.9825C77.9625 54.1985 94.5907 63.4409 94.4736 74.6259C94.3564 85.8109 77.5383 94.7031 56.9093 94.487Z" fill="#E5EEF7"/>
</g>
<g style="mix-blend-mode:multiply">
<path d="M56.9601 94.3265C36.5748 94.1226 20.1389 84.9979 20.2494 73.9459C20.3599 62.8938 36.975 54.0996 57.3603 54.3035C77.7456 54.5074 94.1815 63.6321 94.071 74.6841C93.9605 85.7361 77.3454 94.5304 56.9601 94.3265Z" fill="#E5EEF7"/>
</g>
<g style="mix-blend-mode:multiply">
<path d="M56.9143 94.0113C36.7706 93.8004 20.5336 84.7751 20.648 73.8528C20.7624 62.9304 37.1848 54.2472 57.3285 54.4581C77.4722 54.6691 93.7092 63.6944 93.5948 74.6167C93.4805 85.539 77.058 94.2223 56.9143 94.0113Z" fill="#E4EDF7"/>
</g>
<g style="mix-blend-mode:multiply">
<path d="M56.9168 93.7695C37.018 93.5611 20.9784 84.6462 21.0914 73.8575C21.2044 63.0687 37.4271 54.4917 57.326 54.7001C77.2248 54.9085 93.2644 63.8234 93.1514 74.6121C93.0384 85.4009 76.8156 93.9779 56.9168 93.7695Z" fill="#E3EDF6"/>
</g>
<g style="mix-blend-mode:multiply">
<path d="M56.9192 93.5277C37.2609 93.3218 21.4151 84.5136 21.5267 73.854C21.6384 63.1944 37.6651 54.72 57.3235 54.9258C76.9819 55.1317 92.8277 63.9399 92.716 74.5995C92.6044 85.2591 76.5776 93.7335 56.9192 93.5277Z" fill="#E2ECF6"/>
</g>
<g style="mix-blend-mode:multiply">
<path d="M56.9218 93.2858C37.5083 93.0825 21.86 84.3846 21.9702 73.8586C22.0804 63.3326 37.9075 54.9643 57.321 55.1677C76.7345 55.371 92.3829 64.0688 92.2726 74.5948C92.1624 85.1209 76.3353 93.4891 56.9218 93.2858Z" fill="#E1EBF6"/>
</g>
<g style="mix-blend-mode:multiply">
<path d="M56.9243 93.052C37.7512 92.8512 22.2967 84.2601 22.4055 73.8632C22.5144 63.4663 38.1455 55.2007 57.3186 55.4015C76.4916 55.6022 91.9462 64.1934 91.8373 74.5903C91.7284 84.9872 76.0973 93.2528 56.9243 93.052Z" fill="#E0EBF6"/>
</g>
<g style="mix-blend-mode:multiply">
<path d="M56.9268 92.8181C37.9986 92.6199 22.7415 84.1391 22.8489 73.8758C22.9564 63.6125 38.3878 55.4531 57.316 55.6513C76.2441 55.8496 91.5013 64.3303 91.3938 74.5936C91.2863 84.857 75.8549 93.0163 56.9268 92.8181Z" fill="#DFEAF5"/>
</g>
<g style="mix-blend-mode:multiply">
<path d="M56.9292 92.5843C38.2415 92.3886 23.1782 84.0146 23.2843 73.8804C23.3904 63.7462 38.6258 55.6894 57.3135 55.8851C76.0013 56.0809 91.0646 64.4549 90.9585 74.5891C90.8523 84.7233 75.6169 92.78 56.9292 92.5843Z" fill="#DEEAF5"/>
</g>
<g style="mix-blend-mode:multiply">
<path d="M56.9318 92.3425C38.489 92.1494 23.623 83.8857 23.7278 73.8851C23.8325 63.8845 38.8682 55.934 57.3111 56.1271C75.7539 56.3202 90.6198 64.5839 90.5151 74.5845C90.4104 84.5851 75.3746 92.5357 56.9318 92.3425Z" fill="#DDE9F5"/>
</g>
<g style="mix-blend-mode:multiply">
<path d="M56.9343 92.1007C38.7319 91.91 24.0598 83.7567 24.1631 73.8897C24.2664 64.0226 39.1061 56.1783 57.3085 56.369C75.5108 56.5596 90.183 64.7129 90.0797 74.58C89.9764 84.447 75.1366 92.2913 56.9343 92.1007Z" fill="#DCE8F4"/>
</g>
<g style="mix-blend-mode:multiply">
<path d="M56.9839 91.9399C39.0254 91.7603 24.5462 83.7202 24.6435 73.9817C24.7409 64.2433 39.3781 56.4943 57.3365 56.6739C75.295 56.8534 89.7743 64.8936 89.6769 74.632C89.5795 84.3705 74.9423 92.1195 56.9839 91.9399Z" fill="#DBE8F4"/>
</g>
<g style="mix-blend-mode:multiply">
<path d="M56.9393 91.6169C39.2223 91.4314 24.9413 83.4951 25.0419 73.8908C25.1425 64.2864 39.5865 56.651 57.3035 56.8365C75.0206 57.0221 89.3015 64.9583 89.2009 74.5627C89.1004 84.167 74.6563 91.8024 56.9393 91.6169Z" fill="#DAE7F4"/>
</g>
<g style="mix-blend-mode:multiply">
<path d="M56.9418 91.3831C39.4696 91.2001 25.3861 83.3706 25.4853 73.8954C25.5846 64.4202 39.8289 56.8873 57.3011 57.0703C74.7732 57.2533 88.8568 65.0828 88.7575 74.558C88.6583 84.0332 74.4139 91.566 56.9418 91.3831Z" fill="#D9E6F3"/>
</g>
<g style="mix-blend-mode:multiply">
<path d="M56.9443 91.1492C39.7126 90.9688 25.8228 83.2496 25.9207 73.908C26.0185 64.5664 40.0668 57.1398 57.2985 57.3202C74.5302 57.5007 88.42 65.2199 88.3221 74.5615C88.2243 83.9031 74.176 91.3297 56.9443 91.1492Z" fill="#D8E6F3"/>
</g>
<g style="mix-blend-mode:multiply">
<path d="M56.9467 90.9155C39.9599 90.7376 26.2676 83.1252 26.3641 73.9127C26.4605 64.7002 40.3093 57.3762 57.2961 57.5541C74.2829 57.732 87.9752 65.3444 87.8787 74.5569C87.7822 83.7694 73.9335 91.0934 56.9467 90.9155Z" fill="#D7E5F3"/>
</g>
<g style="mix-blend-mode:multiply">
<path d="M56.9492 90.6737C40.2029 90.4983 26.7043 82.9962 26.7994 73.9173C26.8945 64.8384 40.5472 57.6206 57.2935 57.796C74.0399 57.9714 87.5384 65.4734 87.4433 74.5524C87.3482 83.6313 73.6956 90.849 56.9492 90.6737Z" fill="#D6E4F2"/>
</g>
<g style="mix-blend-mode:multiply">
<path d="M56.9517 90.4318C40.4502 90.259 27.1491 82.8636 27.2428 73.9138C27.3366 64.964 40.7896 57.8489 57.2911 58.0217C73.7925 58.1945 87.0936 65.5898 86.9999 74.5396C86.9062 83.4894 73.4531 90.6046 56.9517 90.4318Z" fill="#D5E4F2"/>
</g>
<g style="mix-blend-mode:multiply">
<path d="M56.9542 90.1899C40.6932 90.0196 27.5859 82.7346 27.6782 73.9184C27.7705 65.1022 41.0275 58.0933 57.2886 58.2636C73.5496 58.4339 86.6569 65.7189 86.5646 74.5351C86.4723 83.3513 73.2152 90.3602 56.9542 90.1899Z" fill="#D4E3F2"/>
</g>
<g style="mix-blend-mode:multiply">
<path d="M56.9567 89.9561C40.9406 89.7883 28.0307 82.6101 28.1216 73.923C28.2126 65.2359 41.27 58.3296 57.2861 58.4973C73.3023 58.6651 86.2121 65.8433 86.1212 74.5304C86.0302 83.2175 72.9728 90.1238 56.9567 89.9561Z" fill="#D3E2F1"/>
</g>
<g style="mix-blend-mode:multiply">
<path d="M56.9592 89.7223C41.1836 89.557 28.4675 82.4891 28.557 73.9356C28.6466 65.3821 41.5079 58.582 57.2836 58.7473C73.0593 58.9125 85.7754 65.9804 85.6858 74.5339C85.5963 83.0874 72.7349 89.8875 56.9592 89.7223Z" fill="#D2E1F1"/>
</g>
<g style="mix-blend-mode:multiply">
<path d="M56.9617 89.4805C41.4309 89.3178 28.9122 82.3603 29.0004 73.9403C29.0886 65.5204 41.7503 58.8266 57.2811 58.9892C72.8118 59.1518 85.3306 66.1094 85.2424 74.5293C85.1542 82.9493 72.4925 89.6431 56.9617 89.4805Z" fill="#D0E1F1"/>
</g>
<g style="mix-blend-mode:multiply">
<path d="M56.9642 89.2465C41.6738 89.0864 29.3489 82.2356 29.4358 73.9448C29.5226 65.654 41.9883 59.0628 57.2786 59.2229C72.5689 59.383 84.8938 66.2338 84.807 74.5247C84.7202 82.8155 72.2545 89.4067 56.9642 89.2465Z" fill="#CFE0F0"/>
</g>
<g style="mix-blend-mode:multiply">
<path d="M56.9667 88.9967C41.9212 88.8391 29.7937 82.0987 29.8792 73.9414C29.9646 65.7842 42.2306 59.2992 57.276 59.4568C72.3215 59.6143 84.449 66.3548 84.3636 74.512C84.2781 82.6693 72.0121 89.1543 56.9667 88.9967Z" fill="#CEDFF0"/>
</g>
<g style="mix-blend-mode:multiply">
<path d="M56.9691 88.7629C42.1641 88.6079 30.2305 81.9741 30.3145 73.946C30.3986 65.9179 42.4686 59.5355 57.2736 59.6906C72.0786 59.8456 84.0123 66.4794 83.9282 74.5075C83.8441 82.5356 71.7742 88.9179 56.9691 88.7629Z" fill="#CDDEF0"/>
</g>
<g style="mix-blend-mode:multiply">
<path d="M56.9717 88.521C42.4116 88.3685 30.6753 81.8451 30.758 73.9506C30.8407 66.0561 42.711 59.7799 57.2711 59.9324C71.8312 60.0849 83.5675 66.6083 83.4848 74.5028C83.4022 82.3973 71.5318 88.6735 56.9717 88.521Z" fill="#CCDEEF"/>
</g>
<g style="mix-blend-mode:multiply">
<path d="M56.9742 88.2872C42.6545 88.1372 31.112 81.7206 31.1934 73.9552C31.2747 66.1898 42.949 60.0163 57.2687 60.1662C71.5883 60.3162 83.1308 66.7328 83.0495 74.4982C82.9681 82.2636 71.2938 88.4372 56.9742 88.2872Z" fill="#CBDDEF"/>
</g>
<g style="mix-blend-mode:multiply">
<path d="M56.9767 88.0453C42.9019 87.8979 31.5568 81.5916 31.6367 73.9598C31.7167 66.328 43.1913 60.2606 57.2661 60.408C71.3409 60.5554 82.6859 66.8617 82.606 74.4935C82.5261 82.1254 71.0514 88.1927 56.9767 88.0453Z" fill="#C9DCEF"/>
</g>
<g style="mix-blend-mode:multiply">
<path d="M56.9791 87.8115C43.1448 87.6666 31.9935 81.467 32.0721 73.9643C32.1507 66.4617 43.4293 60.497 57.2636 60.6418C71.098 60.7867 82.2492 66.9863 82.1707 74.489C82.0921 81.9917 70.8134 87.9564 56.9791 87.8115Z" fill="#C8DBEE"/>
</g>
<g style="mix-blend-mode:multiply">
<path d="M57.0268 87.6586C43.4366 87.5227 32.4793 81.4383 32.553 74.0688C32.6267 66.6993 43.7035 60.8353 57.2937 60.9712C70.8839 61.1071 81.8411 67.1915 81.7674 74.561C81.6937 81.9305 70.617 87.7945 57.0268 87.6586Z" fill="#C7DAEE"/>
</g>
<g style="mix-blend-mode:multiply">
<path d="M56.9842 87.3278C43.6352 87.188 32.8751 81.2092 32.9509 73.9736C33.0266 66.7381 43.9096 60.9859 57.2586 61.1257C70.6076 61.2655 81.3677 67.2443 81.2919 74.4799C81.2161 81.7154 70.3332 87.4676 56.9842 87.3278Z" fill="#C5D9ED"/>
</g>
<g style="mix-blend-mode:multiply">
<path d="M56.9866 87.094C43.8825 86.9568 33.3199 81.0846 33.3943 73.9782C33.4687 66.8718 44.152 61.2222 57.2561 61.3594C70.3602 61.4967 80.9229 67.3688 80.8485 74.4752C80.774 81.5816 70.0907 87.2312 56.9866 87.094Z" fill="#C4D9ED"/>
</g>
<g style="mix-blend-mode:multiply">
<path d="M57.034 86.941C44.1696 86.8124 33.7975 81.0552 33.8672 74.082C33.9369 67.1088 44.4221 61.5602 57.2865 61.6888C70.1508 61.8175 80.5229 67.5747 80.4532 74.5479C80.3835 81.5211 69.8983 87.0697 57.034 86.941Z" fill="#C3D8ED"/>
</g>
<g style="mix-blend-mode:multiply">
<path d="M56.9916 86.6263C44.3729 86.4942 34.2014 80.8392 34.2731 73.9955C34.3448 67.1518 44.6324 61.711 57.2512 61.8431C69.8699 61.9753 80.0414 67.6303 79.9697 74.474C79.898 81.3177 69.6104 86.7585 56.9916 86.6263Z" fill="#C2D7EC"/>
</g>
<g style="mix-blend-mode:multiply">
<path d="M57.0387 86.4654C44.6597 86.3416 34.679 80.8013 34.7461 74.0908C34.8132 67.3803 44.9028 62.0407 57.2818 62.1645C69.6608 62.2883 79.6415 67.8286 79.5744 74.5391C79.5073 81.2496 69.4177 86.5892 57.0387 86.4654Z" fill="#C0D6EC"/>
</g>
<g style="mix-blend-mode:multiply">
<path d="M79.1059 74.4541C79.0333 81.0333 69.1405 86.2659 57.0062 86.1369C44.8719 86.0079 35.0919 80.5737 35.1645 73.9946C35.237 67.4154 45.1218 62.1828 57.2561 62.3118C69.3904 62.4408 79.1543 67.8669 79.1059 74.4541Z" fill="#BFD5EB"/>
</g>
<g style="mix-blend-mode:multiply">
<path d="M56.9992 85.9089C45.1062 85.7843 35.5197 80.4567 35.5873 74.0093C35.6548 67.5619 45.3507 62.4362 57.2437 62.5607C69.1367 62.6853 78.7231 68.0129 78.6556 74.4603C78.5881 80.9077 68.8921 86.0334 56.9992 85.9089Z" fill="#BDD4EB"/>
</g>
<g style="mix-blend-mode:multiply">
<path d="M57.0016 85.667C45.3535 85.545 35.9645 80.3241 36.0307 74.0059C36.0969 67.6876 45.5931 62.6645 57.2412 62.7865C68.8893 62.9084 78.2783 68.1293 78.2122 74.4476C78.146 80.7659 68.6497 85.789 57.0016 85.667Z" fill="#BCD3EA"/>
</g>
<g style="mix-blend-mode:multiply">
<path d="M57.0041 85.4251C45.5965 85.3057 36.4012 80.1951 36.466 74.0104C36.5308 67.8257 45.831 62.9089 57.2387 63.0283C68.6463 63.1478 77.8415 68.2583 77.7768 74.443C77.712 80.6277 68.4118 85.5446 57.0041 85.4251Z" fill="#BBD2EA"/>
</g>
<g style="mix-blend-mode:multiply">
<path d="M57.0067 85.1913C45.8439 85.0744 36.8461 80.0742 36.9095 74.0231C36.9728 67.9719 46.0734 63.1613 57.2362 63.2782C68.3989 63.3951 77.3967 68.3953 77.3334 74.4464C77.27 80.4975 68.1694 85.3082 57.0067 85.1913Z" fill="#B9D1EA"/>
</g>
<g style="mix-blend-mode:multiply">
<path d="M57.0091 84.9575C46.0868 84.8431 37.2828 79.9496 37.3448 74.0276C37.4069 68.1056 46.3114 63.3976 57.2337 63.512C68.156 63.6264 76.96 68.5199 76.898 74.4419C76.836 80.3639 67.9314 85.0719 57.0091 84.9575Z" fill="#B8D0E9"/>
</g>
<g style="mix-blend-mode:multiply">
<path d="M57.0116 84.7157C46.3342 84.6039 37.7276 79.8208 37.7882 74.0324C37.8488 68.2439 46.5537 63.6421 57.2311 63.754C67.9086 63.8658 76.5152 68.6489 76.4546 74.4373C76.394 80.2257 67.689 84.8275 57.0116 84.7157Z" fill="#B6D0E9"/>
</g>
<g style="mix-blend-mode:multiply">
<path d="M76.0098 74.422C75.9534 80.0659 67.4473 84.581 57.0062 84.4681C46.565 84.3552 38.1637 79.6869 38.2202 73.9866C38.2766 68.2863 46.7908 63.8277 57.2238 63.9406C67.6569 64.0535 76.0743 68.762 76.0098 74.422Z" fill="#B5CFE8"/>
</g>
<g style="mix-blend-mode:multiply">
<path d="M57.0166 84.2319C46.8245 84.1252 38.6091 79.5592 38.667 74.0335C38.7248 68.5078 47.0341 64.1148 57.2261 64.2215C67.4182 64.3283 75.6336 68.8943 75.5758 74.42C75.5179 79.9457 67.2087 84.3387 57.0166 84.2319Z" fill="#B3CEE8"/>
</g>
<g style="mix-blend-mode:multiply">
<path d="M57.0191 83.9981C47.0675 83.8939 39.0459 79.4346 39.1024 74.038C39.1589 68.6414 47.2721 64.3511 57.2238 64.4553C67.1754 64.5596 75.197 69.0188 75.1405 74.4154C75.084 79.812 66.9707 84.1023 57.0191 83.9981Z" fill="#B2CDE7"/>
</g>
<g style="mix-blend-mode:multiply">
<path d="M57.0216 83.7562C47.3149 83.6546 39.4907 79.3057 39.5458 74.0426C39.6009 68.7796 47.5145 64.5955 57.2212 64.6972C66.9279 64.7988 74.7521 69.1477 74.697 74.4108C74.6419 79.6738 66.7283 83.8579 57.0216 83.7562Z" fill="#B0CCE7"/>
</g>
<g style="mix-blend-mode:multiply">
<path d="M57.0241 83.5305C47.5578 83.4313 39.9274 79.1891 39.9811 74.0553C40.0349 68.9214 47.7524 64.8399 57.2187 64.939C66.685 65.0382 74.3154 69.2804 74.2617 74.4143C74.2079 79.5481 66.4904 83.6296 57.0241 83.5305Z" fill="#AFCBE6"/>
</g>
<g style="mix-blend-mode:multiply">
<path d="M57.0266 83.2887C47.8052 83.1921 40.3722 79.0603 40.4245 74.06C40.4769 69.0597 47.9948 65.0844 57.2162 65.181C66.4376 65.2775 73.8706 69.4094 73.8182 74.4097C73.7658 79.41 66.248 83.3853 57.0266 83.2887Z" fill="#ADCAE6"/>
</g>
<g style="mix-blend-mode:multiply">
<path d="M57.0291 83.0467C48.0482 82.9527 40.809 78.9311 40.8599 74.0644C40.9109 69.1977 48.2327 65.3287 57.2137 65.4227C66.1947 65.5168 73.4338 69.5383 73.3829 74.405C73.3319 79.2717 66.0101 83.1408 57.0291 83.0467Z" fill="#ACC9E5"/>
</g>
<g style="mix-blend-mode:multiply">
<path d="M72.938 74.3897C72.8896 79.1305 65.7622 82.8958 57.0304 82.799C48.2985 82.7023 41.2518 78.7677 41.3001 74.0591C41.3485 69.3505 48.4678 65.553 57.2077 65.6498C65.9477 65.7465 72.9864 69.6569 72.938 74.3897Z" fill="#AAC8E5"/>
</g>
<g style="mix-blend-mode:multiply">
<path d="M57.0341 82.5631C48.5384 82.4741 41.6905 78.6697 41.7387 74.0656C41.7869 69.4616 48.713 65.8015 57.2087 65.8904C65.7043 65.9794 72.5523 69.7838 72.5041 74.3878C72.4559 78.9919 65.5297 82.652 57.0341 82.5631Z" fill="#A9C7E5"/>
</g>
<g style="mix-blend-mode:multiply">
<path d="M57.0365 82.3292C48.7858 82.2428 42.1353 78.5452 42.1821 74.0703C42.229 69.5954 48.9555 66.0378 57.2062 66.1242C65.457 66.2106 72.1075 69.9083 72.0607 74.3832C72.0138 78.8581 65.2873 82.4156 57.0365 82.3292Z" fill="#A7C6E4"/>
</g>
<g style="mix-blend-mode:multiply">
<path d="M57.0391 82.0874C49.0288 82.0035 42.572 78.4161 42.6175 74.0748C42.663 69.7335 49.1934 66.2822 57.2037 66.3661C65.214 66.4499 71.6708 70.0373 71.6253 74.3786C71.5799 78.7199 65.0494 82.1712 57.0391 82.0874Z" fill="#A5C4E4"/>
</g>
<g style="mix-blend-mode:multiply">
<path d="M57.0415 81.8616C49.2762 81.7803 43.0168 78.2997 43.0609 74.0875C43.105 69.8753 49.4359 66.5266 57.2013 66.6079C64.9667 66.6892 71.226 70.1698 71.1819 74.382C71.1378 78.5942 64.8069 81.9429 57.0415 81.8616Z" fill="#A4C3E3"/>
</g>
<g style="mix-blend-mode:multiply">
<path d="M57.044 81.6197C49.5191 81.5409 43.4535 78.1706 43.4963 74.092C43.539 70.0134 49.6738 66.7709 57.1987 66.8497C64.7237 66.9285 70.7892 70.2988 70.7465 74.3774C70.7038 78.456 64.569 81.6985 57.044 81.6197Z" fill="#A2C2E3"/>
</g>
<g style="mix-blend-mode:multiply">
<path d="M57.0465 81.386C49.7664 81.3098 43.8983 78.0463 43.9397 74.0968C43.981 70.1473 49.9162 67.0074 57.1963 67.0836C64.4763 67.1599 70.3445 70.4234 70.3031 74.3729C70.2617 78.3223 64.3266 81.4622 57.0465 81.386Z" fill="#A0C1E2"/>
</g>
<g style="mix-blend-mode:multiply">
<path d="M69.858 74.3574C69.8177 78.171 64.0851 81.2107 57.0465 81.1381C50.0078 81.0655 44.3317 77.913 44.372 74.0913C44.4123 70.2696 50.1529 67.2381 57.1916 67.3187C64.2303 67.3993 69.8983 70.5438 69.858 74.3574Z" fill="#9FC0E1"/>
</g>
<g style="mix-blend-mode:multiply">
<path d="M57.0516 80.8942C50.2568 80.823 44.7799 77.7802 44.8185 74.0979C44.857 70.4155 50.3965 67.4881 57.1912 67.5593C63.9859 67.6304 69.4629 70.6732 69.4243 74.3556C69.3858 78.0379 63.8463 80.9653 57.0516 80.8942Z" fill="#9DBFE1"/>
</g>
<g style="mix-blend-mode:multiply">
<path d="M57.054 80.6604C50.4997 80.5917 45.2166 77.6556 45.2538 74.1024C45.291 70.5492 50.6345 67.7244 57.1888 67.7931C63.743 67.8617 69.0262 70.7978 68.989 74.351C68.9517 77.9042 63.6083 80.729 57.054 80.6604Z" fill="#9BBEE0"/>
</g>
<g style="mix-blend-mode:multiply">
<path d="M57.0566 80.4265C50.7472 80.3604 45.6615 77.5347 45.6973 74.1151C45.7331 70.6955 50.8769 67.9769 57.1863 68.043C63.4956 68.109 68.5814 70.9347 68.5456 74.3544C68.5098 77.774 63.366 80.4926 57.0566 80.4265Z" fill="#9ABDE0"/>
</g>
<g style="mix-blend-mode:multiply">
<path d="M57.059 80.1927C50.9901 80.1292 46.0982 77.4102 46.1326 74.1197C46.1671 70.8292 51.1149 68.2132 57.1838 68.2768C63.2528 68.3403 68.1447 71.0593 68.1102 74.3498C68.0758 77.6403 63.128 80.2563 57.059 80.1927Z" fill="#98BCDF"/>
</g>
<g style="mix-blend-mode:multiply">
<path d="M67.665 74.3171C67.665 77.4776 62.8838 79.9609 57.0545 79.9609C51.2252 79.9609 46.5731 77.2922 46.5731 74.1316C46.5731 70.9711 51.3543 68.4878 57.1755 68.4878C62.9967 68.4878 67.6972 71.1807 67.665 74.3171Z" fill="#96BADF"/>
</g>
<g style="mix-blend-mode:multiply">
<path d="M57.1054 79.7895C51.5215 79.7337 47.0194 77.2338 47.0497 74.2058C47.0799 71.1779 51.6311 68.7685 57.2151 68.8243C62.799 68.8801 67.3011 71.3801 67.2708 74.408C67.2405 77.436 62.6893 79.8454 57.1054 79.7895Z" fill="#94B9DE"/>
</g>
<g style="mix-blend-mode:multiply">
<path d="M57.0665 79.4672C51.7278 79.4113 47.4245 77.0197 47.4548 74.1255C47.4852 71.2313 51.8376 68.9304 57.1763 68.9863C62.515 69.0422 66.8183 71.4337 66.788 74.328C66.7577 77.2222 62.4053 79.5231 57.0665 79.4672Z" fill="#92B8DE"/>
</g>
<g style="mix-blend-mode:multiply">
<path d="M66.3427 74.3171C66.3427 77.0745 62.1582 79.2757 57.0626 79.2192C51.967 79.1628 47.8631 76.881 47.8873 74.1236C47.9115 71.3662 52.0718 69.157 57.1674 69.2135C62.263 69.2699 66.375 71.5597 66.3427 74.3171Z" fill="#91B7DD"/>
</g>
<g style="mix-blend-mode:multiply">
<path d="M65.9074 74.3171C65.9074 76.9455 61.9244 79.0418 57.0384 78.9934C52.1525 78.945 48.2663 76.7681 48.2985 74.1558C48.3308 71.5435 52.2815 69.4311 57.1674 69.4876C62.0534 69.544 65.9315 71.6887 65.9074 74.3171Z" fill="#8FB6DD"/>
</g>
<g style="mix-blend-mode:multiply">
<path d="M65.4639 74.3172C65.4639 76.8247 61.6825 78.8081 57.0707 78.7597C52.4588 78.7113 48.742 76.6473 48.7662 74.1479C48.7903 71.6484 52.5556 69.657 57.1674 69.7053C61.7793 69.7537 65.4962 71.8097 65.4639 74.3172Z" fill="#8DB5DC"/>
</g>
<g style="mix-blend-mode:multiply">
<path d="M65.0285 74.3172C65.0285 76.6876 61.4406 78.5662 57.0707 78.5259C52.7007 78.4855 49.1854 76.5183 49.2096 74.1478C49.2338 71.7774 52.7975 69.8988 57.1594 69.9472C61.5213 69.9956 65.0527 71.9387 65.0285 74.3172Z" fill="#8BB3DB"/>
</g>
<g style="mix-blend-mode:multiply">
<path d="M64.5931 74.3171C64.5931 76.5585 61.2068 78.3484 57.0787 78.292C52.9507 78.2356 49.6289 76.3973 49.6531 74.1639C49.6772 71.9306 53.0394 70.1326 57.1674 70.189C61.2955 70.2455 64.5931 72.0676 64.5931 74.3171Z" fill="#89B2DB"/>
</g>
<g style="mix-blend-mode:multiply">
<path d="M64.1496 74.3171C64.1496 76.4214 60.9246 78.0904 57.0787 78.0501C53.2328 78.0098 50.0642 76.2763 50.0884 74.1639C50.1126 72.0515 53.3134 70.3906 57.1593 70.4309C61.0052 70.4712 64.1738 72.1966 64.1496 74.3171Z" fill="#87B1DA"/>
</g>
<g style="mix-blend-mode:multiply">
<path d="M63.7062 74.3172C63.7062 76.2925 60.723 77.8647 57.0787 77.8244C53.4344 77.7841 50.5077 76.1555 50.5238 74.1801C50.5399 72.2048 53.515 70.6406 57.1513 70.6729C60.7875 70.7051 63.7304 72.3176 63.7062 74.3172Z" fill="#85B0DA"/>
</g>
<g style="mix-blend-mode:multiply">
<path d="M57.0864 77.5645C53.6891 77.5289 50.9506 76.0057 50.9699 74.1623C50.9892 72.3189 53.759 70.8534 57.1563 70.8889C60.5537 70.9245 63.2922 72.4477 63.2728 74.2911C63.2535 76.1345 60.4838 77.6 57.0864 77.5645Z" fill="#84AED9"/>
</g>
<g style="mix-blend-mode:multiply">
<path d="M62.8274 74.3171C62.8274 76.0264 60.2393 77.389 57.0868 77.3567C53.9343 77.3245 51.3865 75.9055 51.4026 74.1962C51.4187 72.4869 53.9907 71.1243 57.1513 71.1566C60.3118 71.1888 62.8435 72.5756 62.8274 74.3171Z" fill="#82ADD9"/>
</g>
<g style="mix-blend-mode:multiply">
<path d="M62.392 74.3171C62.392 75.9296 59.9732 77.1552 57.0868 77.1229C54.2004 77.0907 51.8299 75.7926 51.8461 74.2123C51.8622 72.632 54.2649 71.3742 57.1432 71.4065C60.0216 71.4387 62.4081 72.7046 62.392 74.3171Z" fill="#80ACD8"/>
</g>
<g style="mix-blend-mode:multiply">
<path d="M61.9486 74.3171C61.9486 75.7603 59.7555 76.9133 57.111 76.8891C54.4664 76.8649 52.2734 75.6636 52.2734 74.2123C52.2734 72.761 54.4664 71.6161 57.111 71.6484C59.7555 71.6806 61.9647 72.8255 61.9486 74.3171Z" fill="#7EAAD7"/>
</g>
<g style="mix-blend-mode:multiply">
<path d="M61.5132 74.2688C61.5132 75.5911 59.5217 76.6312 57.0948 76.607C54.668 76.5828 52.7088 75.4943 52.7249 74.1882C52.741 72.882 54.7163 71.8258 57.1432 71.85C59.5701 71.8742 61.5212 72.9546 61.5132 74.2688Z" fill="#7CA9D7"/>
</g>
<g style="mix-blend-mode:multiply">
<path d="M61.0697 74.2687C61.0697 75.4539 59.2798 76.3892 57.0948 76.373C54.9098 76.3569 53.1522 75.3652 53.1603 74.18C53.1683 72.9948 54.9582 72.0595 57.1432 72.0837C59.3282 72.1079 61.0858 73.0835 61.0697 74.2687Z" fill="#7AA8D6"/>
</g>
<g style="mix-blend-mode:multiply">
<path d="M60.6344 74.2607C60.6344 75.3169 59.0218 76.1554 57.0949 76.1313C55.1679 76.1071 53.5876 75.2444 53.6037 74.1881C53.6199 73.1319 55.2163 72.3015 57.1352 72.3176C59.0541 72.3337 60.6424 73.2126 60.6344 74.2607Z" fill="#78A7D5"/>
</g>
<g style="mix-blend-mode:multiply">
<path d="M60.1909 74.2607C60.1909 75.1798 58.7961 75.8732 57.1029 75.8732C55.4097 75.8732 54.031 75.0669 54.0391 74.18C54.0472 73.2931 55.4339 72.5675 57.1351 72.5675C58.8364 72.5675 60.1989 73.3335 60.1909 74.2607Z" fill="#76A5D5"/>
</g>
<g style="mix-blend-mode:multiply">
<path d="M59.7555 74.2526C59.7555 75.0589 58.5542 75.6716 57.1029 75.6555C55.6516 75.6394 54.4745 74.9863 54.4825 74.1962C54.4906 73.406 55.6758 72.7771 57.1351 72.7933C58.5945 72.8094 59.7555 73.4625 59.7555 74.2526Z" fill="#74A4D4"/>
</g>
<g style="mix-blend-mode:multiply">
<path d="M59.3121 74.2445C59.3121 74.9057 58.3204 75.4298 57.1029 75.4136C55.8855 75.3975 54.9099 74.8573 54.9179 74.2042C54.926 73.5512 55.9177 73.019 57.1271 73.0351C58.3365 73.0513 59.3201 73.5915 59.3121 74.2445Z" fill="#71A3D4"/>
</g>
<g style="mix-blend-mode:multiply">
<path d="M58.8767 74.2446C58.8767 74.7687 58.0704 75.188 57.111 75.1799C56.1515 75.1718 55.3533 74.7364 55.3614 74.2043C55.3695 73.6722 56.1677 73.261 57.1271 73.269C58.0866 73.2771 58.8767 73.7206 58.8767 74.2446Z" fill="#6FA1D3"/>
</g>
<g style="mix-blend-mode:multiply">
<path d="M58.4333 74.2365C58.4333 74.6316 57.8366 74.946 57.111 74.938C56.3854 74.9299 55.7968 74.6074 55.7968 74.2123C55.7968 73.8173 56.3934 73.5028 57.1271 73.5109C57.8608 73.519 58.4413 73.8415 58.4333 74.2365Z" fill="#6DA0D2"/>
</g>
<g style="mix-blend-mode:multiply">
<path d="M57.9979 74.2366C57.9979 74.4946 57.5947 74.7042 57.111 74.7042C56.6272 74.7042 56.2321 74.4785 56.2402 74.2124C56.2483 73.9463 56.6353 73.7448 57.119 73.7448C57.6028 73.7448 57.9979 73.9705 57.9979 74.2366Z" fill="#6B9ED2"/>
</g>
<g style="mix-blend-mode:multiply">
<path d="M57.5544 74.2285C57.5544 74.3575 57.3609 74.4623 57.111 74.4623C56.8611 74.4623 56.6756 74.3494 56.6756 74.2204C56.6756 74.0914 56.8772 73.9866 57.1191 73.9866C57.3609 73.9866 57.5544 74.0995 57.5544 74.2285Z" fill="#699DD1"/>
</g>
</g>
</g>
<path d="M4.80055 28.3197L53.3377 0.293964C53.5756 0.144946 53.8432 0.0496972 54.1217 0.0148805C54.4002 -0.0199362 54.683 0.00651973 54.9502 0.0923979V0.0923979H55.0389L56.7885 0.769661L55.2163 1.53561V1.6243L63.8756 40.6878C64.0734 41.5589 64.0107 42.469 63.6953 43.3047C63.3799 44.1405 62.8258 44.8651 62.1018 45.3884L14.7257 72.7369L14.895 74.7445L12.9842 74.0027C12.6205 73.8045 12.3071 73.5256 12.0681 73.1873C11.8291 72.8491 11.6708 72.4605 11.6054 72.0515L3.03483 33.0444C2.82782 32.1706 2.88516 31.2549 3.19954 30.4137C3.51392 29.5725 4.07116 28.8436 4.80055 28.3197V28.3197Z" fill="#173D7A"/>
<path d="M4.80045 28.3197L53.3376 0.293964C53.5755 0.144946 53.843 0.0496972 54.1216 0.0148805C54.4001 -0.0199362 54.6829 0.00651973 54.9501 0.0923979V0.0923979H55.0388L56.7884 0.769661L55.2162 1.53561V1.6243L61.0939 28.36L37.4381 46.9283L3.27662 30.287C3.54462 29.4763 4.08245 28.7819 4.80045 28.3197V28.3197Z" fill="#396CAA"/>
<path d="M6.63076 33.8829L2.93806 32.351C2.89431 31.6619 3.0056 30.9718 3.26373 30.3313C3.52186 29.6909 3.92027 29.1164 4.42965 28.6503L10.2831 31.0691L6.63076 33.8829Z" fill="#274F89"/>
<path d="M16.5881 74.559L65.1252 46.5333C65.8494 46.0104 66.4031 45.2855 66.7172 44.4494C67.0313 43.6132 67.0917 42.703 66.891 41.8327L58.3204 2.8337C57.9253 1.02767 56.4901 0.21334 55.0953 1.00348L6.55816 29.0292C5.83471 29.5508 5.28126 30.2743 4.96716 31.109C4.65306 31.9437 4.59229 32.8526 4.79244 33.7217L13.363 72.7288C13.7742 74.5268 15.2094 75.3492 16.5881 74.559Z" fill="#D4ECFF"/>
<path d="M6.10663 28.8599L54.6518 0.834116C54.9346 0.65241 55.2605 0.549178 55.5963 0.53501C55.9321 0.520841 56.2656 0.596246 56.5627 0.753489C56.0648 0.648309 55.5455 0.737745 55.1114 1.00343L6.57425 29.0292C5.8508 29.5508 5.29735 30.2742 4.98325 31.109C4.66916 31.9437 4.60838 32.8526 4.80853 33.7217L13.3791 72.7288C13.4439 73.1224 13.5936 73.4972 13.8177 73.8271C14.0419 74.1571 14.3352 74.4343 14.6772 74.6396C14.2145 74.5 13.8022 74.2291 13.4902 73.8599C13.1782 73.4907 12.98 73.039 12.9196 72.5595L4.34091 33.5524C3.94584 31.7544 4.73598 29.65 6.10663 28.8599Z" fill="white"/>
<path d="M17.6362 71.858L63.2869 45.5335C63.9476 45.0543 64.4527 44.3914 64.7394 43.6273C65.0262 42.8632 65.0818 42.0316 64.8995 41.2361L56.99 5.28473C56.6352 3.6722 55.321 2.86594 54.0632 3.61576L8.41253 29.9322C7.75106 30.4107 7.24531 31.0735 6.9585 31.8379C6.6717 32.6022 6.61656 33.4341 6.8 34.2296L14.7095 70.2455C15.0642 71.858 16.3784 72.5998 17.6362 71.858Z" fill="white"/>
<path d="M17.6362 71.858L63.2869 45.5335C63.9476 45.0543 64.4527 44.3914 64.7394 43.6273C65.0262 42.8632 65.0818 42.0316 64.8995 41.2361L56.99 5.28473C56.6352 3.6722 55.321 2.86594 54.0632 3.61576L8.41253 29.9322C7.75106 30.4107 7.24531 31.0735 6.9585 31.8379C6.6717 32.6022 6.61656 33.4341 6.8 34.2296L14.7095 70.2455C15.0642 71.858 16.3784 72.5998 17.6362 71.858Z" fill="#173D7A"/>
<path d="M17.2412 71.7129L62.8919 45.3722C63.5526 44.8931 64.0577 44.2301 64.3444 43.466C64.6312 42.7019 64.6868 41.8703 64.5044 41.0748L56.595 5.12348C56.5362 4.76949 56.403 4.43197 56.2043 4.13318C56.0055 3.83439 55.7457 3.5811 55.442 3.39001C55.8503 3.53126 56.2114 3.78325 56.4847 4.11784C56.7581 4.45244 56.933 4.85645 56.99 5.28474L64.9076 41.22C65.0899 42.0155 65.0343 42.847 64.7476 43.6112C64.4608 44.3753 63.9557 45.0382 63.295 45.5174L17.6362 71.858C17.371 72.0247 17.0661 72.1177 16.753 72.1276C16.4398 72.1376 16.1297 72.064 15.8544 71.9145C16.0874 71.9745 16.33 71.9876 16.568 71.953C16.8061 71.9184 17.0349 71.8368 17.2412 71.7129V71.7129Z" fill="#5793CE"/>
<path d="M15.9109 75.7765L22.5464 74.8977L65.3833 50.1695C66.231 49.7852 67.1571 49.6055 68.087 49.6447C69.0169 49.6839 69.9246 49.941 70.7369 50.3953L101.085 67.9073L105.116 67.3833V69.6569C105.116 69.9548 105.029 70.2462 104.865 70.4953C104.702 70.7445 104.47 70.9407 104.197 71.0598L55.6597 99.0856C54.8113 99.4712 53.8842 99.6523 52.953 99.6145C52.0218 99.5767 51.1125 99.321 50.2981 98.8679L17.2412 79.7917C16.8789 79.6382 16.5652 79.389 16.3337 79.0709C16.1022 78.7527 15.9616 78.3776 15.927 77.9856V77.9856L15.9109 75.7765Z" fill="#173D7A"/>
<path d="M48.097 60.1511L51.1446 58.3934H84.6046L101.093 67.9074L105.124 67.3833V69.6569C105.124 69.9548 105.037 70.2462 104.874 70.4954C104.71 70.7445 104.478 70.9407 104.205 71.0599L55.6678 99.0856C54.8145 99.5193 53.8545 99.6984 52.9023 99.6016L48.097 60.1511Z" fill="#396CAA"/>
<path d="M103.318 67.6171L105.1 67.3833V69.657C105.1 69.9549 105.013 70.2462 104.849 70.4954C104.686 70.7445 104.454 70.9407 104.181 71.0599L103.326 71.5598L103.318 67.6171Z" fill="#5793CE"/>
<path d="M55.176 99.3114C53.6797 99.8011 52.0528 99.7001 50.6286 99.0292V93.9578H55.176V99.3114Z" fill="#274F89"/>
<path d="M55.6355 96.8522L104.173 68.8264C105.551 68.0202 105.374 66.6495 103.794 65.7385L70.7368 46.6622C69.9245 46.208 69.0168 45.9509 68.0869 45.9116C67.157 45.8724 66.2309 46.0522 65.3833 46.4365L16.838 74.4622C15.4674 75.2685 15.6367 76.6392 17.225 77.5583L50.2819 96.6345C51.0953 97.0863 52.0032 97.3413 52.9329 97.3791C53.8625 97.4169 54.7881 97.2365 55.6355 96.8522V96.8522Z" fill="#D4ECFF"/>
<path d="M17.225 76.6957L50.2819 95.7719C51.0969 96.2232 52.0061 96.4778 52.9369 96.5156C53.8678 96.5534 54.7946 96.3733 55.6435 95.9896L104.181 67.9638C104.571 67.7679 104.875 67.4349 105.035 67.0286C105.138 67.3765 105.107 67.75 104.949 68.0764C104.791 68.4029 104.517 68.6588 104.181 68.7943L55.6355 96.8523C54.787 97.2379 53.8599 97.419 52.9288 97.3812C51.9976 97.3434 51.0882 97.0877 50.2738 96.6346L17.2169 77.5584C16.1527 76.9376 15.7254 76.1152 15.9753 75.3976C16.2241 75.9652 16.6672 76.4255 17.225 76.6957V76.6957Z" fill="white"/>
<path d="M83.5323 59.5141L85.7253 58.2402C85.9027 58.1435 85.8785 57.9661 85.677 57.8451L83.0808 56.3455C82.9736 56.2951 82.8566 56.269 82.7381 56.269C82.6197 56.269 82.5027 56.2951 82.3954 56.3455L80.1702 57.5871C79.9928 57.6919 80.017 57.8693 80.2185 57.9822L82.8067 59.4819C82.9166 59.5436 83.0396 59.5787 83.1656 59.5843C83.2917 59.5899 83.4172 59.5659 83.5323 59.5141V59.5141Z" fill="#5793CE"/>
<path d="M80.1701 61.4733L82.3632 60.1994C82.5405 60.1026 82.5244 59.9253 82.3148 59.8043L79.7267 58.3047C79.6184 58.2531 79.4999 58.2263 79.38 58.2263C79.26 58.2263 79.1416 58.2531 79.0333 58.3047L76.8402 59.5705C76.6629 59.6753 76.687 59.8527 76.8886 59.9656L79.4848 61.4652C79.5914 61.5168 79.7081 61.5443 79.8266 61.5457C79.945 61.5471 80.0623 61.5224 80.1701 61.4733V61.4733Z" fill="#5793CE"/>
<path d="M76.7435 63.4245L78.9446 62.1828C79.122 62.078 79.0978 61.9006 78.8963 61.7878L76.3001 60.2881C76.1929 60.2378 76.0759 60.2117 75.9574 60.2117C75.839 60.2117 75.722 60.2378 75.6148 60.2881L73.4136 61.5539C73.2443 61.6588 73.2605 61.8361 73.462 61.949L76.0582 63.4487C76.1672 63.4953 76.2851 63.5172 76.4036 63.5131C76.522 63.5089 76.6381 63.4786 76.7435 63.4245Z" fill="#5793CE"/>
<path d="M72.0591 61.812L74.2522 60.5704C74.4296 60.4655 74.4054 60.2882 74.2038 60.1672L72.0269 58.9095C71.9197 58.8591 71.8027 58.833 71.6842 58.833C71.5658 58.833 71.4488 58.8591 71.3416 58.9095L69.1405 60.1753C68.9631 60.2801 68.9873 60.4575 69.1888 60.5704L71.3658 61.8281C71.4752 61.8772 71.5943 61.9012 71.7143 61.8984C71.8342 61.8956 71.952 61.8661 72.0591 61.812Z" fill="#5793CE"/>
<path d="M68.6647 63.7954L70.8578 62.5215C71.0352 62.4248 71.011 62.2474 70.8094 62.1265L68.6325 60.8687C68.5253 60.8183 68.4083 60.7922 68.2898 60.7922C68.1714 60.7922 68.0544 60.8183 67.9472 60.8687L65.7541 62.1345C65.5767 62.2393 65.5929 62.4167 65.8025 62.5296L67.9794 63.7874C68.086 63.839 68.2027 63.8664 68.3212 63.8678C68.4396 63.8692 68.5569 63.8445 68.6647 63.7954Z" fill="#5793CE"/>
<path d="M65.2704 65.7304L67.4715 64.4565C67.6408 64.3598 67.6247 64.1824 67.415 64.0615L65.2462 62.8037C65.1379 62.7521 65.0195 62.7253 64.8995 62.7253C64.7795 62.7253 64.6611 62.7521 64.5528 62.8037L62.3598 64.0695C62.1824 64.1743 62.2066 64.3517 62.4081 64.4646L64.5851 65.7224C64.6917 65.774 64.8084 65.8015 64.9268 65.8028C65.0453 65.8042 65.1626 65.7795 65.2704 65.7304V65.7304Z" fill="#5793CE"/>
<path d="M61.8841 67.6815L64.0448 66.4157C64.2222 66.3189 64.198 66.1335 63.9965 66.0206L61.8196 64.7628C61.7137 64.7077 61.5962 64.679 61.4769 64.679C61.3576 64.679 61.24 64.7077 61.1342 64.7628L58.9331 66.0287C58.7558 66.1254 58.7799 66.3028 58.9815 66.4238L61.1584 67.6815C61.271 67.7382 61.3952 67.7678 61.5212 67.7678C61.6473 67.7678 61.7715 67.7382 61.8841 67.6815Z" fill="#5793CE"/>
<path d="M58.4897 69.6409L60.6827 68.375C60.8601 68.2702 60.8359 68.0928 60.6343 67.98L58.4574 66.7222C58.3502 66.6718 58.2332 66.6458 58.1148 66.6458C57.9963 66.6458 57.8793 66.6718 57.7721 66.7222L55.5791 67.9961C55.4017 68.0928 55.4178 68.2702 55.6274 68.3912L57.8044 69.6489C57.9122 69.698 58.0295 69.7227 58.1479 69.7213C58.2664 69.72 58.3831 69.6925 58.4897 69.6409V69.6409Z" fill="#5793CE"/>
<path d="M55.0953 71.6001L57.2964 70.3342C57.4657 70.2294 57.4496 70.052 57.248 69.9391L55.0711 68.6814C54.9628 68.6298 54.8444 68.603 54.7244 68.603C54.6045 68.603 54.486 68.6298 54.3777 68.6814L52.1847 69.9553C52.0073 70.052 52.0315 70.2294 52.2331 70.3503L54.41 71.6081C54.5178 71.6572 54.6351 71.6819 54.7535 71.6805C54.872 71.6791 54.9887 71.6517 55.0953 71.6001Z" fill="#5793CE"/>
<path d="M51.709 73.5592L53.902 72.2934C54.0794 72.1886 54.0552 72.0112 53.8536 71.8983L51.6767 70.6405C51.5709 70.5854 51.4534 70.5566 51.3341 70.5566C51.2148 70.5566 51.0972 70.5854 50.9914 70.6405L48.7903 71.9064C48.6129 72.0112 48.6371 72.1886 48.8387 72.3095L51.0156 73.5592C51.1228 73.6144 51.2417 73.6432 51.3623 73.6432C51.4829 73.6432 51.6017 73.6144 51.709 73.5592V73.5592Z" fill="#5793CE"/>
<path d="M48.3146 75.5184L50.5077 74.2768C50.6851 74.172 50.6609 73.9946 50.4593 73.8736L48.2824 72.6239C48.1766 72.5688 48.059 72.54 47.9397 72.54C47.8204 72.54 47.7029 72.5688 47.5971 72.6239L45.404 73.8898C45.2266 73.9946 45.2428 74.172 45.4524 74.2929L47.6293 75.5426C47.7371 75.594 47.8556 75.6187 47.9749 75.6145C48.0943 75.6103 48.2108 75.5773 48.3146 75.5184Z" fill="#5793CE"/>
<path d="M44.9202 77.5018L47.1133 76.2037C47.2906 76.107 47.2665 75.9296 47.0649 75.8087L44.888 74.5509C44.7797 74.4993 44.6612 74.4725 44.5413 74.4725C44.4213 74.4725 44.3029 74.4993 44.1946 74.5509L42.0015 75.8167C41.8242 75.9215 41.8484 76.0989 42.0499 76.2118L44.2268 77.4696C44.3327 77.5262 44.4499 77.5585 44.5699 77.5641C44.6898 77.5697 44.8095 77.5484 44.9202 77.5018V77.5018Z" fill="#5793CE"/>
<path d="M41.5339 79.4369L43.727 78.163C43.9044 78.0662 43.8802 77.8889 43.6786 77.7679L41.5017 76.5102C41.3945 76.4598 41.2775 76.4337 41.159 76.4337C41.0406 76.4337 40.9236 76.4598 40.8164 76.5102L38.6153 77.776C38.4379 77.8808 38.4621 78.0582 38.6636 78.1711L40.8405 79.4288C40.9482 79.4817 41.0664 79.5098 41.1863 79.5112C41.3063 79.5126 41.425 79.4872 41.5339 79.4369V79.4369Z" fill="#5793CE"/>
<path d="M67.0603 60.8848L69.2533 59.6189C69.4307 59.5141 69.4065 59.3367 69.205 59.2158L67.028 57.958C66.9208 57.9077 66.8038 57.8816 66.6854 57.8816C66.5669 57.8816 66.4499 57.9077 66.3427 57.958L64.1416 59.2239C63.9723 59.3287 63.9884 59.5061 64.19 59.6189L66.3669 60.8767C66.4746 60.9296 66.5927 60.9577 66.7127 60.9591C66.8326 60.9605 66.9514 60.9351 67.0603 60.8848V60.8848Z" fill="#5793CE"/>
<path d="M70.495 58.8933L72.688 57.6275C72.8654 57.5227 72.8412 57.3453 72.6397 57.2324L70.495 55.9746C70.3878 55.9243 70.2708 55.8982 70.1523 55.8982C70.0339 55.8982 69.9169 55.9243 69.8097 55.9746L67.6086 57.2485C67.4312 57.3453 67.4554 57.5227 67.6569 57.6436L69.8338 58.9014C69.9384 58.9468 70.0513 58.9696 70.1653 58.9682C70.2793 58.9668 70.3916 58.9413 70.495 58.8933Z" fill="#5793CE"/>
<path d="M73.9458 56.9019L78.6786 54.1767C78.856 54.0719 78.8318 53.8945 78.6302 53.7735L76.4533 52.5238C76.3475 52.4687 76.2299 52.4399 76.1106 52.4399C75.9913 52.4399 75.8738 52.4687 75.768 52.5238L71.0352 55.2571C70.8578 55.3538 70.882 55.5312 71.0836 55.6521L73.2605 56.9099C73.3683 56.959 73.4856 56.9837 73.604 56.9823C73.7225 56.9809 73.8392 56.9535 73.9458 56.9019V56.9019Z" fill="#5793CE"/>
<path d="M71.5351 54.483L75.3326 52.2658C75.51 52.169 75.4938 51.9917 75.2842 51.8707L73.1073 50.6129C73.0001 50.5626 72.8831 50.5365 72.7646 50.5365C72.6462 50.5365 72.5292 50.5626 72.422 50.6129L68.5841 52.8302C68.4068 52.9269 68.431 53.1043 68.6325 53.2252L70.8094 54.483C70.922 54.5397 71.0462 54.5693 71.1723 54.5693C71.2983 54.5693 71.4225 54.5397 71.5351 54.483Z" fill="#5793CE"/>
<path d="M63.6659 62.844L65.8589 61.5701C66.0363 61.4734 66.0202 61.296 65.8106 61.175L63.6337 59.9173C63.5264 59.8669 63.4094 59.8408 63.291 59.8408C63.1725 59.8408 63.0555 59.8669 62.9483 59.9173L60.7553 61.1831C60.5779 61.2879 60.6021 61.4653 60.8037 61.5782L62.9806 62.8359C63.0872 62.8875 63.2039 62.915 63.3223 62.9164C63.4408 62.9178 63.5581 62.8931 63.6659 62.844Z" fill="#5793CE"/>
<path d="M60.2715 64.8032L62.4323 63.5293C62.6097 63.4325 62.5855 63.2552 62.3839 63.1342L60.207 61.8764C60.0987 61.8249 59.9803 61.7981 59.8603 61.7981C59.7404 61.7981 59.6219 61.8249 59.5136 61.8764L57.3206 63.1423C57.1432 63.2471 57.1674 63.4245 57.369 63.5373L59.5459 64.7951C59.6578 64.8531 59.7817 64.884 59.9077 64.8854C60.0337 64.8868 60.1583 64.8586 60.2715 64.8032V64.8032Z" fill="#5793CE"/>
<path d="M56.8853 66.7543L59.0783 65.4884C59.2557 65.3917 59.2315 65.2062 59.0299 65.0934L56.853 63.8356C56.7472 63.7805 56.6296 63.7517 56.5103 63.7517C56.391 63.7517 56.2735 63.7805 56.1677 63.8356L53.9666 65.1014C53.7973 65.1982 53.8134 65.3756 54.023 65.4965L56.1919 66.7543C56.3002 66.8059 56.4186 66.8326 56.5386 66.8326C56.6585 66.8326 56.777 66.8059 56.8853 66.7543V66.7543Z" fill="#5793CE"/>
<path d="M53.4909 68.7136L55.6839 67.4478C55.8613 67.343 55.8452 67.1656 55.6355 67.0527L53.4586 65.7949C53.3514 65.7446 53.2344 65.7185 53.1159 65.7185C52.9975 65.7185 52.8805 65.7446 52.7733 65.7949L50.5802 67.0205C50.4029 67.1172 50.427 67.2946 50.6286 67.4155L52.8055 68.6733C52.9098 68.7301 53.0252 68.7631 53.1437 68.7701C53.2622 68.777 53.3807 68.7578 53.4909 68.7136V68.7136Z" fill="#5793CE"/>
<path d="M50.0964 70.6728L52.2975 69.4392C52.4749 69.3344 52.4507 69.157 52.2492 69.0441L50.0722 67.7864C49.9639 67.7348 49.8455 67.708 49.7256 67.708C49.6056 67.708 49.4872 67.7348 49.3789 67.7864L47.1858 69.0603C47.0084 69.157 47.0326 69.3344 47.2342 69.4553L49.4111 70.7131C49.5213 70.7572 49.6398 70.7765 49.7583 70.7695C49.8767 70.7626 49.9922 70.7295 50.0964 70.6728Z" fill="#5793CE"/>
<path d="M46.7101 72.6643L48.9032 71.3985C49.0806 71.2937 49.0564 71.1163 48.8548 71.0034L46.6779 69.7456C46.5707 69.6953 46.4537 69.6692 46.3352 69.6692C46.2168 69.6692 46.0998 69.6953 45.9926 69.7456L43.7915 71.0115C43.6222 71.1163 43.6383 71.2937 43.8479 71.4146L46.0168 72.6724C46.1256 72.7227 46.2444 72.7481 46.3644 72.7467C46.4843 72.7453 46.6024 72.7172 46.7101 72.6643V72.6643Z" fill="#5793CE"/>
<path d="M43.3157 74.5913L45.5007 73.3255C45.6781 73.2207 45.662 73.0433 45.4524 72.9223L43.2754 71.6726C43.1696 71.6175 43.0521 71.5887 42.9328 71.5887C42.8135 71.5887 42.6959 71.6175 42.5901 71.6726L40.3971 72.9385C40.2197 73.0433 40.2439 73.2207 40.4454 73.3416L42.6224 74.5913C42.7292 74.6478 42.8482 74.6773 42.9691 74.6773C43.0899 74.6773 43.2089 74.6478 43.3157 74.5913V74.5913Z" fill="#5793CE"/>
<path d="M39.9214 76.5505L42.1225 75.2847C42.2999 75.1798 42.2757 75.0025 42.0741 74.8815L39.8972 73.6238C39.7889 73.5722 39.6704 73.5454 39.5505 73.5454C39.4305 73.5454 39.3121 73.5722 39.2038 73.6238L37.0108 74.8896C36.8334 74.9944 36.8576 75.1718 37.0591 75.2847L39.2361 76.5424C39.3427 76.594 39.4594 76.6215 39.5778 76.6229C39.6963 76.6243 39.8136 76.5996 39.9214 76.5505V76.5505Z" fill="#5793CE"/>
<path d="M36.5351 78.5098L38.7281 77.2359C38.9055 77.1391 38.8813 76.9617 38.6798 76.8408L36.5028 75.583C36.3956 75.5327 36.2786 75.5066 36.1602 75.5066C36.0417 75.5066 35.9247 75.5327 35.8175 75.583L33.6164 76.8489C33.4471 76.9537 33.4632 77.1311 33.6729 77.2439L35.8256 78.4775C35.9335 78.5367 36.0536 78.5704 36.1766 78.576C36.2996 78.5816 36.4222 78.5589 36.5351 78.5098V78.5098Z" fill="#5793CE"/>
<path d="M30.5042 81.9846L35.2934 79.2191C35.4708 79.1224 35.4466 78.945 35.2451 78.8241L33.0682 77.5663C32.9609 77.516 32.8439 77.4899 32.7255 77.4899C32.607 77.4899 32.49 77.516 32.3828 77.5663L27.5936 80.3318C27.4162 80.4286 27.4324 80.6059 27.642 80.7269L29.8189 81.9846C29.9261 82.035 30.0431 82.0611 30.1616 82.0611C30.28 82.0611 30.397 82.035 30.5042 81.9846Z" fill="#5793CE"/>
<path d="M23.9009 78.1791L27.9322 75.8409C28.1016 75.7361 28.0854 75.5587 27.8758 75.4459L25.7069 74.1881C25.5986 74.1365 25.4802 74.1097 25.3603 74.1097C25.2403 74.1097 25.1218 74.1365 25.0136 74.1881L20.9822 76.5263C20.8048 76.6311 20.821 76.8084 21.0306 76.9213L23.2075 78.1791C23.3158 78.2307 23.4343 78.2574 23.5542 78.2574C23.6742 78.2574 23.7926 78.2307 23.9009 78.1791Z" fill="#5793CE"/>
<path d="M57.7238 62.457L59.9249 61.1911C60.1022 61.0863 60.078 60.909 59.8765 60.7961L57.6996 59.5383C57.5913 59.4867 57.4728 59.46 57.3529 59.46C57.2329 59.46 57.1145 59.4867 57.0062 59.5383L54.8131 60.8122C54.6358 60.909 54.6599 61.0863 54.8615 61.2073L57.0384 62.465C57.1462 62.5141 57.2635 62.5389 57.382 62.5375C57.5004 62.5361 57.6171 62.5086 57.7238 62.457Z" fill="#5793CE"/>
<path d="M61.2068 60.4493L63.3998 59.1835C63.5772 59.0787 63.553 58.9013 63.3515 58.7884L61.1745 57.5307C61.0673 57.4803 60.9503 57.4542 60.8319 57.4542C60.7134 57.4542 60.5964 57.4803 60.4892 57.5307L58.2881 58.8046C58.1107 58.9013 58.1349 59.0787 58.3365 59.1996L60.5134 60.4574C60.6223 60.5077 60.7411 60.5331 60.861 60.5317C60.981 60.5303 61.0991 60.5022 61.2068 60.4493V60.4493Z" fill="#5793CE"/>
<path d="M64.6818 58.4418L66.8748 57.1759C67.0522 57.0711 67.028 56.8937 66.8264 56.7809L64.6495 55.5231C64.5423 55.4728 64.4253 55.4467 64.3068 55.4467C64.1884 55.4467 64.0714 55.4728 63.9642 55.5231L61.7631 56.797C61.5857 56.8937 61.6099 57.0711 61.8115 57.1921L63.9884 58.4498C64.0973 58.5002 64.216 58.5256 64.336 58.5242C64.4559 58.5228 64.5741 58.4946 64.6818 58.4418V58.4418Z" fill="#5793CE"/>
<path d="M68.1568 56.4342L70.3498 55.1684C70.5272 55.0716 70.503 54.8862 70.3015 54.7733L68.1245 53.5155C68.0187 53.4604 67.9012 53.4316 67.7819 53.4316C67.6626 53.4316 67.545 53.4604 67.4392 53.5155L65.2381 54.7814C65.0688 54.8781 65.0849 55.0555 65.2946 55.1764L67.4634 56.4342C67.5717 56.4858 67.6901 56.5126 67.8101 56.5126C67.9301 56.5126 68.0485 56.4858 68.1568 56.4342V56.4342Z" fill="#5793CE"/>
<path d="M54.3697 64.4161L56.5627 63.1503C56.7401 63.0455 56.7159 62.8681 56.5144 62.7552L54.3374 61.4975C54.2302 61.4471 54.1132 61.421 53.9948 61.421C53.8763 61.421 53.7593 61.4471 53.6521 61.4975L51.451 62.7633C51.2817 62.8681 51.2978 63.0455 51.4994 63.1664L53.6763 64.4242C53.7852 64.4745 53.904 64.4999 54.0239 64.4985C54.1439 64.4971 54.262 64.469 54.3697 64.4161V64.4161Z" fill="#5793CE"/>
<path d="M50.943 66.3754L53.136 65.1095C53.3134 65.0047 53.2973 64.8273 53.0877 64.7064L50.9108 63.4567C50.8049 63.4016 50.6874 63.3728 50.5681 63.3728C50.4488 63.3728 50.3312 63.4016 50.2254 63.4567L48.0324 64.7225C47.855 64.8273 47.8792 65.0047 48.0808 65.1257L50.2577 66.3754C50.3635 66.4305 50.481 66.4593 50.6003 66.4593C50.7196 66.4593 50.8372 66.4305 50.943 66.3754Z" fill="#5793CE"/>
<path d="M47.5487 68.3347L49.7498 67.0688C49.9272 66.964 49.903 66.7866 49.7014 66.6657L47.5245 65.4079C47.4162 65.3564 47.2978 65.3296 47.1778 65.3296C47.0579 65.3296 46.9394 65.3564 46.8311 65.4079L44.6381 66.6738C44.4607 66.7786 44.4849 66.956 44.6865 67.0688L46.8634 68.3266C46.97 68.3782 47.0867 68.4057 47.2051 68.4071C47.3236 68.4085 47.4409 68.3838 47.5487 68.3347V68.3347Z" fill="#5793CE"/>
<path d="M44.1624 70.2938L46.3554 69.0199C46.5328 68.9232 46.5086 68.7458 46.307 68.6249L44.1301 67.3671C44.0229 67.3168 43.9059 67.2906 43.7874 67.2906C43.669 67.2906 43.552 67.3168 43.4448 67.3671L41.2437 68.6329C41.0744 68.7377 41.0905 68.9151 41.3001 69.028L43.469 70.2455C43.5736 70.3047 43.6902 70.3398 43.8102 70.3482C43.9302 70.3566 44.0505 70.338 44.1624 70.2938V70.2938Z" fill="#5793CE"/>
<path d="M40.768 72.2531L42.961 70.9792C43.1384 70.8824 43.1222 70.705 42.9126 70.5841L40.7357 69.3263C40.6285 69.276 40.5115 69.2499 40.393 69.2499C40.2746 69.2499 40.1576 69.276 40.0504 69.3263L37.8573 70.5922C37.68 70.697 37.7042 70.8743 37.9057 70.9872L40.0826 72.245C40.1893 72.2966 40.3059 72.3241 40.4244 72.3255C40.5428 72.3269 40.6602 72.3021 40.768 72.2531V72.2531Z" fill="#5793CE"/>
<path d="M37.3736 74.2043L39.5747 72.9384C39.7521 72.8417 39.7279 72.6563 39.5263 72.5434L37.3494 71.2856C37.2422 71.2304 37.1233 71.2017 37.0027 71.2017C36.8821 71.2017 36.7633 71.2304 36.656 71.2856L34.463 72.5514C34.2856 72.6482 34.3098 72.8256 34.5113 72.9465L36.6883 74.2043C36.7955 74.2546 36.9125 74.2807 37.0309 74.2807C37.1494 74.2807 37.2664 74.2546 37.3736 74.2043V74.2043Z" fill="#5793CE"/>
<path d="M33.9873 76.1635L36.1803 74.8976C36.3577 74.7928 36.3335 74.6154 36.132 74.5025L33.955 73.2448C33.8478 73.1944 33.7308 73.1683 33.6124 73.1683C33.4939 73.1683 33.3769 73.1944 33.2697 73.2448L31.0686 74.5187C30.8993 74.6154 30.9154 74.7928 31.1251 74.9137L33.2939 76.1715C33.4028 76.2218 33.5216 76.2472 33.6415 76.2458C33.7615 76.2444 33.8796 76.2163 33.9873 76.1635V76.1635Z" fill="#5793CE"/>
<path d="M30.5929 78.1227L32.7859 76.8568C32.9633 76.752 32.9472 76.5747 32.7376 76.4618L30.5607 75.204C30.4534 75.1537 30.3364 75.1276 30.218 75.1276C30.0995 75.1276 29.9826 75.1537 29.8753 75.204L27.6823 76.4779C27.5049 76.5747 27.5291 76.752 27.7307 76.873L29.9076 78.1307C30.0154 78.1798 30.1327 78.2046 30.2512 78.2032C30.3696 78.2018 30.4863 78.1743 30.5929 78.1227Z" fill="#5793CE"/>
<path d="M27.1985 80.082L29.3754 78.8161C29.5528 78.7113 29.5286 78.5339 29.327 78.413L27.1501 77.1633C27.0429 77.1081 26.924 77.0793 26.8034 77.0793C26.6828 77.0793 26.564 77.1081 26.4567 77.1633L24.2637 78.4291C24.0863 78.5339 24.1105 78.7113 24.3121 78.8323L26.489 80.082C26.5978 80.1412 26.7198 80.1723 26.8437 80.1723C26.9677 80.1723 27.0897 80.1412 27.1985 80.082Z" fill="#5793CE"/>
<path d="M59.5137 57.6113L61.7067 56.3455C61.8841 56.2487 61.8599 56.0633 61.6583 55.9504L59.4814 54.6926C59.3742 54.6423 59.2572 54.6162 59.1388 54.6162C59.0203 54.6162 58.9033 54.6423 58.7961 54.6926L56.6031 55.9585C56.4257 56.0552 56.4418 56.2326 56.6514 56.3536L58.8283 57.6113C58.9356 57.6617 59.0526 57.6878 59.171 57.6878C59.2895 57.6878 59.4065 57.6617 59.5137 57.6113Z" fill="#5793CE"/>
<path d="M62.8838 55.6682L65.0849 54.4024C65.2623 54.2976 65.2381 54.1202 65.0365 53.9993L62.8596 52.7415C62.7524 52.6911 62.6354 52.665 62.5169 52.665C62.3985 52.665 62.2815 52.6911 62.1743 52.7415L59.9732 54.0073C59.7958 54.1121 59.82 54.2895 60.0215 54.4024L62.1985 55.6602C62.3051 55.7118 62.4218 55.7392 62.5402 55.7406C62.6587 55.742 62.776 55.7173 62.8838 55.6682V55.6682Z" fill="#5793CE"/>
<path d="M66.262 53.717L68.4551 52.4512C68.6325 52.3464 68.6163 52.169 68.4067 52.0561L66.2298 50.7984C66.1226 50.748 66.0056 50.7219 65.8871 50.7219C65.7687 50.7219 65.6517 50.748 65.5445 50.7984L63.3514 52.0642C63.174 52.169 63.1982 52.3464 63.3998 52.4673L65.5767 53.7251C65.6845 53.7742 65.8018 53.7989 65.9203 53.7975C66.0387 53.7961 66.1554 53.7686 66.262 53.717V53.717Z" fill="#5793CE"/>
<path d="M69.6403 51.7659L71.8334 50.5C72.0107 50.4033 71.9866 50.2259 71.785 50.105L69.6081 48.8472C69.5008 48.7968 69.3839 48.7708 69.2654 48.7708C69.147 48.7708 69.03 48.7968 68.9227 48.8472L66.7216 50.0888C66.5443 50.1856 66.5684 50.371 66.77 50.4839L68.9469 51.7417C69.0522 51.8006 69.1701 51.8336 69.2907 51.8378C69.4113 51.842 69.5312 51.8173 69.6403 51.7659V51.7659Z" fill="#5793CE"/>
<path d="M66.1653 49.7664L68.3664 48.4763C68.5358 48.3715 68.5196 48.1941 68.31 48.0732L67.5924 47.662C67.4852 47.6117 67.3682 47.5856 67.2498 47.5856C67.1313 47.5856 67.0143 47.6117 66.9071 47.662L64.7141 48.9359C64.5367 49.0327 64.5528 49.21 64.7624 49.331L65.48 49.7422C65.5839 49.8011 65.7004 49.834 65.8197 49.8382C65.939 49.8424 66.0576 49.8178 66.1653 49.7664Z" fill="#5793CE"/>
<path d="M61.7631 52.3061L63.9562 51.0403C64.1335 50.9355 64.1094 50.7581 63.9078 50.6452L63.1902 50.226C63.083 50.1756 62.966 50.1495 62.8475 50.1495C62.7291 50.1495 62.6121 50.1756 62.5049 50.226L60.3038 51.4918C60.1264 51.5966 60.1506 51.774 60.3522 51.8869L61.0778 52.3061C61.185 52.3565 61.302 52.3826 61.4205 52.3826C61.5389 52.3826 61.6559 52.3565 61.7631 52.3061Z" fill="#5793CE"/>
<path d="M58.401 54.2491L60.6021 52.9833C60.7714 52.8785 60.7553 52.7011 60.5457 52.5802L59.8281 52.169C59.7209 52.1186 59.6039 52.0925 59.4854 52.0925C59.367 52.0925 59.25 52.1186 59.1428 52.169L56.9417 53.4429C56.7723 53.5396 56.7885 53.717 56.9981 53.8379L57.7157 54.2491C57.8215 54.3043 57.939 54.333 58.0583 54.333C58.1776 54.333 58.2952 54.3043 58.401 54.2491V54.2491Z" fill="#5793CE"/>
<path d="M55.0389 56.1922L57.24 54.9264C57.4174 54.8297 57.3932 54.6523 57.1916 54.5313L56.466 54.1201C56.3602 54.065 56.2426 54.0363 56.1233 54.0363C56.004 54.0363 55.8864 54.065 55.7806 54.1201L53.5634 55.3457C53.386 55.4505 53.4022 55.6279 53.6118 55.7488L54.3294 56.16C54.4373 56.2192 54.5574 56.2529 54.6804 56.2585C54.8034 56.2641 54.926 56.2414 55.0389 56.1922V56.1922Z" fill="#5793CE"/>
<path d="M51.6768 58.1516L53.8779 56.8857C54.0552 56.7809 54.031 56.6035 53.8295 56.4906L53.1119 56.0714C53.0036 56.0198 52.8852 55.993 52.7652 55.993C52.6452 55.993 52.5268 56.0198 52.4185 56.0714L50.2255 57.3372C50.0481 57.442 50.0723 57.6194 50.2738 57.7323L50.9914 58.1516C51.0986 58.2019 51.2156 58.228 51.3341 58.228C51.4525 58.228 51.5695 58.2019 51.6768 58.1516V58.1516Z" fill="#5793CE"/>
<path d="M32.9149 68.9635L35.116 67.6977C35.2934 67.5928 35.2692 67.4155 35.0676 67.2945L34.342 66.8833C34.2348 66.833 34.1178 66.8069 33.9993 66.8069C33.8809 66.8069 33.7639 66.833 33.6567 66.8833L31.4636 68.1572C31.2863 68.254 31.3104 68.4314 31.512 68.5523L32.2296 68.9635C32.3368 69.0138 32.4538 69.0399 32.5722 69.0399C32.6907 69.0399 32.8077 69.0138 32.9149 68.9635V68.9635Z" fill="#5793CE"/>
<path d="M29.5609 70.8985L31.754 69.6327C31.9313 69.5359 31.9071 69.3585 31.7056 69.2376L30.988 68.8183C30.8797 68.7668 30.7613 68.74 30.6413 68.74C30.5214 68.74 30.4029 68.7668 30.2946 68.8183L28.1016 70.0842C27.9242 70.189 27.9484 70.3664 28.1499 70.4792L28.8675 70.8985C28.9748 70.9537 29.0936 70.9824 29.2142 70.9824C29.3348 70.9824 29.4537 70.9537 29.5609 70.8985V70.8985Z" fill="#5793CE"/>
<path d="M26.1988 72.8416L28.3918 71.5758C28.5692 71.471 28.545 71.2936 28.3435 71.1807L27.6259 70.7614C27.5176 70.7099 27.3991 70.6831 27.2792 70.6831C27.1592 70.6831 27.0408 70.7099 26.9325 70.7614L24.7395 72.0273C24.5621 72.124 24.5863 72.3095 24.7878 72.4224L25.5054 72.8416C25.6137 72.8932 25.7321 72.92 25.8521 72.92C25.9721 72.92 26.0905 72.8932 26.1988 72.8416Z" fill="#5793CE"/>
<path d="M22.8367 74.7848L25.0297 73.5189C25.2071 73.4141 25.1829 73.2367 24.9813 73.1158L24.2638 72.7046C24.1565 72.6543 24.0395 72.6282 23.9211 72.6282C23.8026 72.6282 23.6856 72.6543 23.5784 72.7046L21.3773 73.9705C21.2 74.0753 21.2241 74.2526 21.4257 74.3736L22.1513 74.7848C22.2586 74.8351 22.3756 74.8612 22.494 74.8612C22.6125 74.8612 22.7294 74.8351 22.8367 74.7848Z" fill="#5793CE"/>
<path d="M56.1193 59.5705L58.3204 58.3047C58.4977 58.1999 58.4736 58.0225 58.272 57.9096L56.0951 56.6518C55.9868 56.6002 55.8683 56.5735 55.7484 56.5735C55.6284 56.5735 55.51 56.6002 55.4017 56.6518L53.2086 57.9257C53.0313 58.0225 53.0554 58.1999 53.257 58.3208L55.4339 59.5786C55.5418 59.6277 55.659 59.6524 55.7775 59.651C55.8959 59.6496 56.0126 59.6221 56.1193 59.5705V59.5705Z" fill="#5793CE"/>
<path d="M52.7571 61.5298L54.9502 60.2639C55.1276 60.1591 55.1034 59.9818 54.9018 59.8689L52.7249 58.6111C52.6177 58.5608 52.5007 58.5347 52.3822 58.5347C52.2638 58.5347 52.1468 58.5608 52.0396 58.6111L49.8385 59.885C49.6611 59.9818 49.6853 60.1591 49.8868 60.2801L52.0637 61.5378C52.1726 61.5882 52.2914 61.6136 52.4114 61.6122C52.5313 61.6108 52.6494 61.5826 52.7571 61.5298V61.5298Z" fill="#5793CE"/>
<path d="M49.3386 63.489L51.5317 62.2232C51.709 62.1184 51.6849 61.941 51.4833 61.8281L49.3064 60.5703C49.1992 60.52 49.0822 60.4939 48.9637 60.4939C48.8453 60.4939 48.7283 60.52 48.621 60.5703L46.428 61.8362C46.2506 61.941 46.2668 62.1184 46.4764 62.2393L48.6533 63.4971C48.7611 63.5462 48.8784 63.5709 48.9969 63.5695C49.1153 63.5681 49.232 63.5406 49.3386 63.489V63.489Z" fill="#5793CE"/>
<path d="M45.9442 65.4482L48.1453 64.1823C48.3227 64.0775 48.2985 63.9002 48.0969 63.7792L45.92 62.5295C45.8128 62.4743 45.6939 62.4456 45.5733 62.4456C45.4527 62.4456 45.3339 62.4743 45.2266 62.5295L43.0336 63.7953C42.8562 63.9002 42.8804 64.0775 43.082 64.1985L45.2589 65.4079C45.3614 65.4693 45.4773 65.5051 45.5966 65.5121C45.7159 65.5191 45.8352 65.4972 45.9442 65.4482V65.4482Z" fill="#5793CE"/>
<path d="M42.5579 67.4075L44.7509 66.1416C44.9283 66.0368 44.9041 65.8595 44.7025 65.7385L42.5256 64.4807C42.4184 64.4304 42.3014 64.4043 42.1829 64.4043C42.0645 64.4043 41.9475 64.4304 41.8403 64.4807L39.6392 65.7466C39.4618 65.8514 39.486 66.0288 39.6876 66.1416L41.8645 67.3994C41.9722 67.4523 42.0903 67.4804 42.2103 67.4818C42.3302 67.4832 42.449 67.4578 42.5579 67.4075Z" fill="#5793CE"/>
<path d="M39.1635 69.3667L41.3566 68.0928C41.5339 67.9961 41.5097 67.8187 41.3082 67.6977L39.1313 66.44C39.024 66.3896 38.907 66.3635 38.7886 66.3635C38.6702 66.3635 38.5532 66.3896 38.4459 66.44L36.2529 67.7058C36.0755 67.8106 36.0916 67.988 36.3013 68.1009L38.4782 69.3586C38.5848 69.4102 38.7015 69.4377 38.8199 69.4391C38.9384 69.4405 39.0557 69.4158 39.1635 69.3667Z" fill="#5793CE"/>
<path d="M35.7691 71.3259L37.9703 70.052C38.1476 69.9552 38.1235 69.7779 37.9219 69.6569L35.745 68.3991C35.6367 68.3476 35.5182 68.3208 35.3983 68.3208C35.2783 68.3208 35.1599 68.3476 35.0516 68.3991L32.8585 69.665C32.6812 69.7698 32.7054 69.9472 32.9069 70.06L35.0838 71.3178C35.1905 71.3694 35.3071 71.3969 35.4256 71.3983C35.544 71.3997 35.6613 71.375 35.7691 71.3259V71.3259Z" fill="#5793CE"/>
<path d="M32.3828 73.277L34.5759 72.0112C34.7532 71.9144 34.729 71.729 34.5275 71.6161L32.3506 70.3583C32.2448 70.3032 32.1272 70.2744 32.0079 70.2744C31.8886 70.2744 31.771 70.3032 31.6652 70.3583L29.4641 71.6241C29.2868 71.7209 29.3109 71.8983 29.5125 72.0192L31.6894 73.277C31.7977 73.3286 31.9162 73.3553 32.0361 73.3553C32.1561 73.3553 32.2745 73.3286 32.3828 73.277V73.277Z" fill="#5793CE"/>
<path d="M28.9885 75.2363L31.1815 73.9705C31.3589 73.8657 31.3347 73.6883 31.1331 73.5754L28.9562 72.3176C28.849 72.2673 28.732 72.2412 28.6135 72.2412C28.4951 72.2412 28.3781 72.2673 28.2709 72.3176L26.0778 73.5915C25.9005 73.6883 25.9166 73.8657 26.1262 73.9866L28.3031 75.2444C28.4109 75.2935 28.5282 75.3182 28.6467 75.3168C28.7651 75.3154 28.8818 75.2879 28.9885 75.2363Z" fill="#5793CE"/>
<path d="M75.5099 59.8124L81.96 56.0794C82.1374 55.9746 82.1213 55.7972 81.9116 55.6843L79.7347 54.4265C79.6275 54.3762 79.5105 54.3501 79.3921 54.3501C79.2736 54.3501 79.1566 54.3762 79.0494 54.4265L72.5993 58.1676C72.4219 58.2644 72.4461 58.4417 72.6477 58.5627L74.8246 59.764C74.9282 59.8221 75.0434 59.8565 75.1618 59.8648C75.2803 59.8732 75.3992 59.8553 75.5099 59.8124Z" fill="#5793CE"/>
<path d="M33.8422 83.8714L40.2923 80.1383C40.4616 80.0335 40.4455 79.8561 40.2358 79.7433L38.0589 78.4855C37.9517 78.4352 37.8347 78.4091 37.7163 78.4091C37.5978 78.4091 37.4808 78.4352 37.3736 78.4855L30.9235 82.2185C30.7461 82.3233 30.7703 82.5007 30.9719 82.6216L33.1488 83.8714C33.2556 83.9278 33.3746 83.9574 33.4955 83.9574C33.6163 83.9574 33.7353 83.9278 33.8422 83.8714V83.8714Z" fill="#5793CE"/>
<path d="M47.4116 80.3641L49.6047 79.1144C49.782 79.0095 49.7579 78.8322 49.5563 78.7193L46.9601 77.2196C46.8543 77.1645 46.7368 77.1357 46.6174 77.1357C46.4981 77.1357 46.3806 77.1645 46.2748 77.2196L44.0818 78.4855C43.9044 78.5822 43.9205 78.7596 44.1301 78.8805L46.7182 80.3802C46.8277 80.4293 46.9468 80.4533 47.0668 80.4505C47.1867 80.4477 47.3045 80.4182 47.4116 80.3641Z" fill="#5793CE"/>
<path d="M72.035 66.1416L75.5503 64.1179C75.7277 64.0131 75.7035 63.8357 75.5019 63.7228L72.9138 62.2232C72.808 62.1681 72.6904 62.1393 72.5711 62.1393C72.4518 62.1393 72.3343 62.1681 72.2285 62.2232L68.7131 64.2469C68.5438 64.3517 68.56 64.5291 68.7696 64.642L71.3577 66.1416C71.4625 66.1954 71.5786 66.2234 71.6963 66.2234C71.8141 66.2234 71.9302 66.1954 72.035 66.1416V66.1416Z" fill="#5793CE"/>
<path d="M50.677 78.4774L54.1923 76.4537C54.3616 76.3489 54.3455 76.1715 54.1359 76.0506L51.5478 74.559C51.4405 74.5086 51.3235 74.4825 51.2051 74.4825C51.0866 74.4825 50.9696 74.5086 50.8624 74.559L47.3471 76.5908C47.1697 76.6875 47.1939 76.8649 47.3955 76.9858L49.9917 78.4855C50.0995 78.5346 50.2168 78.5593 50.3352 78.5579C50.4537 78.5565 50.5704 78.529 50.677 78.4774Z" fill="#5793CE"/>
<path d="M67.149 68.9715L70.6562 66.9397C70.8336 66.843 70.8094 66.6656 70.6079 66.5447L68.0197 65.045C67.9114 64.9934 67.793 64.9667 67.6731 64.9667C67.5531 64.9667 67.4347 64.9934 67.3264 65.045L63.8191 67.0687C63.6417 67.1736 63.6579 67.3509 63.8675 67.4719L66.4637 68.9393C66.5673 68.9982 66.6834 69.0318 66.8025 69.0374C66.9215 69.043 67.0403 69.0204 67.149 68.9715V68.9715Z" fill="#5793CE"/>
<path d="M67.2699 65.037L51.9993 73.8495C51.8138 73.9623 51.8138 74.1397 51.9993 74.2445L54.6438 75.7764C54.751 75.8268 54.868 75.8529 54.9865 75.8529C55.1049 75.8529 55.2219 75.8268 55.3291 75.7764L70.5998 66.9559L67.2699 65.037Z" fill="#5793CE"/>
<path d="M37.9299 83.952L35.5111 85.363C35.3741 85.4436 35.3902 85.5887 35.5515 85.6855L36.6157 86.2982C36.7035 86.3416 36.8 86.3642 36.8979 86.3642C36.9958 86.3642 37.0923 86.3416 37.1801 86.2982L39.5989 84.8873C39.744 84.7986 39.7279 84.6535 39.5989 84.5567L38.5427 83.9439C38.4481 83.8937 38.3424 83.868 38.2353 83.8694C38.1282 83.8708 38.0232 83.8992 37.9299 83.952V83.952Z" fill="#5793CE"/>
<path d="M41.3485 81.9443L38.9297 83.3553C38.7845 83.4359 38.8006 83.5811 38.97 83.6778L40.0262 84.2906C40.1139 84.3339 40.2105 84.3565 40.3084 84.3565C40.4062 84.3565 40.5028 84.3339 40.5906 84.2906L43.0094 82.8796C43.1464 82.799 43.1303 82.6458 43.0094 82.5571L41.9451 81.9443C41.8539 81.8935 41.7512 81.8668 41.6468 81.8668C41.5423 81.8668 41.4397 81.8935 41.3485 81.9443V81.9443Z" fill="#5793CE"/>
<path d="M44.7428 79.9852L42.3241 81.3962C42.1789 81.4768 42.2031 81.6219 42.3241 81.7187L43.3883 82.3314C43.4755 82.3767 43.5723 82.4003 43.6705 82.4003C43.7687 82.4003 43.8655 82.3767 43.9527 82.3314L46.3715 80.9205C46.5166 80.8399 46.5005 80.6947 46.3312 80.598L45.275 79.9852C45.192 79.9452 45.101 79.9244 45.0089 79.9244C44.9168 79.9244 44.8258 79.9452 44.7428 79.9852V79.9852Z" fill="#5793CE"/>
<path d="M39.478 80.864L37.0592 82.2749C36.914 82.3556 36.9382 82.5007 37.0592 82.5974L38.1234 83.2102C38.2112 83.2536 38.3077 83.2761 38.4056 83.2761C38.5035 83.2761 38.6001 83.2536 38.6878 83.2102L41.1066 81.7992C41.2517 81.7106 41.2356 81.5654 41.0663 81.4687L40.0101 80.8559C39.9261 80.8188 39.835 80.8003 39.7431 80.8017C39.6513 80.8031 39.5608 80.8243 39.478 80.864V80.864Z" fill="#5793CE"/>
<path d="M46.2909 21.7406L51.8058 18.5558L51.572 17.3706L46.0571 20.5554L46.2909 21.7406Z" fill="#D4ECFF"/>
<path d="M46.8956 24.498L52.4105 21.3133L52.1766 20.1281L46.6537 23.3128L46.8956 24.498Z" fill="white"/>
<path d="M19.8132 62.7876L25.3361 59.6028L25.1022 58.4176L19.5793 61.6023L19.8132 62.7876Z" fill="#D4ECFF"/>
<path d="M48.0888 30.021L53.6037 26.8362L53.3699 25.651L47.855 28.8357L48.0888 30.021Z" fill="#D4ECFF"/>
<path d="M36.8818 35.8825L42.445 32.6574C42.6988 32.4909 42.8967 32.252 43.0131 31.9717C43.1296 31.6914 43.1592 31.3825 43.0981 31.0852L41.8887 25.651C41.8772 25.5263 41.8337 25.4066 41.7622 25.3037C41.6908 25.2008 41.594 25.1182 41.4812 25.0638C41.3684 25.0094 41.2434 24.9852 41.1184 24.9934C40.9934 25.0016 40.8727 25.0421 40.768 25.1108L35.2047 28.3358C34.951 28.5024 34.7531 28.7413 34.6366 29.0216C34.5202 29.3019 34.4906 29.6107 34.5517 29.9081L35.7611 35.3423C35.7725 35.467 35.8161 35.5866 35.8875 35.6895C35.9589 35.7924 36.0558 35.8751 36.1686 35.9295C36.2814 35.9839 36.4064 36.0081 36.5314 35.9999C36.6564 35.9916 36.7771 35.9512 36.8818 35.8825Z" fill="#FF2C9C"/>
<path d="M27.1824 41.486L32.7456 38.261C33.0052 38.0901 33.2066 37.8444 33.3233 37.5564C33.4399 37.2684 33.4662 36.9517 33.3987 36.6484L32.1893 31.2223C32.1695 31.1024 32.1198 30.9895 32.045 30.8938C31.9702 30.7981 31.8725 30.7227 31.761 30.6745C31.6494 30.6264 31.5276 30.607 31.4066 30.6182C31.2856 30.6294 31.1694 30.6707 31.0686 30.7385L25.5053 33.9636C25.2524 34.1309 25.0551 34.3699 24.9388 34.65C24.8224 34.9301 24.7923 35.2385 24.8523 35.5358L26.0617 40.97C26.0768 41.0927 26.1231 41.2094 26.196 41.3092C26.2689 41.4089 26.3661 41.4884 26.4783 41.5401C26.5906 41.5918 26.7142 41.6139 26.8374 41.6045C26.9606 41.595 27.0793 41.5542 27.1824 41.486V41.486Z" fill="#B3E0FF"/>
<path d="M39.0507 45.5335L44.6139 42.3084C44.8734 42.1376 45.0749 41.8919 45.1916 41.6039C45.3082 41.3159 45.3345 40.9992 45.267 40.6959L44.0576 35.2617C44.0446 35.1368 43.9999 35.0173 43.9276 34.9146C43.8552 34.812 43.7578 34.7296 43.6445 34.6754C43.5312 34.6212 43.406 34.597 43.2806 34.605C43.1553 34.6131 43.0342 34.6532 42.9288 34.7215L37.3656 37.9465C37.106 38.1174 36.9046 38.3631 36.7879 38.6511C36.6713 38.9391 36.645 39.2558 36.7125 39.5591L37.9219 44.9933C37.9348 45.1182 37.9796 45.2377 38.0519 45.3403C38.1242 45.443 38.2217 45.5254 38.335 45.5796C38.4482 45.6338 38.5735 45.658 38.6988 45.6499C38.8241 45.6419 38.9453 45.6018 39.0507 45.5335V45.5335Z" fill="white"/>
<path d="M29.3351 51.137L34.8983 47.9119C35.1497 47.7431 35.3457 47.5039 35.4619 47.2243C35.5781 46.9446 35.6092 46.6369 35.5514 46.3397L34.342 40.9055C34.3303 40.7799 34.2865 40.6594 34.2147 40.5557C34.1428 40.452 34.0455 40.3686 33.932 40.3135C33.8186 40.2584 33.6928 40.2334 33.5669 40.2411C33.441 40.2488 33.3192 40.2888 33.2132 40.3572L27.65 43.5823C27.3896 43.7523 27.1875 43.9979 27.0707 44.2862C26.954 44.5744 26.9283 44.8915 26.9969 45.1948L28.2063 50.621C28.2229 50.7438 28.2703 50.8604 28.3441 50.96C28.4179 51.0595 28.5157 51.1387 28.6284 51.1903C28.7411 51.2418 28.8651 51.2639 28.9886 51.2546C29.1122 51.2453 29.2314 51.2048 29.3351 51.137V51.137Z" fill="#396CAA"/>
</svg>
