<svg width="127" height="74" viewBox="0 0 127 74" fill="none" xmlns="http://www.w3.org/2000/svg">
<g clip-path="url(#clip0)">
<rect width="1440" height="2856" transform="translate(-1158 -1524)" fill="white"/>
<rect x="-1158" y="-947" width="1440" height="2279" fill="white"/>
<g style="mix-blend-mode:multiply" opacity="0.3">
<g style="mix-blend-mode:multiply">
<path d="M-22 -7H153V94.0334H-22V-7Z" fill="white"/>
</g>
<g style="mix-blend-mode:multiply">
<path d="M65.0777 83.5484C24.2992 83.1214 -8.57061 64.8515 -8.33907 42.7415C-8.10752 20.6315 25.1377 3.05405 65.9162 3.4811C106.695 3.90814 139.565 22.178 139.333 44.288C139.102 66.398 105.856 83.9755 65.0777 83.5484Z" fill="white"/>
</g>
<g style="mix-blend-mode:multiply">
<path d="M65.0806 83.2775C24.5764 82.8533 -8.07233 64.7071 -7.84236 42.7467C-7.61238 20.7863 25.4092 3.32781 65.9134 3.75198C106.418 4.17616 139.066 22.3224 138.836 44.2828C138.606 66.2431 105.585 83.7017 65.0806 83.2775Z" fill="white"/>
</g>
<g style="mix-blend-mode:multiply">
<path d="M65.0833 83.0156C24.8484 82.5943 -7.58322 64.5676 -7.35476 42.7518C-7.1263 20.9361 25.6757 3.59257 65.9106 4.01393C106.145 4.43528 138.577 22.462 138.349 44.2777C138.12 66.0934 105.318 83.437 65.0833 83.0156Z" fill="white"/>
</g>
<g style="mix-blend-mode:multiply">
<path d="M65.1214 82.8896C25.1586 82.4899 -7.06195 64.6012 -6.84528 42.9339C-6.62861 21.2666 25.9433 4.02577 65.906 4.4254C105.869 4.82502 138.089 22.7138 137.873 44.3811C137.656 66.0483 105.084 83.2892 65.1214 82.8896Z" fill="white"/>
</g>
<g style="mix-blend-mode:multiply">
<path d="M65.0889 82.4828C25.3976 82.0671 -6.59578 64.2836 -6.3704 42.7621C-6.14502 21.2407 26.2138 4.13103 65.905 4.5467C105.596 4.96236 137.59 22.7459 137.364 44.2673C137.139 65.7888 104.78 82.8984 65.0889 82.4828Z" fill="white"/>
</g>
<g style="mix-blend-mode:multiply">
<path d="M65.0917 82.2119C25.6748 81.7991 -6.09751 64.1392 -5.87369 42.7673C-5.64988 21.3955 26.4853 4.40486 65.9022 4.81764C105.319 5.23043 137.091 22.8903 136.868 44.2622C136.644 65.634 104.509 82.6246 65.0917 82.2119Z" fill="white"/>
</g>
<g style="mix-blend-mode:multiply">
<path d="M65.0945 81.95C25.9469 81.54 -5.60827 63.9996 -5.38597 42.7724C-5.16368 21.5452 26.7519 4.66956 65.8995 5.07953C105.047 5.48949 136.602 23.0299 136.38 44.2571C136.158 65.4842 104.242 82.3599 65.0945 81.95Z" fill="white"/>
</g>
<g style="mix-blend-mode:multiply">
<path d="M65.0974 81.6791C26.2241 81.272 -5.10997 63.8552 -4.88923 42.7777C-4.6685 21.7001 27.0234 4.94338 65.8967 5.35047C104.77 5.75757 136.104 23.1743 135.883 44.2519C135.663 65.3294 103.971 82.0862 65.0974 81.6791Z" fill="white"/>
</g>
<g style="mix-blend-mode:multiply">
<path d="M65.1 81.4172C26.4961 81.0129 -4.62087 63.7157 -4.40165 42.7827C-4.18243 21.8498 27.29 5.20808 65.8939 5.61236C104.498 6.01663 135.615 23.3138 135.396 44.2468C135.176 65.1797 103.704 81.8214 65.1 81.4172Z" fill="white"/>
</g>
<g style="mix-blend-mode:multiply">
<path d="M65.1028 81.1463C26.7732 80.7449 -4.12262 63.5713 -3.90497 42.788C-3.68732 22.0047 27.5614 5.4819 65.891 5.88331C104.221 6.28471 135.117 23.4583 134.899 44.2416C134.681 65.0249 103.432 81.5477 65.1028 81.1463Z" fill="white"/>
</g>
<g style="mix-blend-mode:multiply">
<path d="M65.1057 80.8753C27.0454 80.4767 -3.63339 63.4267 -3.41731 42.7931C-3.20123 22.1594 27.8279 5.75564 65.8882 6.15422C103.949 6.5528 134.627 23.6028 134.411 44.2365C134.195 64.8701 103.166 81.2739 65.1057 80.8753Z" fill="white"/>
</g>
<g style="mix-blend-mode:multiply">
<path d="M65.1085 80.6134C27.3225 80.2177 -3.13513 63.2873 -2.92056 42.7983C-2.70599 22.3093 28.0995 6.02043 65.8855 6.41614C103.671 6.81184 134.129 23.7423 133.915 44.2313C133.7 64.7203 102.894 81.0092 65.1085 80.6134Z" fill="#FEFFFF"/>
</g>
<g style="mix-blend-mode:multiply">
<path d="M65.1113 80.3425C27.5947 79.9496 -2.6459 63.1428 -2.43289 42.8034C-2.21989 22.464 28.366 6.29416 65.8827 6.68705C103.399 7.07994 133.64 23.8868 133.427 44.2262C133.214 64.5656 102.628 80.7354 65.1113 80.3425Z" fill="#FEFFFF"/>
</g>
<g style="mix-blend-mode:multiply">
<path d="M65.114 80.0806C27.8717 79.6906 -2.14774 63.0034 -1.93625 42.8086C-1.72476 22.6139 28.6375 6.55895 65.8799 6.94897C103.122 7.33898 133.142 24.0262 132.93 44.221C132.719 64.4157 102.356 80.4707 65.114 80.0806Z" fill="#FEFEFF"/>
</g>
<g style="mix-blend-mode:multiply">
<path d="M65.1169 79.8096C28.1439 79.4224 -1.65848 62.8588 -1.44856 42.8137C-1.23864 22.7685 28.9041 6.83263 65.8771 7.21982C102.85 7.60702 132.652 24.1707 132.443 44.2158C132.233 64.2609 102.09 80.1968 65.1169 79.8096Z" fill="#FEFEFF"/>
</g>
<g style="mix-blend-mode:multiply">
<path d="M65.1196 79.5478C28.4209 79.1634 -1.16029 62.7194 -0.95188 42.8189C-0.743475 22.9184 29.1756 7.09741 65.8743 7.48174C102.573 7.86606 132.154 24.3101 131.946 44.2106C131.737 64.1111 101.818 79.9321 65.1196 79.5478Z" fill="#FEFEFF"/>
</g>
<g style="mix-blend-mode:multiply">
<path d="M65.1225 79.2768C28.6931 78.8953 -0.67101 62.5748 -0.464172 42.824C-0.257334 23.0731 29.4422 7.37115 65.8715 7.75265C102.301 8.13415 131.665 24.4547 131.458 44.2055C131.251 63.9564 101.552 79.6583 65.1225 79.2768Z" fill="#FEFEFF"/>
</g>
<g style="mix-blend-mode:multiply">
<path d="M65.1251 79.015C28.9701 78.6363 -0.172896 62.4354 0.0324277 42.8292C0.237751 23.223 29.7136 7.63594 65.8687 8.01457C102.024 8.39319 131.167 24.5941 130.961 44.2003C130.756 63.8065 101.28 79.3936 65.1251 79.015Z" fill="#FEFEFF"/>
</g>
<g style="mix-blend-mode:multiply">
<path d="M65.128 78.744C29.2423 78.3682 0.316364 62.2909 0.520121 42.8343C0.723877 23.3777 29.9802 7.90967 65.8659 8.28548C101.752 8.66129 130.678 24.7386 130.474 44.1952C130.27 63.6518 101.014 79.1198 65.128 78.744Z" fill="#FDFEFE"/>
</g>
<g style="mix-blend-mode:multiply">
<path d="M65.1309 78.4731C29.5195 78.1001 0.814641 62.1464 1.01683 42.8395C1.21902 23.5325 30.2517 8.18343 65.8631 8.55637C101.474 8.9293 130.179 24.883 129.977 44.19C129.775 63.4969 100.742 78.846 65.1309 78.4731Z" fill="#FDFEFE"/>
</g>
<g style="mix-blend-mode:multiply">
<path d="M65.1337 78.2112C29.7916 77.8411 1.30388 62.0069 1.50455 42.8446C1.70523 23.6823 30.5183 8.4482 65.8604 8.81831C101.202 9.18843 129.69 25.0226 129.489 44.1849C129.289 63.3472 100.476 78.5813 65.1337 78.2112Z" fill="#FDFEFE"/>
</g>
<g style="mix-blend-mode:multiply">
<path d="M65.1365 77.9403C30.0687 77.573 1.80209 61.8625 2.0012 42.8498C2.20031 23.8371 30.7897 8.72196 65.8575 9.0892C100.925 9.45644 129.192 25.167 128.993 44.1797C128.794 63.1924 100.204 78.3075 65.1365 77.9403Z" fill="#FDFDFE"/>
</g>
<g style="mix-blend-mode:multiply">
<path d="M65.1391 77.6784C30.3457 77.314 2.30024 61.7231 2.49784 42.855C2.69543 23.9869 31.0612 8.98675 65.8547 9.35112C100.648 9.71548 128.694 25.3064 128.496 44.1745C128.298 63.0426 99.9326 78.0428 65.1391 77.6784Z" fill="#FCFDFE"/>
</g>
<g style="mix-blend-mode:multiply">
<path d="M65.142 77.4074C30.6179 77.0459 2.78948 61.5785 2.98551 42.8601C3.18153 24.1417 31.3278 9.26048 65.8519 9.62203C100.376 9.98358 128.204 25.451 128.008 44.1694C127.812 62.8878 99.6661 77.769 65.142 77.4074Z" fill="#FCFDFE"/>
</g>
<g style="mix-blend-mode:multiply">
<path d="M65.1448 77.1456C30.895 76.7869 3.28776 61.4391 3.48227 42.8653C3.67678 24.2915 31.5994 9.52527 65.8492 9.88395C100.099 10.2426 127.706 25.5904 127.512 44.1642C127.317 62.738 99.3946 77.5043 65.1448 77.1456Z" fill="#FCFDFE"/>
</g>
<g style="mix-blend-mode:multiply">
<path d="M65.1476 76.8746C31.1672 76.5188 3.77702 61.2946 3.96997 42.8704C4.16291 24.4463 31.8659 9.79901 65.8464 10.1549C99.8268 10.5107 127.217 25.7349 127.024 44.1591C126.831 62.5832 99.1281 77.2305 65.1476 76.8746Z" fill="#FCFDFE"/>
</g>
<g style="mix-blend-mode:multiply">
<path d="M65.1504 76.6127C31.4442 76.2597 4.2752 61.1551 4.46663 42.8756C4.65806 24.5961 32.1375 10.0637 65.8436 10.4167C99.5497 10.7697 126.719 25.8743 126.527 44.1538C126.336 62.4334 98.8565 76.9657 65.1504 76.6127Z" fill="#FBFDFE"/>
</g>
<g style="mix-blend-mode:multiply">
<path d="M65.1853 76.4863C31.7466 76.1519 4.78627 61.1829 4.96758 43.052C5.14889 24.9211 32.4032 10.4942 65.8419 10.8286C99.2805 11.1629 126.241 26.132 126.06 44.2629C125.878 62.3938 98.6239 76.8207 65.1853 76.4863Z" fill="#FBFCFE"/>
</g>
<g style="mix-blend-mode:multiply">
<path d="M65.1559 76.0799C31.9934 75.7326 5.26259 60.8711 5.45094 42.8859C5.63928 24.9006 32.6755 10.6023 65.838 10.9495C99.0004 11.2968 125.731 26.1583 125.543 44.1435C125.355 62.1288 98.3184 76.4272 65.1559 76.0799Z" fill="#FBFCFE"/>
</g>
<g style="mix-blend-mode:multiply">
<path d="M65.1588 75.809C32.2656 75.4646 5.75186 60.7267 5.93864 42.8911C6.12542 25.0554 32.942 10.8761 65.8351 11.2205C98.7283 11.565 125.242 26.3029 125.055 44.1385C124.869 61.9741 98.0519 76.1535 65.1588 75.809Z" fill="#FAFCFE"/>
</g>
<g style="mix-blend-mode:multiply">
<path d="M65.1616 75.5381C32.5428 75.1965 6.25012 60.5823 6.43533 42.8963C6.62055 25.2103 33.2135 11.1499 65.8323 11.4915C98.4512 11.8331 124.744 26.4473 124.559 44.1333C124.373 61.8193 97.7804 75.8797 65.1616 75.5381Z" fill="#FAFCFD"/>
</g>
<g style="mix-blend-mode:multiply">
<path d="M65.1643 75.2762C32.8148 74.9374 6.73931 60.4427 6.92301 42.9013C7.10671 25.36 33.4801 11.4145 65.8296 11.7533C98.1791 12.0921 124.255 26.5868 124.071 44.1281C123.887 61.6695 97.5139 75.6149 65.1643 75.2762Z" fill="#FAFCFD"/>
</g>
<g style="mix-blend-mode:multiply">
<path d="M65.1672 75.0053C33.092 74.6694 7.23757 60.2983 7.4197 42.9065C7.60183 25.5148 33.7516 11.6883 65.8268 12.0242C97.9019 12.3601 123.756 26.7312 123.574 44.123C123.392 61.5147 97.2424 75.3412 65.1672 75.0053Z" fill="#F9FBFD"/>
</g>
<g style="mix-blend-mode:multiply">
<path d="M65.1699 74.7434C33.364 74.4103 7.72669 60.1588 7.90731 42.9117C8.08792 25.6646 34.0181 11.9531 65.8239 12.2862C97.6298 12.6193 123.267 26.8708 123.087 44.1179C122.906 61.365 96.9757 75.0765 65.1699 74.7434Z" fill="#F9FBFD"/>
</g>
<g style="mix-blend-mode:multiply">
<path d="M65.1727 74.4724C33.6412 74.1422 8.22498 60.0143 8.40403 42.9168C8.58308 25.8193 34.2896 12.2268 65.8211 12.557C97.3527 12.8872 122.769 27.0151 122.59 44.1126C122.411 61.2101 96.7043 74.8026 65.1727 74.4724Z" fill="#F9FBFD"/>
</g>
<g style="mix-blend-mode:multiply">
<path d="M65.1755 74.2105C33.9133 73.8832 8.7142 59.8748 8.89174 42.922C9.06927 25.9691 34.5562 12.4916 65.8184 12.819C97.0807 13.1463 122.28 27.1547 122.102 44.1075C121.925 61.0604 96.4377 74.5379 65.1755 74.2105Z" fill="#F8FBFD"/>
</g>
<g style="mix-blend-mode:multiply">
<path d="M65.1784 73.9396C34.1905 73.6151 9.21252 59.7304 9.38848 42.9272C9.56445 26.124 34.8277 12.7654 65.8156 13.0899C96.8035 13.4144 121.782 27.2992 121.606 44.1024C121.43 60.9056 96.1663 74.2642 65.1784 73.9396Z" fill="#F8FAFD"/>
</g>
<g style="mix-blend-mode:multiply">
<path d="M65.1811 73.6778C34.4625 73.3561 9.70164 59.5909 9.8761 42.9323C10.0506 26.2738 35.0943 13.0301 65.8129 13.3518C96.5314 13.6735 121.292 27.4387 121.118 44.0973C120.943 60.7559 95.8997 73.9995 65.1811 73.6778Z" fill="#F7FAFD"/>
</g>
<g style="mix-blend-mode:multiply">
<path d="M65.1839 73.4068C34.7396 73.0879 10.1998 59.4464 10.3727 42.9374C10.5456 26.4285 35.3657 13.3038 65.8099 13.6227C96.2542 13.9415 120.794 27.5831 120.621 44.092C120.448 60.6009 95.6281 73.7256 65.1839 73.4068Z" fill="#F7FAFC"/>
</g>
<g style="mix-blend-mode:multiply">
<path d="M65.1867 73.1359C35.0118 72.8199 10.6891 59.3019 10.8604 42.9426C11.0317 26.5833 35.6322 13.5776 65.8071 13.8936C95.9821 14.2096 120.305 27.7276 120.133 44.0869C119.962 60.4462 95.3617 73.4519 65.1867 73.1359Z" fill="#F6F9FC"/>
</g>
<g style="mix-blend-mode:multiply">
<path d="M65.1895 72.874C35.2889 72.5609 11.1873 59.1625 11.3572 42.9478C11.527 26.7332 35.9038 13.8424 65.8044 14.1556C95.705 14.4687 119.807 27.8671 119.637 44.0818C119.467 60.2964 95.0901 73.1872 65.1895 72.874Z" fill="#F6F9FC"/>
</g>
<g style="mix-blend-mode:multiply">
<path d="M65.1924 72.603C35.5611 72.2927 11.6766 59.0179 11.8449 42.9529C12.0131 26.8878 36.1704 14.1161 65.8016 14.4264C95.4329 14.7367 119.317 28.0116 119.149 44.0766C118.981 60.1416 94.8237 72.9133 65.1924 72.603Z" fill="#F5F9FC"/>
</g>
<g style="mix-blend-mode:multiply">
<path d="M65.1951 72.3412C35.8381 72.0337 12.1748 58.8785 12.3415 42.9581C12.5082 27.0377 36.4419 14.3809 65.7989 14.6883C95.1558 14.9958 118.819 28.151 118.652 44.0714C118.486 59.9918 94.5521 72.6486 65.1951 72.3412Z" fill="#F5F8FC"/>
</g>
<g style="mix-blend-mode:multiply">
<path d="M65.2281 72.2145C36.1389 71.9236 12.6853 58.9023 12.843 43.1307C13.0007 27.3591 36.71 14.8095 65.7993 15.1004C94.8885 15.3913 118.342 28.4125 118.184 44.1841C118.027 59.9558 94.3174 72.5054 65.2281 72.2145Z" fill="#F4F8FC"/>
</g>
<g style="mix-blend-mode:multiply">
<path d="M65.2006 71.8083C36.3873 71.5065 13.1622 58.5945 13.3258 42.9683C13.4895 27.3422 36.9799 14.9194 65.7932 15.2211C94.6065 15.5228 117.832 28.4349 117.668 44.061C117.504 59.6872 94.0139 72.11 65.2006 71.8083Z" fill="#F4F8FC"/>
</g>
<g style="mix-blend-mode:multiply">
<path d="M65.2334 71.6817C36.6878 71.3962 13.6726 58.618 13.8274 43.1406C13.9821 27.6633 37.2483 15.3478 65.7939 15.6333C94.3394 15.9187 117.355 28.697 117.2 44.1744C117.045 59.6517 93.7789 71.9671 65.2334 71.6817Z" fill="#F3F7FB"/>
</g>
<g style="mix-blend-mode:multiply">
<path d="M65.2063 71.2755C36.9366 70.9795 14.1497 58.3106 14.3103 42.9787C14.4708 27.6469 37.5181 15.4579 65.7877 15.754C94.0574 16.05 116.844 28.719 116.684 44.0508C116.523 59.3827 93.4759 71.5716 65.2063 71.2755Z" fill="#F3F7FB"/>
</g>
<g style="mix-blend-mode:multiply">
<path d="M65.2091 71.0047C37.2088 70.7114 14.639 58.1661 14.798 42.9839C14.9569 27.8017 37.7846 15.7317 65.7849 16.025C93.7852 16.3182 116.355 28.8635 116.196 44.0458C116.037 59.228 93.2095 71.2979 65.2091 71.0047Z" fill="#F2F7FB"/>
</g>
<g style="mix-blend-mode:multiply">
<path d="M65.2119 70.7336C37.4859 70.4433 15.1372 58.0216 15.2946 42.989C15.452 27.9564 38.056 16.0054 65.782 16.2958C93.508 16.5862 115.857 29.0079 115.699 44.0405C115.542 59.0731 92.9379 71.024 65.2119 70.7336Z" fill="#F2F6FB"/>
</g>
<g style="mix-blend-mode:multiply">
<path d="M65.2146 70.4718C37.7579 70.1843 15.6263 57.8821 15.7822 42.9941C15.9381 28.1062 38.3225 16.2702 65.7792 16.5577C93.2359 16.8453 115.368 29.1474 115.212 44.0354C115.056 58.9234 92.6713 70.7593 65.2146 70.4718Z" fill="#F1F6FB"/>
</g>
<g style="mix-blend-mode:multiply">
<path d="M65.2175 70.2009C38.0351 69.9162 16.1246 57.7377 16.2789 42.9994C16.4333 28.261 38.594 16.544 65.7764 16.8287C92.9588 17.1134 114.869 29.2919 114.715 44.0302C114.561 58.7685 92.3999 70.4856 65.2175 70.2009Z" fill="#F0F5FB"/>
</g>
<g style="mix-blend-mode:multiply">
<path d="M65.2203 69.9389C38.3072 69.6571 16.6138 57.5981 16.7666 43.0044C16.9195 28.4107 38.8607 16.8087 65.7737 17.0905C92.6867 17.3724 114.38 29.4314 114.227 44.025C114.075 58.6187 92.1333 70.2208 65.2203 69.9389Z" fill="#F0F5FA"/>
</g>
<g style="mix-blend-mode:multiply">
<path d="M65.2231 69.668C38.5844 69.3891 17.1121 57.4537 17.2634 43.0096C17.4146 28.5656 39.1322 17.0825 65.7709 17.3615C92.4096 17.6404 113.882 29.5758 113.731 44.0199C113.579 58.4639 91.8619 69.947 65.2231 69.668Z" fill="#EFF5FA"/>
</g>
<g style="mix-blend-mode:multiply">
<path d="M65.2547 69.5503C38.8839 69.2866 17.622 57.4802 17.7651 43.18C17.9081 28.8798 39.4018 17.501 65.7726 17.7647C92.1434 18.0284 113.405 29.8348 113.262 44.135C113.119 58.4352 91.6256 69.814 65.2547 69.5503Z" fill="#EEF4FA"/>
</g>
<g style="mix-blend-mode:multiply">
<path d="M65.2286 69.1352C39.1335 68.8619 18.0994 57.1697 18.2476 43.0199C18.3958 28.8701 39.6701 17.6209 65.7652 17.8942C91.8603 18.1675 112.894 29.8597 112.746 44.0095C112.598 58.1593 91.3237 69.4084 65.2286 69.1352Z" fill="#EEF4FA"/>
</g>
<g style="mix-blend-mode:multiply">
<path d="M65.2314 68.8733C39.4057 68.6029 18.5887 57.0302 18.7353 43.025C18.882 29.0199 39.9368 17.8857 65.7625 18.1562C91.5883 18.4266 112.405 29.9993 112.259 44.0044C112.112 58.0096 91.0571 69.1438 65.2314 68.8733Z" fill="#EDF3F9"/>
</g>
<g style="mix-blend-mode:multiply">
<path d="M65.2342 68.6024C39.6828 68.3348 19.0869 56.8858 19.232 43.0303C19.3771 29.1747 40.2083 18.1595 65.7597 18.4271C91.3111 18.6947 111.907 30.1437 111.762 43.9993C111.617 57.8548 90.7857 68.87 65.2342 68.6024Z" fill="#ECF3F9"/>
</g>
<g style="mix-blend-mode:multiply">
<path d="M65.2655 68.4755C39.982 68.2227 19.5969 56.9063 19.7339 43.1996C19.871 29.493 40.4784 18.5865 65.7619 18.8393C91.0454 19.0922 111.431 30.4086 111.294 44.1152C111.156 57.8219 90.549 68.7283 65.2655 68.4755Z" fill="#ECF2F9"/>
</g>
<g style="mix-blend-mode:multiply">
<path d="M65.2399 68.0695C40.2321 67.8077 20.0745 56.6018 20.2165 43.0405C20.3585 29.4793 40.7464 18.698 65.7542 18.9599C90.762 19.2218 110.92 30.4277 110.778 43.9889C110.636 57.5502 90.2477 68.3314 65.2399 68.0695Z" fill="#EBF2F9"/>
</g>
<g style="mix-blend-mode:multiply">
<path d="M65.2426 67.7987C40.5042 67.5396 20.5636 56.4573 20.704 43.0457C20.8445 29.6341 41.0128 18.9718 65.7513 19.2309C90.4897 19.4899 110.43 30.5722 110.29 43.9839C110.149 57.3955 89.9811 68.0577 65.2426 67.7987Z" fill="#EAF1F9"/>
</g>
<g style="mix-blend-mode:multiply">
<path d="M65.2454 67.5368C40.7812 67.2806 21.0618 56.3179 21.2007 43.0509C21.3397 29.7839 41.2844 19.2366 65.7485 19.4928C90.2126 19.749 109.932 30.7117 109.793 43.9787C109.654 57.2457 89.7095 67.793 65.2454 67.5368Z" fill="#E9F1F8"/>
</g>
<g style="mix-blend-mode:multiply">
<path d="M65.2482 67.2658C41.0534 67.0124 21.551 56.1733 21.6884 43.0559C21.8258 29.9386 41.5509 19.5103 65.7457 19.7636C89.9405 20.017 109.443 30.8561 109.306 43.9735C109.168 57.0909 89.443 67.5192 65.2482 67.2658Z" fill="#E9F0F8"/>
</g>
<g style="mix-blend-mode:multiply">
<path d="M65.251 67.0039C41.3305 66.7534 22.0493 56.0339 22.1851 43.0612C22.321 30.0884 41.8225 19.775 65.743 20.0255C89.6635 20.2761 108.945 30.9956 108.809 43.9683C108.673 56.941 89.1715 67.2544 65.251 67.0039Z" fill="#E8F0F8"/>
</g>
<g style="mix-blend-mode:multiply">
<path d="M65.2539 66.7331C41.6027 66.4854 22.5386 55.8894 22.6728 43.0663C22.8071 30.2432 42.089 20.0488 65.7402 20.2965C89.3913 20.5442 108.456 31.1402 108.321 43.9633C108.187 56.7864 88.905 66.9807 65.2539 66.7331Z" fill="#E7EFF8"/>
</g>
<g style="mix-blend-mode:multiply">
<path d="M65.2566 66.4711C41.8798 66.2263 23.0367 55.7499 23.1695 43.0714C23.3023 30.393 42.3606 20.3135 65.7374 20.5583C89.1142 20.8031 107.957 31.2795 107.825 43.958C107.692 56.6364 88.6334 66.7159 65.2566 66.4711Z" fill="#E6EFF7"/>
</g>
<g style="mix-blend-mode:multiply">
<path d="M65.2593 66.2002C42.1518 65.9582 23.5259 55.6054 23.6571 43.0766C23.7883 30.5478 42.627 20.5873 65.7345 20.8293C88.842 21.0713 107.468 31.4241 107.337 43.9529C107.206 56.4817 88.3669 66.4422 65.2593 66.2002Z" fill="#E5EEF7"/>
</g>
<g style="mix-blend-mode:multiply">
<path d="M65.2622 65.9293C42.429 65.6902 24.0242 55.461 24.1538 43.0818C24.2835 30.7026 42.8985 20.8611 65.7317 21.1002C88.5649 21.3394 106.97 31.5685 106.84 43.9477C106.71 56.3269 88.0954 66.1684 65.2622 65.9293Z" fill="#E5EEF7"/>
</g>
<g style="mix-blend-mode:multiply">
<path d="M65.265 65.6674C42.7011 65.4311 24.5134 55.3215 24.6415 43.087C24.7696 30.8524 43.1651 21.1259 65.729 21.3622C88.2928 21.5985 106.481 31.7081 106.352 43.9427C106.224 56.1772 87.8289 65.9037 65.265 65.6674Z" fill="#E4EDF7"/>
</g>
<g style="mix-blend-mode:multiply">
<path d="M65.2679 65.3964C42.9783 65.163 25.0117 55.177 25.1383 43.0921C25.2648 31.0071 43.4366 21.3996 65.7262 21.633C88.0157 21.8664 105.982 31.8524 105.856 43.9374C105.729 56.0223 87.5574 65.6298 65.2679 65.3964Z" fill="#E3EDF6"/>
</g>
<g style="mix-blend-mode:multiply">
<path d="M65.2706 65.1346C43.2504 64.904 25.5009 55.0375 25.6259 43.0972C25.751 31.1569 43.7033 21.6644 65.7235 21.895C87.7437 22.1256 105.493 31.992 105.368 43.9323C105.243 55.8726 87.2909 65.3652 65.2706 65.1346Z" fill="#E2ECF6"/>
</g>
<g style="mix-blend-mode:multiply">
<path d="M65.2734 64.8637C43.5275 64.6359 25.9991 54.8931 26.1226 43.1024C26.246 31.3118 43.9746 21.9382 65.7205 22.1659C87.4664 22.3936 104.995 32.1365 104.871 43.9271C104.748 55.7178 87.0193 65.0914 65.2734 64.8637Z" fill="#E1EBF6"/>
</g>
<g style="mix-blend-mode:multiply">
<path d="M65.2761 64.6017C43.7995 64.3768 26.4882 54.7535 26.6102 43.1075C26.7321 31.4615 44.2412 22.2028 65.7178 22.4277C87.1943 22.6526 104.506 32.2759 104.384 43.922C104.262 55.568 86.7527 64.8266 65.2761 64.6017Z" fill="#E0EBF6"/>
</g>
<g style="mix-blend-mode:multiply">
<path d="M65.279 64.3308C44.0767 64.1088 26.9865 54.6091 27.1069 43.1127C27.2273 31.6163 44.5127 22.4766 65.715 22.6987C86.9172 22.9207 104.007 32.4204 103.887 43.9168C103.767 55.4132 86.4812 64.5528 65.279 64.3308Z" fill="#DFEAF5"/>
</g>
<g style="mix-blend-mode:multiply">
<path d="M65.2817 64.069C44.3487 63.8497 27.4756 54.4696 27.5945 43.1179C27.7134 31.7661 44.7792 22.7414 65.7122 22.9606C86.6451 23.1798 103.518 32.56 103.399 43.9117C103.28 55.2635 86.2146 64.2882 65.2817 64.069Z" fill="#DEEAF5"/>
</g>
<g style="mix-blend-mode:multiply">
<path d="M65.2846 63.7979C44.626 63.5816 27.974 54.3251 28.0914 43.123C28.2087 31.9208 45.0509 23.0151 65.7095 23.2314C86.3681 23.4478 103.02 32.7043 102.903 43.9064C102.785 55.1085 85.9432 64.0143 65.2846 63.7979Z" fill="#DDE9F5"/>
</g>
<g style="mix-blend-mode:multiply">
<path d="M65.2874 63.5271C44.8981 63.3135 28.4632 54.1806 28.5789 43.1281C28.6947 32.0756 45.3173 23.2889 65.7065 23.5024C86.0958 23.7159 102.531 32.8489 102.415 43.9014C102.299 54.9539 85.6766 63.7406 65.2874 63.5271Z" fill="#DCE8F4"/>
</g>
<g style="mix-blend-mode:multiply">
<path d="M65.2901 63.2652C45.1751 63.0545 28.9614 54.0412 29.0756 43.1333C29.1898 32.2255 45.5888 23.5537 65.7038 23.7643C85.8187 23.975 102.033 32.9883 101.918 43.8962C101.804 54.804 85.405 63.4758 65.2901 63.2652Z" fill="#DBE8F4"/>
</g>
<g style="mix-blend-mode:multiply">
<path d="M65.293 62.9942C45.4473 62.7864 29.4506 53.8966 29.5633 43.1384C29.676 32.3801 45.8553 23.8274 65.701 24.0352C85.5466 24.243 101.543 33.1328 101.431 43.891C101.318 54.6492 85.1386 63.202 65.293 62.9942Z" fill="#DAE7F4"/>
</g>
<g style="mix-blend-mode:multiply">
<path d="M65.2957 62.7323C45.7244 62.5274 29.9489 53.7572 30.06 43.1436C30.1712 32.53 46.1269 24.0921 65.6983 24.2971C85.2696 24.5021 101.045 33.2722 100.934 43.8858C100.823 54.4994 84.867 62.9373 65.2957 62.7323Z" fill="#D9E6F3"/>
</g>
<g style="mix-blend-mode:multiply">
<path d="M65.2986 62.4614C45.9966 62.2593 30.4382 53.6127 30.5477 43.1488C30.6573 32.6848 46.3935 24.3659 65.6954 24.5681C84.9974 24.7702 100.556 33.4168 100.446 43.8808C100.337 54.3447 84.6006 62.6636 65.2986 62.4614Z" fill="#D8E6F3"/>
</g>
<g style="mix-blend-mode:multiply">
<path d="M65.3013 62.1996C46.2736 62.0003 30.9363 53.4733 31.0443 43.154C31.1524 32.8347 46.665 24.6307 65.6926 24.83C84.7203 25.0293 100.058 33.5563 99.9496 43.8756C99.8415 54.1949 84.3289 62.3988 65.3013 62.1996Z" fill="#D7E5F3"/>
</g>
<g style="mix-blend-mode:multiply">
<path d="M65.3041 61.9286C46.5458 61.7321 31.4255 53.3287 31.532 43.159C31.6385 32.9893 46.9315 24.9044 65.6898 25.1008C84.4481 25.2973 99.5684 33.7007 99.4619 43.8704C99.3554 54.0401 84.0625 62.125 65.3041 61.9286Z" fill="#D6E4F2"/>
</g>
<g style="mix-blend-mode:multiply">
<path d="M65.3069 61.6667C46.8228 61.4731 31.9237 53.1893 32.0287 43.1642C32.1337 33.1392 47.203 25.1692 65.687 25.3628C84.1711 25.5563 99.0702 33.8402 98.9652 43.8652C98.8603 53.8903 83.7909 61.8603 65.3069 61.6667Z" fill="#D5E4F2"/>
</g>
<g style="mix-blend-mode:multiply">
<path d="M65.3097 61.3958C47.095 61.2051 32.413 53.0448 32.5164 43.1694C32.6198 33.294 47.4696 25.443 65.6842 25.6337C83.8989 25.8245 98.581 33.9847 98.4776 43.8602C98.3742 53.7356 83.5244 61.5866 65.3097 61.3958Z" fill="#D4E3F2"/>
</g>
<g style="mix-blend-mode:multiply">
<path d="M65.3124 61.1338C47.372 60.946 32.9111 52.9053 33.013 43.1745C33.1149 33.4437 47.7411 25.7077 65.6814 25.8955C83.6218 26.0834 98.0827 34.1241 97.9808 43.8549C97.8789 53.5857 83.2528 61.3217 65.3124 61.1338Z" fill="#D3E2F1"/>
</g>
<g style="mix-blend-mode:multiply">
<path d="M65.3153 60.863C47.6442 60.6779 33.4004 52.7608 33.5007 43.1797C33.601 33.5985 48.0076 25.9815 65.6786 26.1665C83.3496 26.3516 97.5935 34.2687 97.4932 43.8498C97.3929 53.431 82.9863 61.048 65.3153 60.863Z" fill="#D2E1F1"/>
</g>
<g style="mix-blend-mode:multiply">
<path d="M65.3181 60.5921C47.9214 60.4099 33.8987 52.6164 33.9975 43.1849C34.0962 33.7533 48.2791 26.2553 65.6758 26.4375C83.0725 26.6196 97.0953 34.4131 96.9965 43.8446C96.8977 53.2762 82.7148 60.7742 65.3181 60.5921Z" fill="#D0E1F1"/>
</g>
<g style="mix-blend-mode:multiply">
<path d="M65.3208 60.3302C48.1935 60.1509 34.3878 52.4769 34.4851 43.19C34.5823 33.9031 48.5457 26.52 65.673 26.6994C82.8004 26.8788 96.6061 34.5527 96.5088 43.8396C96.4116 53.1265 82.4482 60.5096 65.3208 60.3302Z" fill="#CFE0F0"/>
</g>
<g style="mix-blend-mode:multiply">
<path d="M65.3237 60.0592C48.4707 59.8827 34.8861 52.3324 34.9818 43.1951C35.0775 34.0579 48.8172 26.7937 65.6702 26.9702C82.5233 27.1467 96.1079 34.697 96.0122 43.8343C95.9165 52.9715 82.1768 60.2357 65.3237 60.0592Z" fill="#CEDFF0"/>
</g>
<g style="mix-blend-mode:multiply">
<path d="M65.3264 59.7973C48.7427 59.6237 35.3752 52.1929 35.4694 43.2003C35.5636 34.2077 49.0837 27.0585 65.6674 27.2322C82.2512 27.4058 95.6186 34.8366 95.5244 43.8292C95.4303 52.8218 81.9101 59.971 65.3264 59.7973Z" fill="#CDDEF0"/>
</g>
<g style="mix-blend-mode:multiply">
<path d="M65.3292 59.5264C49.0198 59.3557 35.8735 52.0485 35.9661 43.2055C36.0587 34.3625 49.3552 27.3323 65.6646 27.5031C81.974 27.6739 95.1204 34.981 95.0278 43.824C94.9351 52.667 81.6387 59.6972 65.3292 59.5264Z" fill="#CCDEEF"/>
</g>
<g style="mix-blend-mode:multiply">
<path d="M65.332 59.2645C49.292 59.0965 36.3628 51.9089 36.4539 43.2106C36.5449 34.5122 49.6218 27.597 65.6619 27.7649C81.702 27.9329 94.6312 35.1205 94.5401 43.8189C94.449 52.5172 81.3721 59.4325 65.332 59.2645Z" fill="#CBDDEF"/>
</g>
<g style="mix-blend-mode:multiply">
<path d="M65.3349 58.9936C49.5691 58.8285 36.861 51.7645 36.9506 43.2158C37.0401 34.6671 49.8933 27.8708 65.6591 28.0359C81.4249 28.201 94.133 35.265 94.0435 43.8137C93.9539 52.3624 81.1007 59.1587 65.3349 58.9936Z" fill="#C9DCEF"/>
</g>
<g style="mix-blend-mode:multiply">
<path d="M65.3615 58.8752C49.8642 58.7202 37.3693 51.7813 37.4534 43.3768C37.5374 34.9722 50.1686 28.2846 65.6659 28.4396C81.1632 28.5946 93.6581 35.5334 93.574 43.938C93.49 52.3426 80.8588 59.0302 65.3615 58.8752Z" fill="#C8DBEE"/>
</g>
<g style="mix-blend-mode:multiply">
<path d="M65.3404 58.4607C50.1182 58.3013 37.8484 51.4805 37.9348 43.226C38.0212 34.9716 50.4313 28.4092 65.6534 28.5687C80.8755 28.7281 93.1454 35.5489 93.059 43.8033C92.9726 52.0578 80.5625 58.6201 65.3404 58.4607Z" fill="#C7DAEE"/>
</g>
<g style="mix-blend-mode:multiply">
<path d="M65.3432 58.1898C50.3904 58.0332 38.3376 51.336 38.4225 43.2312C38.5074 35.1264 50.6978 28.683 65.6506 28.8396C80.6034 28.9962 92.6562 35.6934 92.5714 43.7983C92.4865 51.9031 80.296 58.3464 65.3432 58.1898Z" fill="#C5D9ED"/>
</g>
<g style="mix-blend-mode:multiply">
<path d="M65.346 57.928C50.6675 57.7742 38.8359 51.1966 38.9192 43.2364C39.0026 35.2762 50.9694 28.9478 65.6479 29.1016C80.3264 29.2553 92.1581 35.8329 92.0747 43.7931C91.9913 51.7533 80.0245 58.0817 65.346 57.928Z" fill="#C4D9ED"/>
</g>
<g style="mix-blend-mode:multiply">
<path d="M65.3489 57.657C50.9397 57.5061 39.3251 51.052 39.4069 43.2415C39.4887 35.4309 51.2359 29.2215 65.6451 29.3724C80.0542 29.5233 91.6689 35.9773 91.5871 43.7879C91.5053 51.5985 79.758 57.8079 65.3489 57.657Z" fill="#C3D8ED"/>
</g>
<g style="mix-blend-mode:multiply">
<path d="M65.3516 57.3951C51.2168 57.2471 39.8233 50.9126 39.9036 43.2467C39.9839 35.5808 51.5075 29.4863 65.6423 29.6343C79.7771 29.7823 91.1706 36.1168 91.0904 43.7827C91.0101 51.4487 79.4864 57.5431 65.3516 57.3951Z" fill="#C2D7EC"/>
</g>
<g style="mix-blend-mode:multiply">
<path d="M65.3543 57.1242C51.4888 56.979 40.3125 50.7681 40.3912 43.2518C40.4699 35.7355 51.7739 29.7601 65.6394 29.9053C79.5049 30.0505 90.6813 36.2614 90.6026 43.7777C90.5239 51.294 79.2198 57.2694 65.3543 57.1242Z" fill="#C0D6EC"/>
</g>
<g style="mix-blend-mode:multiply">
<path d="M65.3572 56.8623C51.766 56.72 40.8107 50.6287 40.8879 43.2571C40.9651 35.8854 52.0455 30.0249 65.6367 30.1672C79.2279 30.3095 90.1831 36.4008 90.1059 43.7725C90.0287 51.1442 78.9483 57.0047 65.3572 56.8623Z" fill="#BFD5EB"/>
</g>
<g style="mix-blend-mode:multiply">
<path d="M65.3828 56.7348C52.0602 56.6016 41.3187 50.6386 41.3909 43.4162C41.4631 36.1938 52.3218 30.4468 65.6443 30.5801C78.9669 30.7133 89.7085 36.6762 89.6363 43.8987C89.564 51.1211 78.7054 56.868 65.3828 56.7348Z" fill="#BDD4EB"/>
</g>
<g style="mix-blend-mode:multiply">
<path d="M65.3628 56.3295C52.3153 56.1928 41.7983 50.3447 41.8724 43.2673C41.9465 36.1899 52.5837 30.5633 65.6312 30.7C78.6787 30.8366 89.1958 36.6847 89.1217 43.7621C89.0475 50.8395 78.4103 56.4661 65.3628 56.3295Z" fill="#BCD3EA"/>
</g>
<g style="mix-blend-mode:multiply">
<path d="M65.3656 56.0586C52.5874 55.9248 42.2875 50.2002 42.36 43.2725C42.4326 36.3447 52.8502 30.8371 65.6284 30.971C78.4066 31.1048 88.7066 36.8293 88.634 43.7571C88.5615 50.6848 78.1438 56.1924 65.3656 56.0586Z" fill="#BBD2EA"/>
</g>
<g style="mix-blend-mode:multiply">
<path d="M65.3684 55.7877C52.8645 55.6568 42.7857 50.0558 42.8566 43.2777C42.9276 36.4996 53.1216 31.111 65.6254 31.2419C78.1293 31.3729 88.2082 36.9738 88.1372 43.7519C88.0662 50.53 77.8723 55.9187 65.3684 55.7877Z" fill="#B9D1EA"/>
</g>
<g style="mix-blend-mode:multiply">
<path d="M65.3711 55.5257C53.1366 55.3976 43.2748 49.9162 43.3443 43.2827C43.4138 36.6492 53.3881 31.3756 65.6227 31.5037C77.8573 31.6319 87.719 37.1132 87.6495 43.7467C87.5801 50.3802 77.6057 55.6539 65.3711 55.5257Z" fill="#B8D0E9"/>
</g>
<g style="mix-blend-mode:multiply">
<path d="M65.374 55.2548C53.4137 55.1296 43.7731 49.7718 43.841 43.288C43.9089 36.8041 53.6596 31.6494 65.6199 31.7747C77.5801 31.8999 87.2208 37.2577 87.1529 43.7415C87.085 50.2254 77.3342 55.3801 65.374 55.2548Z" fill="#B6D0E9"/>
</g>
<g style="mix-blend-mode:multiply">
<path d="M65.3768 54.993C53.6859 54.8706 44.2624 49.6324 44.3287 43.2931C44.3951 36.9539 53.9263 31.9142 65.6172 32.0366C77.3081 32.1591 86.7316 37.3973 86.6653 43.7365C86.5989 50.0757 77.0677 55.1154 65.3768 54.993Z" fill="#B5CFE8"/>
</g>
<g style="mix-blend-mode:multiply">
<path d="M86.1953 43.7289C86.1321 49.9244 76.8298 54.8465 65.4233 54.7201C54.0167 54.5936 44.8047 49.4909 44.868 43.2954C44.9312 37.0999 54.2425 32.1869 65.64 32.3043C77.0375 32.4217 86.1953 37.5425 86.1953 43.7289Z" fill="#B3CEE8"/>
</g>
<g style="mix-blend-mode:multiply">
<path d="M65.3824 54.4601C54.2351 54.3434 45.2498 49.3483 45.3131 43.3034C45.3764 37.2584 54.4644 32.4527 65.6116 32.5694C76.7589 32.6861 85.7442 37.6812 85.6809 43.7261C85.6176 49.7711 76.5296 54.5769 65.3824 54.4601Z" fill="#B2CDE7"/>
</g>
<g style="mix-blend-mode:multiply">
<path d="M85.1838 43.7199C85.1296 49.6174 76.2608 54.3046 65.3871 54.1872C54.5134 54.0698 45.744 49.2019 45.8072 43.3496C45.8704 37.4973 54.7392 32.7739 65.6129 32.8823C76.4866 32.9907 85.247 37.8225 85.1838 43.7199Z" fill="#B0CCE7"/>
</g>
<g style="mix-blend-mode:multiply">
<path d="M65.4095 54.0705C54.8053 53.9645 46.2555 49.2164 46.313 43.4654C46.3706 37.7144 55.0136 33.1382 65.6178 33.2443C76.2219 33.3503 84.7717 38.0984 84.7142 43.8494C84.6567 49.6004 76.0137 54.1766 65.4095 54.0705Z" fill="#AFCBE6"/>
</g>
<g style="mix-blend-mode:multiply">
<path d="M65.3907 53.6564C55.0614 53.5482 46.7355 48.9199 46.7941 43.3189C46.8528 37.7178 55.2739 33.2649 65.6032 33.3731C75.9325 33.4813 84.2585 38.1095 84.1998 43.7106C84.1412 49.3117 75.72 53.7645 65.3907 53.6564Z" fill="#ADCAE6"/>
</g>
<g style="mix-blend-mode:multiply">
<path d="M83.7116 43.7019C83.6575 49.1207 75.457 53.4919 65.3961 53.3925C55.3352 53.2932 47.2251 48.7775 47.2883 43.3226C47.3515 37.8677 55.5429 33.5327 65.6038 33.641C75.6647 33.7494 83.7658 38.256 83.7116 43.7019Z" fill="#ACC9E5"/>
</g>
<g style="mix-blend-mode:multiply">
<path d="M83.215 43.7018C83.1608 49.0032 75.1861 53.2299 65.3961 53.1215C55.6062 53.0131 47.7218 48.6058 47.776 43.3315C47.8302 38.0572 55.8139 33.8035 65.5948 33.9028C75.3758 34.0022 83.2782 38.3914 83.215 43.7018Z" fill="#AAC8E5"/>
</g>
<g style="mix-blend-mode:multiply">
<path d="M65.3991 52.8526C55.8828 52.753 48.2121 48.4914 48.2661 43.3343C48.3201 38.1771 56.0784 34.0772 65.5947 34.1769C75.111 34.2765 82.7818 38.538 82.7278 43.6952C82.6738 48.8523 74.9155 52.9523 65.3991 52.8526Z" fill="#A9C7E5"/>
</g>
<g style="mix-blend-mode:multiply">
<path d="M65.4229 52.7339C56.1804 52.6415 48.7285 48.5029 48.7786 43.4901C48.8287 38.4773 56.3619 34.4885 65.6044 34.5809C74.8469 34.6734 82.2988 38.812 82.2487 43.8248C82.1986 48.8376 74.6654 52.8263 65.4229 52.7339Z" fill="#A7C6E4"/>
</g>
<g style="mix-blend-mode:multiply">
<path d="M81.7429 43.6838C81.6887 48.5517 74.3733 52.4171 65.4052 52.3268C56.4371 52.2364 49.203 48.2085 49.2572 43.2954C49.3114 38.3824 56.6177 34.5712 65.5948 34.6615C74.572 34.7518 81.797 38.8249 81.7429 43.6838Z" fill="#A5C4E4"/>
</g>
<g style="mix-blend-mode:multiply">
<path d="M65.4075 52.0579C56.7092 51.9668 49.6978 48.068 49.7473 43.3498C49.7967 38.6315 56.8881 34.8804 65.5865 34.9715C74.2848 35.0626 81.2962 38.9614 81.2468 43.6796C81.1974 48.3979 74.1059 52.149 65.4075 52.0579Z" fill="#A4C3E3"/>
</g>
<g style="mix-blend-mode:multiply">
<path d="M80.7765 43.6748C80.7313 48.2446 73.8585 51.8752 65.4232 51.803C56.988 51.7307 50.2055 47.9466 50.2506 43.3767C50.2958 38.8069 57.1686 35.1672 65.6039 35.2485C74.0391 35.3298 80.7765 39.1049 80.7765 43.6748Z" fill="#A2C2E3"/>
</g>
<g style="mix-blend-mode:multiply">
<path d="M65.4131 51.5251C57.2584 51.4397 50.6853 47.7841 50.7316 43.3601C50.778 38.9362 57.4262 35.419 65.5809 35.5044C73.7356 35.5898 80.3088 39.2454 80.2624 43.6694C80.2161 48.0934 73.5678 51.6105 65.4131 51.5251Z" fill="#A0C1E2"/>
</g>
<g style="mix-blend-mode:multiply">
<path d="M65.4158 51.2542C57.5305 51.1717 51.1744 47.6397 51.2192 43.3653C51.2639 39.0909 57.6926 35.6928 65.5779 35.7754C73.4633 35.858 79.8194 39.39 79.7747 43.6643C79.7299 47.9387 73.3012 51.3368 65.4158 51.2542Z" fill="#9FC0E1"/>
</g>
<g style="mix-blend-mode:multiply">
<path d="M65.4187 50.9832C57.8077 50.9035 51.6727 47.4951 51.7159 43.3704C51.7591 39.2457 57.9641 35.9665 65.5751 36.0462C73.1862 36.1259 79.3212 39.5343 79.278 43.659C79.2348 47.7838 73.0298 51.0629 65.4187 50.9832Z" fill="#9DBFE1"/>
</g>
<g style="mix-blend-mode:multiply">
<path d="M65.4215 50.7214C58.0798 50.6445 52.1619 47.3557 52.2036 43.3756C52.2453 39.3955 58.2307 36.2313 65.5725 36.3082C72.9142 36.3851 78.8321 39.6739 78.7904 43.654C78.7487 47.6341 72.7633 50.7983 65.4215 50.7214Z" fill="#9BBEE0"/>
</g>
<g style="mix-blend-mode:multiply">
<path d="M78.2928 43.6476C78.2928 47.4859 72.4947 50.5295 65.4232 50.4572C58.3517 50.385 52.6619 47.215 52.6981 43.3767C52.7342 39.5384 58.5052 36.5038 65.5677 36.5761C72.6302 36.6483 78.338 39.8183 78.2928 43.6476Z" fill="#9ABDE0"/>
</g>
<g style="mix-blend-mode:multiply">
<path d="M77.8052 43.6477C77.8052 47.3325 72.2239 50.2587 65.4323 50.1864C58.6408 50.1142 53.1588 47.0706 53.1949 43.3858C53.231 39.701 58.7762 36.7749 65.5678 36.8471C72.3594 36.9194 77.8414 39.9629 77.8052 43.6477Z" fill="#98BCDF"/>
</g>
<g style="mix-blend-mode:multiply">
<path d="M65.4299 49.9176C58.9061 49.8493 53.6476 46.9272 53.6846 43.391C53.7217 39.8548 59.0402 37.0436 65.564 37.1119C72.0878 37.1802 77.3463 40.1023 77.3093 43.6385C77.2723 47.1747 71.9537 49.9859 65.4299 49.9176Z" fill="#96BADF"/>
</g>
<g style="mix-blend-mode:multiply">
<path d="M76.8207 43.6296C76.8207 47.0254 71.6909 49.7168 65.4322 49.6535C59.1735 49.5903 54.1431 46.7906 54.1792 43.3948C54.2153 39.999 59.309 37.3077 65.5587 37.38C71.8083 37.4522 76.8569 40.2429 76.8207 43.6296Z" fill="#94B9DE"/>
</g>
<g style="mix-blend-mode:multiply">
<path d="M76.324 43.6295C76.324 46.8718 71.42 49.4457 65.4413 49.3825C59.4625 49.3193 54.6037 46.6731 54.6669 43.4038C54.7301 40.1344 59.5799 37.5786 65.5587 37.6418C71.5374 37.705 76.3601 40.3873 76.324 43.6295Z" fill="#92B8DE"/>
</g>
<g style="mix-blend-mode:multiply">
<path d="M75.8363 43.6206C75.8363 46.7184 71.149 49.1839 65.4412 49.1207C59.7334 49.0575 55.1275 46.5016 55.1636 43.4039C55.1997 40.3061 59.8509 37.8496 65.5587 37.9128C71.2665 37.976 75.8634 40.5319 75.8363 43.6206Z" fill="#91B7DD"/>
</g>
<g style="mix-blend-mode:multiply">
<path d="M75.3577 43.6206C75.3577 46.5648 70.8963 48.913 65.4233 48.8498C59.9503 48.7866 55.6062 46.3571 55.6333 43.431C55.6604 40.5048 60.1038 38.1386 65.5678 38.1928C71.0317 38.247 75.3577 40.6674 75.3577 43.6206Z" fill="#8FB6DD"/>
</g>
<g style="mix-blend-mode:multiply">
<path d="M74.852 43.6116C74.852 46.4113 70.6072 48.6421 65.4413 48.5879C60.2754 48.5337 56.121 46.2307 56.1481 43.4129C56.1752 40.5951 60.3838 38.3915 65.5497 38.4457C70.7156 38.4999 74.8791 40.8119 74.852 43.6116Z" fill="#8DB5DC"/>
</g>
<g style="mix-blend-mode:multiply">
<path d="M74.3552 43.6115C74.3552 46.2577 70.3453 48.371 65.4503 48.3168C60.5553 48.2626 56.6086 46.0771 56.6357 43.4219C56.6628 40.7666 60.6547 38.6623 65.5497 38.7075C70.4446 38.7527 74.3823 40.9563 74.3552 43.6115Z" fill="#8BB3DB"/>
</g>
<g style="mix-blend-mode:multiply">
<path d="M65.4495 48.0483C60.826 47.9998 57.0992 45.9309 57.1254 43.4271C57.1516 40.9233 60.9209 38.9329 65.5444 38.9813C70.1679 39.0297 73.8948 41.0987 73.8685 43.6024C73.8423 46.1062 70.073 48.0967 65.4495 48.0483Z" fill="#89B2DB"/>
</g>
<g style="mix-blend-mode:multiply">
<path d="M73.3708 43.5935C73.3708 45.9597 69.8035 47.8292 65.4504 47.7841C61.0973 47.7389 57.6021 45.7881 57.6202 43.431C57.6382 41.0738 61.2327 39.1953 65.5407 39.2404C69.8486 39.2856 73.3979 41.2363 73.3708 43.5935Z" fill="#87B1DA"/>
</g>
<g style="mix-blend-mode:multiply">
<path d="M72.8831 43.5935C72.8831 45.8062 69.5325 47.5583 65.4593 47.5221C61.3862 47.486 58.0898 45.6527 58.1169 43.44C58.1439 41.2273 61.4584 39.4662 65.5406 39.5113C69.6228 39.5565 72.9011 41.3808 72.8831 43.5935Z" fill="#85B0DA"/>
</g>
<g style="mix-blend-mode:multiply">
<path d="M72.3864 43.5845C72.3864 45.6526 69.2616 47.2873 65.4594 47.2512C61.6572 47.215 58.5866 45.5081 58.6046 43.44C58.6227 41.3718 61.7295 39.7371 65.5407 39.8274C69.3519 39.9177 72.4135 41.5253 72.3864 43.5845Z" fill="#84AED9"/>
</g>
<g style="mix-blend-mode:multiply">
<path d="M65.4606 46.9826C61.9244 46.9456 59.074 45.363 59.0941 43.4477C59.1141 41.5325 61.997 40.0099 65.5332 40.047C69.0694 40.084 71.9199 41.6666 71.8998 43.5818C71.8798 45.4971 68.9968 47.0197 65.4606 46.9826Z" fill="#82ADD9"/>
</g>
<g style="mix-blend-mode:multiply">
<path d="M71.402 43.5754C71.402 45.3817 68.6926 46.7545 65.4684 46.7184C62.2442 46.6822 59.571 45.2191 59.589 43.449C59.6071 41.6789 62.2984 40.279 65.5316 40.3151C68.7649 40.3513 71.4201 41.8053 71.402 43.5754Z" fill="#80ACD8"/>
</g>
<g style="mix-blend-mode:multiply">
<path d="M70.9143 43.5755C70.9143 45.1921 68.4577 46.4836 65.4955 46.4474C62.5332 46.4113 60.0767 45.0837 60.0767 43.4581C60.0767 41.8324 62.5332 40.55 65.4955 40.5771C68.4577 40.6042 70.9323 41.9498 70.9143 43.5755Z" fill="#7EAAD7"/>
</g>
<g style="mix-blend-mode:multiply">
<path d="M70.4175 43.5664C70.4175 45.0386 68.1867 46.2126 65.4683 46.1855C62.7499 46.1584 60.5643 44.9392 60.5734 43.4761C60.5824 42.0131 62.8041 40.8119 65.5225 40.8119C68.2409 40.8119 70.4356 42.0943 70.4175 43.5664Z" fill="#7CA9D7"/>
</g>
<g style="mix-blend-mode:multiply">
<path d="M69.9389 43.5212C69.9389 44.8488 67.9249 45.9055 65.4865 45.8784C63.048 45.8513 61.0611 44.7585 61.0792 43.4309C61.0972 42.1033 63.0841 41.0557 65.5316 41.0737C67.9791 41.0918 69.9389 42.2388 69.9389 43.5212Z" fill="#7AA8D6"/>
</g>
<g style="mix-blend-mode:multiply">
<path d="M69.4332 43.5212C69.4332 44.6953 67.6269 45.6346 65.4775 45.6165C63.328 45.5984 61.5489 44.614 61.5579 43.44C61.5669 42.2659 63.3641 41.3176 65.5226 41.3447C67.6811 41.3718 69.4513 42.3743 69.4332 43.5212Z" fill="#78A7D5"/>
</g>
<g style="mix-blend-mode:multiply">
<path d="M68.9455 43.5212C68.9455 44.5598 67.383 45.3275 65.4774 45.3275C63.5718 45.3275 62.0455 44.4243 62.0545 43.4219C62.0636 42.4194 63.617 41.6156 65.5226 41.6156C67.4282 41.6156 68.9545 42.5187 68.9455 43.5212Z" fill="#76A5D5"/>
</g>
<g style="mix-blend-mode:multiply">
<path d="M68.4488 43.5212C68.4488 44.4244 67.1122 45.1107 65.4775 45.0927C63.8428 45.0746 62.5333 44.3431 62.5423 43.458C62.5513 42.5729 63.888 41.8685 65.5136 41.8866C67.1393 41.9046 68.4578 42.6633 68.4488 43.5212Z" fill="#74A4D4"/>
</g>
<g style="mix-blend-mode:multiply">
<path d="M67.9611 43.5212C67.9611 44.2618 66.8412 44.8489 65.4865 44.8308C64.1318 44.8127 63.0299 44.2076 63.039 43.4671C63.048 42.7265 64.1499 42.1485 65.5136 42.1665C66.8773 42.1846 67.9701 42.8078 67.9611 43.5212Z" fill="#71A3D4"/>
</g>
<g style="mix-blend-mode:multiply">
<path d="M67.4643 43.5213C67.4643 44.1083 66.5612 44.5779 65.4864 44.5689C64.4117 44.5599 63.5266 44.0631 63.5266 43.4761C63.5266 42.8891 64.4298 42.4194 65.5135 42.4285C66.5973 42.4375 67.4733 42.9433 67.4643 43.5213Z" fill="#6FA1D3"/>
</g>
<g style="mix-blend-mode:multiply">
<path d="M66.9766 43.5212C66.9766 43.9638 66.3083 44.316 65.4865 44.307C64.6646 44.2979 64.0144 43.9367 64.0234 43.4941C64.0324 43.0516 64.6917 42.6994 65.5045 42.7084C66.3173 42.7175 66.9766 43.0877 66.9766 43.5212Z" fill="#6DA0D2"/>
</g>
<g style="mix-blend-mode:multiply">
<path d="M66.4799 43.5213C66.4799 43.8193 66.0374 44.0541 65.4955 44.0451C64.9536 44.036 64.5201 43.8012 64.5201 43.5213C64.5201 43.2413 64.9717 42.9974 65.5136 42.9974C66.0555 42.9974 66.489 43.2323 66.4799 43.5213Z" fill="#6B9ED2"/>
</g>
<g style="mix-blend-mode:multiply">
<path d="M65.9922 43.5213C65.9922 43.6658 65.7664 43.7832 65.4955 43.7832C65.2246 43.7832 65.0078 43.6567 65.0078 43.5122C65.0078 43.3677 65.2336 43.2413 65.5045 43.2503C65.7755 43.2594 65.9922 43.3768 65.9922 43.5213Z" fill="#699DD1"/>
</g>
</g>
<path d="M40.1898 30.9496L44.877 28.2402L27.582 18.2335C27.4046 18.1721 27.2507 18.0569 27.1417 17.9039C27.0328 17.7509 26.9743 17.5678 26.9743 17.38C26.9743 17.1922 27.0328 17.0091 27.1417 16.8562C27.2507 16.7032 27.4046 16.588 27.582 16.5266L45.2473 6.32117C45.7082 6.08927 46.217 5.96849 46.733 5.96849C47.2489 5.96849 47.7577 6.08927 48.2186 6.32117L65.5046 16.3279L70.2009 13.6185L52.9059 3.62984C50.9916 2.66371 48.8772 2.1604 46.733 2.1604C44.5887 2.1604 42.4743 2.66371 40.56 3.62984L22.8948 13.8352C19.49 15.795 19.49 18.9921 22.8948 20.961L40.1898 30.9496Z" fill="#173D7A"/>
<path d="M32.6215 32.1418C32.6215 29.6311 34.1478 26.723 36.0263 25.6302L67.356 7.56756C67.6728 7.34192 68.0443 7.20531 68.4319 7.17196C68.8194 7.1386 69.2088 7.20972 69.5596 7.3779V7.3779L106.967 29.0712L70.7879 56.3367L33.931 34.9415C33.8159 34.8905 33.7069 34.8269 33.6059 34.7519V34.7519C33.2552 34.4195 32.9845 34.0119 32.814 33.5599C32.6435 33.1078 32.5777 32.623 32.6215 32.1418V32.1418Z" fill="#D4ECFF"/>
<path d="M70.7969 56.3548L33.9401 34.9596C33.825 34.9086 33.7159 34.845 33.6149 34.7699V34.7699C33.2601 34.4364 32.9862 34.0263 32.814 33.5709C32.6419 33.1154 32.576 32.6266 32.6215 32.1418C32.6509 30.8856 32.9594 29.6516 33.5246 28.5293L75.5474 52.7694L70.7969 56.3548Z" fill="#396CAA"/>
<path d="M73.1541 56.2555L104.484 38.1928C106.371 37.1091 107.898 34.192 107.898 31.6903C107.898 29.1796 106.371 28.0236 104.484 29.1164L73.1541 47.179C71.2756 48.2628 69.7493 51.1709 69.7493 53.6816C69.7493 56.1652 71.2756 57.3392 73.1541 56.2555Z" fill="#173D7A"/>
<path d="M72.7748 47.0073L104.114 28.9447C104.436 28.711 104.818 28.572 105.215 28.5433C105.612 28.5146 106.009 28.5973 106.362 28.7821C106.043 28.7038 105.711 28.6931 105.388 28.7506C105.064 28.8082 104.756 28.9327 104.484 29.1163L73.1541 47.1789C71.2756 48.2627 69.7493 51.1708 69.7493 53.6815C69.6969 54.194 69.7755 54.7115 69.9777 55.1853C70.1799 55.6592 70.4991 56.074 70.9053 56.3909C70.0022 56.1109 69.37 55.0633 69.37 53.4828C69.37 50.9992 70.8963 48.0911 72.7748 47.0073Z" fill="white"/>
<path d="M77.8503 50.1592L81.6164 47.9827C81.8227 47.8336 81.9914 47.6384 82.109 47.4126C82.2266 47.1868 82.2899 46.9367 82.2937 46.6822C82.2937 46.1854 81.9866 45.9597 81.6164 46.1674L77.8503 48.3439C77.6424 48.4915 77.4725 48.6863 77.3547 48.9125C77.2369 49.1386 77.1746 49.3895 77.173 49.6444C77.1639 50.1412 77.471 50.3669 77.8503 50.1592Z" fill="#FF2C9C"/>
<path d="M73.0367 24.7542C72.822 24.6781 72.6362 24.5374 72.5047 24.3514C72.3733 24.1654 72.3027 23.9433 72.3027 23.7155C72.3027 23.4878 72.3733 23.2657 72.5047 23.0797C72.6362 22.8937 72.822 22.753 73.0367 22.6769C73.5956 22.3901 74.2148 22.2405 74.843 22.2405C75.4712 22.2405 76.0903 22.3901 76.6492 22.6769C76.8649 22.7507 77.0522 22.89 77.1848 23.0754C77.3174 23.2608 77.3887 23.4831 77.3887 23.711C77.3887 23.939 77.3174 24.1612 77.1848 24.3467C77.0522 24.5321 76.8649 24.6714 76.6492 24.7451C76.0904 25.0312 75.4719 25.1812 74.8441 25.1828C74.2163 25.1843 73.5969 25.0375 73.0367 24.7542V24.7542Z" fill="#5793CE"/>
<path d="M67.5636 27.8338C67.3479 27.7601 67.1607 27.6207 67.0281 27.4353C66.8955 27.2499 66.8242 27.0276 66.8242 26.7997C66.8242 26.5717 66.8955 26.3495 67.0281 26.164C67.1607 25.9786 67.3479 25.8393 67.5636 25.7656C68.1216 25.4758 68.7412 25.3246 69.3699 25.3246C69.9987 25.3246 70.6182 25.4758 71.1762 25.7656C71.3919 25.8393 71.5792 25.9786 71.7117 26.164C71.8443 26.3495 71.9156 26.5717 71.9156 26.7997C71.9156 27.0276 71.8443 27.2499 71.7117 27.4353C71.5792 27.6207 71.3919 27.7601 71.1762 27.8338C70.6162 28.1171 69.9975 28.2647 69.3699 28.2647C68.7424 28.2647 68.1236 28.1171 67.5636 27.8338V27.8338Z" fill="white"/>
<path d="M62.0997 30.8773C61.8839 30.8036 61.6967 30.6643 61.5641 30.4789C61.4315 30.2935 61.3602 30.0712 61.3602 29.8432C61.3602 29.6153 61.4315 29.393 61.5641 29.2076C61.6967 29.0222 61.8839 28.8829 62.0997 28.8092C62.6577 28.5194 63.2772 28.3682 63.9059 28.3682C64.5347 28.3682 65.1542 28.5194 65.7122 28.8092C65.9279 28.8829 66.1151 29.0222 66.2477 29.2076C66.3803 29.393 66.4516 29.6153 66.4516 29.8432C66.4516 30.0712 66.3803 30.2935 66.2477 30.4789C66.1151 30.6643 65.9279 30.8036 65.7122 30.8773C65.1526 31.1621 64.5337 31.3105 63.9059 31.3105C63.2781 31.3105 62.6592 31.1621 62.0997 30.8773V30.8773Z" fill="white"/>
<g opacity="0.8">
<path d="M666.136 189.055C274.262 868.705 -1073.7 -55.523 -1678.45 712.835" stroke="#00AEB5" stroke-opacity="0.4" stroke-width="0.3"/>
<path d="M669.064 199.003C277.19 878.654 -1070.77 -45.5746 -1675.52 722.784" stroke="#00AEB5" stroke-opacity="0.4" stroke-width="0.3"/>
<path d="M671.992 208.952C280.118 888.603 -1067.84 -35.6259 -1672.59 732.732" stroke="#00AEB5" stroke-opacity="0.4" stroke-width="0.3"/>
<path d="M674.92 218.9C283.046 898.551 -1064.91 -25.6773 -1669.67 742.681" stroke="#00AEB5" stroke-opacity="0.4" stroke-width="0.3"/>
<path d="M677.848 228.849C285.974 908.5 -1061.98 -15.7289 -1666.74 752.63" stroke="#00AEB5" stroke-opacity="0.4" stroke-width="0.3"/>
<path d="M680.776 238.797C288.902 918.448 -1059.06 -5.78024 -1663.81 762.578" stroke="#00AEB5" stroke-opacity="0.4" stroke-width="0.3"/>
<path d="M683.703 248.746C291.83 928.397 -1056.13 4.16824 -1660.88 772.527" stroke="#00AEB5" stroke-opacity="0.4" stroke-width="0.3"/>
<path d="M686.631 258.694C294.758 938.345 -1053.2 14.1167 -1657.95 782.475" stroke="#00AEB5" stroke-opacity="0.4" stroke-width="0.3"/>
</g>
</g>
<defs>
<clipPath id="clip0">
<rect width="1440" height="2856" fill="white" transform="translate(-1158 -1524)"/>
</clipPath>
</defs>
</svg>
