<svg viewBox="0 0 157 93" fill="none" xmlns="http://www.w3.org/2000/svg">
<g clip-path="url(#clip0)">
<rect width="1440" height="2856" transform="translate(-784 -1120)" fill="white"/>
<rect x="-784" y="-543" width="1440" height="2279" fill="white"/>
<g opacity="0.8">
<path d="M-967.885 -253.285C-373.853 490.068 25.8148 -727.951 819.644 -409.17" stroke="black" stroke-opacity="0.2" stroke-width="0.2"/>
<path d="M-967.885 -230.414C-373.853 512.939 25.8148 -705.08 819.644 -386.299" stroke="black" stroke-opacity="0.2" stroke-width="0.2"/>
<path d="M-967.885 -207.544C-373.853 535.809 25.8148 -682.21 819.644 -363.428" stroke="black" stroke-opacity="0.2" stroke-width="0.2"/>
<path d="M-967.885 -184.673C-373.853 558.68 25.8148 -659.339 819.644 -340.558" stroke="black" stroke-opacity="0.2" stroke-width="0.2"/>
<path d="M-967.885 -161.802C-373.853 581.551 25.8148 -636.468 819.644 -317.687" stroke="black" stroke-opacity="0.2" stroke-width="0.2"/>
<path d="M-967.885 -138.932C-373.853 604.421 25.8148 -613.598 819.644 -294.817" stroke="black" stroke-opacity="0.2" stroke-width="0.2"/>
<path d="M-967.885 -116.061C-373.853 627.292 25.8148 -590.727 819.644 -271.946" stroke="black" stroke-opacity="0.2" stroke-width="0.2"/>
<path d="M-967.885 -93.1905C-373.853 650.163 25.8148 -567.856 819.644 -249.075" stroke="black" stroke-opacity="0.2" stroke-width="0.2"/>
<path d="M-967.885 -70.3199C-373.853 673.033 25.8148 -544.986 819.644 -226.205" stroke="black" stroke-opacity="0.2" stroke-width="0.2"/>
<path d="M-967.885 -47.4493C-373.853 695.904 25.8148 -522.115 819.644 -203.334" stroke="black" stroke-opacity="0.2" stroke-width="0.2"/>
<path d="M-967.885 -24.5787C-373.853 718.774 25.8148 -499.245 819.644 -180.464" stroke="black" stroke-opacity="0.2" stroke-width="0.2"/>
<path d="M-967.885 -1.70802C-373.853 741.645 25.8148 -476.374 819.644 -157.593" stroke="black" stroke-opacity="0.2" stroke-width="0.2"/>
</g>
<g style="mix-blend-mode:multiply" opacity="0.3">
<g style="mix-blend-mode:multiply">
<g style="mix-blend-mode:multiply">
<path d="M191.4 -13H-34V117.14H191.4V-13Z" fill="white"/>
</g>
<g style="mix-blend-mode:multiply">
<path d="M79.1525 103.885C131.675 103.359 174.022 79.8449 173.737 51.3636C173.452 22.8823 130.643 0.219395 78.1211 0.744618C25.5988 1.26984 -16.748 24.7843 -16.4632 53.2656C-16.1784 81.7469 26.6302 104.41 79.1525 103.885Z" fill="white"/>
</g>
<g style="mix-blend-mode:multiply">
<path d="M79.2319 103.29C131.403 102.744 173.457 79.37 173.16 51.0835C172.864 22.797 130.331 0.309221 78.1592 0.855579C25.9877 1.40194 -16.0655 24.7756 -15.7693 53.062C-15.473 81.3485 27.0604 103.836 79.2319 103.29Z" fill="white"/>
</g>
<g style="mix-blend-mode:multiply">
<path d="M79.2284 102.95C131.052 102.407 172.825 79.1888 172.53 51.0901C172.236 22.9914 129.986 0.652836 78.1628 1.19555C26.3392 1.73827 -15.4335 24.9567 -15.1393 53.0554C-14.845 81.1541 27.4048 103.493 79.2284 102.95Z" fill="white"/>
</g>
<g style="mix-blend-mode:multiply">
<path d="M79.2248 102.61C130.695 102.071 172.183 79.0077 171.89 51.0968C171.598 23.1858 129.636 0.996491 78.1663 1.5355C26.6962 2.07452 -14.7916 25.1378 -14.4994 53.0487C-14.2071 80.9596 27.7547 103.149 79.2248 102.61Z" fill="white"/>
</g>
<g style="mix-blend-mode:multiply">
<path d="M79.2211 102.26C130.343 101.725 171.551 78.821 171.26 51.1033C170.97 23.3857 129.292 1.35012 78.17 1.88549C27.0478 2.42086 -14.1596 25.3244 -13.8694 53.0421C-13.5791 80.7597 28.0989 102.795 79.2211 102.26Z" fill="white"/>
</g>
<g style="mix-blend-mode:multiply">
<path d="M79.2176 101.92C129.986 101.388 170.909 78.6399 170.62 51.11C170.332 23.5801 128.942 1.69377 78.1735 2.22544C27.4048 2.75711 -13.5177 25.5055 -13.2294 53.0354C-12.9411 80.5653 28.4488 102.452 79.2176 101.92Z" fill="white"/>
</g>
<g style="mix-blend-mode:multiply">
<path d="M79.2139 101.57C129.635 101.042 170.277 78.4532 169.991 51.1166C169.704 23.78 128.598 2.04739 78.1772 2.57542C27.7564 3.10345 -12.8857 25.6922 -12.5994 53.0288C-12.3132 80.3654 28.7931 102.098 79.2139 101.57Z" fill="white"/>
</g>
<g style="mix-blend-mode:multiply">
<path d="M79.2103 101.23C129.283 100.706 169.645 78.2721 169.361 51.1233C169.076 23.9744 128.254 2.39107 78.1808 2.91545C28.1078 3.43983 -12.2538 25.8734 -11.9695 53.0222C-11.6852 80.171 29.1374 101.754 79.2103 101.23Z" fill="white"/>
</g>
<g style="mix-blend-mode:multiply">
<path d="M79.2068 100.89C128.926 100.369 169.003 78.091 168.721 51.1299C168.438 24.1689 127.904 2.73473 78.1843 3.25541C28.4649 3.77609 -11.6118 26.0544 -11.3295 53.0155C-11.0472 79.9766 29.4873 101.411 79.2068 100.89Z" fill="white"/>
</g>
<g style="mix-blend-mode:multiply">
<path d="M79.1215 100.785C128.496 100.291 168.304 78.1898 168.037 51.4206C167.769 24.6513 127.526 3.35084 78.1521 3.84459C28.7778 4.33833 -11.0309 26.4393 -10.7632 53.2086C-10.4955 79.9778 29.7472 101.278 79.1215 100.785Z" fill="white"/>
</g>
<g style="mix-blend-mode:multiply">
<path d="M79.1996 100.2C128.218 99.6868 167.729 77.7233 167.451 51.1433C167.172 24.5633 127.21 3.43207 78.1915 3.9454C29.1734 4.45874 -10.3379 26.4222 -10.0596 53.0022C-9.78124 79.5822 30.1815 100.713 79.1996 100.2Z" fill="white"/>
</g>
<g style="mix-blend-mode:multiply">
<path d="M79.196 99.8601C127.866 99.3504 167.097 77.5421 166.821 51.1499C166.544 24.7576 126.865 3.77568 78.1951 4.28537C29.5249 4.79507 -9.706 26.6034 -9.42961 52.9956C-9.15322 79.3879 30.5258 100.37 79.196 99.8601Z" fill="#FEFFFF"/>
</g>
<g style="mix-blend-mode:multiply">
<path d="M79.1923 99.5101C127.515 99.0041 166.465 77.3554 166.191 51.1565C165.916 24.9575 126.521 4.12931 78.1988 4.63535C29.8765 5.1414 -9.074 26.7901 -8.79964 52.989C-8.52527 79.188 30.8701 100.016 79.1923 99.5101Z" fill="#FEFFFF"/>
</g>
<g style="mix-blend-mode:multiply">
<path d="M79.1888 99.1701C127.158 98.6678 165.823 77.1743 165.551 51.1631C165.278 25.152 126.171 4.47296 78.2023 4.97531C30.2335 5.47766 -8.4321 26.9711 -8.1597 52.9823C-7.8873 78.9935 31.2199 99.6725 79.1888 99.1701Z" fill="#FEFEFF"/>
</g>
<g style="mix-blend-mode:multiply">
<path d="M79.1851 98.8202C126.806 98.3215 165.191 76.9876 164.921 51.1697C164.65 25.3518 125.827 4.82659 78.206 5.32529C30.5851 5.82399 -7.80011 27.1578 -7.52973 52.9757C-7.25936 78.7936 31.5642 99.3189 79.1851 98.8202Z" fill="#FEFEFF"/>
</g>
<g style="mix-blend-mode:multiply">
<path d="M79.1816 98.4802C126.449 97.9852 164.549 76.8066 164.281 51.1765C164.012 25.5463 125.477 5.1703 78.2096 5.6653C30.9421 6.16031 -7.15814 27.3389 -6.88974 52.969C-6.62133 78.5992 31.9141 98.9752 79.1816 98.4802Z" fill="#FEFEFF"/>
</g>
<g style="mix-blend-mode:multiply">
<path d="M79.178 98.1402C126.098 97.6489 163.917 76.6254 163.651 51.1831C163.384 25.7407 125.133 5.51392 78.2131 6.00528C31.2936 6.49663 -6.52622 27.5201 -6.25978 52.9624C-5.99334 78.4048 32.2585 98.6316 79.178 98.1402Z" fill="#FEFEFF"/>
</g>
<g style="mix-blend-mode:multiply">
<path d="M79.1743 97.7902C125.74 97.3026 163.275 76.4388 163.011 51.1897C162.746 25.9407 124.783 5.86758 78.2168 6.35524C31.6507 6.8429 -5.88425 27.7066 -5.61983 52.9557C-5.35542 78.2048 32.6082 98.2779 79.1743 97.7902Z" fill="#FEFEFF"/>
</g>
<g style="mix-blend-mode:multiply">
<path d="M79.1708 97.4502C125.389 96.9662 162.643 76.2576 162.381 51.1963C162.118 26.135 124.439 6.2112 78.2204 6.69521C32.0022 7.17922 -5.2523 27.8878 -4.98985 52.9491C-4.7274 78.0104 32.9526 97.9342 79.1708 97.4502Z" fill="#FDFEFE"/>
</g>
<g style="mix-blend-mode:multiply">
<path d="M79.1672 97.1103C125.037 96.6299 162.011 76.0765 161.751 51.203C161.491 26.3294 124.094 6.55487 78.2239 7.03524C32.3537 7.51561 -4.62035 28.069 -4.35986 52.9426C-4.09938 77.8161 33.297 97.5907 79.1672 97.1103Z" fill="#FDFEFE"/>
</g>
<g style="mix-blend-mode:multiply">
<path d="M79.1635 96.7603C124.68 96.2836 161.37 75.8899 161.111 51.2097C160.853 26.5294 123.744 6.90854 78.2276 7.38521C32.7108 7.86187 -3.9784 28.2556 -3.71994 52.9358C-3.46148 77.6161 33.6467 97.237 79.1635 96.7603Z" fill="#FDFEFE"/>
</g>
<g style="mix-blend-mode:multiply">
<path d="M79.16 96.4203C124.329 95.9473 160.738 75.7087 160.481 51.2162C160.225 26.7238 123.4 7.25215 78.2311 7.72518C33.0622 8.1982 -3.34645 28.4367 -3.08996 52.9292C-2.83346 77.4217 33.9911 96.8933 79.16 96.4203Z" fill="#FDFDFE"/>
</g>
<g style="mix-blend-mode:multiply">
<path d="M79.1563 96.0703C123.972 95.601 160.096 75.5221 159.841 51.2229C159.587 26.9237 123.05 7.60582 78.2348 8.07514C33.4194 8.54446 -2.70445 28.6233 -2.44998 52.9225C-2.19551 77.2217 34.3409 96.5396 79.1563 96.0703Z" fill="#FCFDFE"/>
</g>
<g style="mix-blend-mode:multiply">
<path d="M79.1528 95.7303C123.62 95.2646 159.464 75.341 159.211 51.2295C158.959 27.1181 122.706 7.94943 78.2384 8.41511C33.7709 8.88079 -2.07253 28.8045 -1.82002 52.9159C-1.56752 77.0273 34.6853 96.196 79.1528 95.7303Z" fill="#FCFDFE"/>
</g>
<g style="mix-blend-mode:multiply">
<path d="M79.1492 95.3903C123.269 94.9283 158.832 75.1598 158.581 51.2361C158.331 27.3124 122.362 8.29305 78.2419 8.75508C34.1223 9.21712 -1.44061 28.9856 -1.19007 52.9093C-0.939532 76.833 35.0296 95.8524 79.1492 95.3903Z" fill="#FCFDFE"/>
</g>
<g style="mix-blend-mode:multiply">
<path d="M79.1455 95.0404C122.912 94.582 158.19 74.9732 157.941 51.2428C157.693 27.5125 122.012 8.64677 78.2456 9.10511C34.4794 9.56344 -0.798602 29.1723 -0.550089 52.9026C-0.301576 76.633 35.3794 95.4987 79.1455 95.0404Z" fill="#FCFDFE"/>
</g>
<g style="mix-blend-mode:multiply">
<path d="M79.0631 94.9446C122.484 94.5104 157.492 75.0723 157.257 51.5284C157.021 27.9845 121.631 9.25042 78.2105 9.68463C34.7899 10.1188 -0.218624 29.5569 0.016815 53.1008C0.252254 76.6447 35.6425 95.3788 79.0631 94.9446Z" fill="#FBFDFE"/>
</g>
<g style="mix-blend-mode:multiply">
<path d="M79.1384 94.3604C122.203 93.9094 156.916 74.611 156.671 51.2561C156.427 27.9013 121.318 9.33404 78.2527 9.78503C35.1879 10.236 0.475249 29.5345 0.719829 52.8893C0.96441 76.2441 36.0736 94.8114 79.1384 94.3604Z" fill="#FBFCFE"/>
</g>
<g style="mix-blend-mode:multiply">
<path d="M79.1348 94.0105C121.852 93.5631 156.284 74.4243 156.041 51.2628C155.799 28.1012 120.973 9.68773 78.2564 10.1351C35.5395 10.5824 1.10724 29.7212 1.3498 52.8828C1.59236 76.0443 36.4179 94.4578 79.1348 94.0105Z" fill="#FBFCFE"/>
</g>
<g style="mix-blend-mode:multiply">
<path d="M79.1312 93.6705C121.5 93.2268 155.652 74.2431 155.411 51.2694C155.171 28.2956 120.629 10.0313 78.26 10.475C35.891 10.9188 1.7392 29.9024 1.97979 52.8762C2.22037 75.8499 36.7622 94.1142 79.1312 93.6705Z" fill="#FAFCFE"/>
</g>
<g style="mix-blend-mode:multiply">
<path d="M79.1275 93.3205C121.143 92.8805 155.01 74.0566 154.771 51.2761C154.533 28.4956 120.279 10.385 78.2636 10.825C36.2481 11.265 2.38114 30.0889 2.61971 52.8694C2.85827 75.6499 37.112 93.7605 79.1275 93.3205Z" fill="#FAFCFD"/>
</g>
<g style="mix-blend-mode:multiply">
<path d="M79.124 92.9805C120.792 92.5441 154.378 73.8754 154.141 51.2826C153.905 28.6899 119.935 10.7286 78.2672 11.165C36.5996 11.6013 3.01309 30.2701 3.24969 52.8628C3.48629 75.4556 37.4564 93.4168 79.124 92.9805Z" fill="#FAFCFD"/>
</g>
<g style="mix-blend-mode:multiply">
<path d="M79.1204 92.6405C120.435 92.2078 153.736 73.6943 153.501 51.2893C153.267 28.8843 119.585 11.0723 78.2707 11.5049C36.9566 11.9376 3.65505 30.4511 3.88968 52.8561C4.12432 75.2611 37.8063 93.0731 79.1204 92.6405Z" fill="#F9FBFD"/>
</g>
<g style="mix-blend-mode:multiply">
<path d="M79.1168 92.2905C120.083 91.8615 153.104 73.5076 152.871 51.2959C152.639 29.0842 119.241 11.4259 78.2744 11.8549C37.3082 12.2839 4.28702 30.6378 4.51962 52.8495C4.75223 75.0612 38.1505 92.7195 79.1168 92.2905Z" fill="#F9FBFD"/>
</g>
<g style="mix-blend-mode:multiply">
<path d="M79.1132 91.9506C119.731 91.5252 152.472 73.3265 152.242 51.3026C152.011 29.2786 118.896 11.7696 78.2779 12.1949C37.6596 12.6203 4.91894 30.819 5.14958 52.843C5.38022 74.8669 38.4949 92.3759 79.1132 91.9506Z" fill="#F9FBFD"/>
</g>
<g style="mix-blend-mode:multiply">
<path d="M79.1095 91.6006C119.374 91.1789 151.83 73.1399 151.602 51.3092C151.373 29.4786 118.546 12.1232 78.2816 12.5449C38.0167 12.9666 5.56094 31.0056 5.78956 52.8362C6.01818 74.6669 38.8446 92.0223 79.1095 91.6006Z" fill="#F8FBFD"/>
</g>
<g style="mix-blend-mode:multiply">
<path d="M79.106 91.2606C119.023 90.8426 151.198 72.9587 150.972 51.3158C150.745 29.673 118.202 12.4669 78.2852 12.8849C38.3682 13.3029 6.19289 31.1868 6.41954 52.8296C6.6462 74.4725 39.189 91.6786 79.106 91.2606Z" fill="#F8FAFD"/>
</g>
<g style="mix-blend-mode:multiply">
<path d="M79.1024 90.9206C118.666 90.5063 150.556 72.7776 150.332 51.3226C150.107 29.8675 117.852 12.8106 78.2887 13.2249C38.7252 13.6392 6.83479 31.3679 7.05948 52.823C7.28416 74.278 39.5389 91.335 79.1024 90.9206Z" fill="#F7FAFD"/>
</g>
<g style="mix-blend-mode:multiply">
<path d="M79.0987 90.5706C118.314 90.1599 149.924 72.5909 149.702 51.3291C149.479 30.0673 117.508 13.1641 78.2924 13.5748C39.0768 13.9855 7.46679 31.5545 7.68945 52.8163C7.91211 74.0781 39.8831 90.9813 79.0987 90.5706Z" fill="#F7FAFC"/>
</g>
<g style="mix-blend-mode:multiply">
<path d="M79.0952 90.2307C117.963 89.8236 149.292 72.4098 149.072 51.3357C148.851 30.2617 117.164 13.5078 78.296 13.9149C39.4283 14.3219 8.09874 31.7357 8.31943 52.8098C8.54013 73.8838 40.2275 90.6377 79.0952 90.2307Z" fill="#F6F9FC"/>
</g>
<g style="mix-blend-mode:multiply">
<path d="M79.0916 89.8907C117.606 89.4873 148.65 72.2287 148.432 51.3424C148.213 30.4562 116.814 13.8515 78.2995 14.2548C39.7853 14.6581 8.74064 31.9168 8.95937 52.803C9.1781 73.6893 40.5774 90.294 79.0916 89.8907Z" fill="#F6F9FC"/>
</g>
<g style="mix-blend-mode:multiply">
<path d="M79.0879 89.5407C117.254 89.141 148.018 72.042 147.802 51.349C147.585 30.656 116.469 14.2051 78.3032 14.6048C40.1369 15.0045 9.37263 32.1034 9.58934 52.7964C9.80604 73.4894 40.9216 89.9404 79.0879 89.5407Z" fill="#F5F9FC"/>
</g>
<g style="mix-blend-mode:multiply">
<path d="M79.0844 89.2007C116.897 88.8047 147.377 71.8609 147.162 51.3557C146.947 30.8505 116.12 14.5488 78.3068 14.9447C40.4939 15.3407 10.0146 32.2845 10.2293 52.7897C10.4441 73.2949 41.2715 89.5967 79.0844 89.2007Z" fill="#F5F8FC"/>
</g>
<g style="mix-blend-mode:multiply">
<path d="M79.0807 88.8507C116.546 88.4584 146.745 71.6742 146.532 51.3623C146.319 31.0504 115.775 14.9024 78.3104 15.2947C40.8455 15.6871 10.6466 32.4712 10.8593 52.7831C11.072 73.095 41.6158 89.243 79.0807 88.8507Z" fill="#F4F8FC"/>
</g>
<g style="mix-blend-mode:multiply">
<path d="M79.0772 88.5107C116.194 88.122 146.113 71.4931 145.902 51.3689C145.691 31.2448 115.431 15.2461 78.314 15.6348C41.197 16.0235 11.2785 32.6524 11.4892 52.7766C11.7 72.9007 41.9601 88.8994 79.0772 88.5107Z" fill="#F4F8FC"/>
</g>
<g style="mix-blend-mode:multiply">
<path d="M79.0736 88.1707C115.837 87.7857 145.471 71.312 145.262 51.3756C145.053 31.4392 115.081 15.5897 78.3175 15.9747C41.554 16.3597 11.9204 32.8334 12.1292 52.7698C12.338 72.7062 42.31 88.5557 79.0736 88.1707Z" fill="#F3F7FB"/>
</g>
<g style="mix-blend-mode:multiply">
<path d="M79.0699 87.8208C115.486 87.4394 144.839 71.1253 144.632 51.3822C144.425 31.6391 114.737 15.9433 78.3212 16.3247C41.9056 16.706 12.5524 33.0201 12.7592 52.7632C12.9659 72.5063 42.6543 88.2021 79.0699 87.8208Z" fill="#F3F7FB"/>
</g>
<g style="mix-blend-mode:multiply">
<path d="M79.0664 87.4808C115.129 87.1032 144.197 70.9443 143.992 51.3889C143.787 31.8336 114.387 16.287 78.3248 16.6647C42.2625 17.0424 13.1943 33.2012 13.3991 52.7566C13.6039 72.3119 43.0042 87.8585 79.0664 87.4808Z" fill="#F2F7FB"/>
</g>
<g style="mix-blend-mode:multiply">
<path d="M79.0628 87.1408C114.777 86.7668 143.565 70.7631 143.362 51.3955C143.159 32.028 114.043 16.6307 78.3283 17.0047C42.614 17.3787 13.8263 33.3824 14.0291 52.75C14.2319 72.1175 43.3485 87.5148 79.0628 87.1408Z" fill="#F2F6FB"/>
</g>
<g style="mix-blend-mode:multiply">
<path d="M79.0592 86.7908C114.426 86.4205 142.933 70.5764 142.732 51.4021C142.531 32.2278 113.698 16.9843 78.332 17.3547C42.9656 17.725 14.4583 33.5691 14.6591 52.7434C14.8599 71.9176 43.6928 87.1612 79.0592 86.7908Z" fill="#F1F6FB"/>
</g>
<g style="mix-blend-mode:multiply">
<path d="M79.0556 86.4508C114.069 86.0842 142.291 70.3953 142.092 51.4088C141.893 32.4223 113.348 17.3279 78.3355 17.6946C43.3226 18.0613 15.1002 33.7501 15.299 52.7366C15.4979 71.7231 44.0426 86.8175 79.0556 86.4508Z" fill="#F0F5FB"/>
</g>
<g style="mix-blend-mode:multiply">
<path d="M79.0519 86.1009C113.717 85.7378 141.659 70.2086 141.462 51.4154C141.265 32.6222 113.004 17.6816 78.3392 18.0446C43.6742 18.4076 15.7322 33.9368 15.929 52.73C16.1258 71.5233 44.3869 86.4639 79.0519 86.1009Z" fill="#F0F5FA"/>
</g>
<g style="mix-blend-mode:multiply">
<path d="M79.0484 85.7609C113.36 85.4016 141.017 70.0276 140.822 51.4221C140.627 32.8167 112.654 18.0253 78.3428 18.3846C44.0312 18.7439 16.3741 34.1179 16.569 52.7234C16.7638 71.3288 44.7368 86.1202 79.0484 85.7609Z" fill="#EFF5FA"/>
</g>
<g style="mix-blend-mode:multiply">
<path d="M79.0448 85.4209C113.008 85.0652 140.385 69.8464 140.192 51.4287C139.999 33.011 112.31 18.3689 78.3463 18.7246C44.3827 19.0803 17.0061 34.2991 17.1989 52.7168C17.3918 71.1344 45.0811 85.7766 79.0448 85.4209Z" fill="#EEF4FA"/>
</g>
<g style="mix-blend-mode:multiply">
<path d="M79.0411 85.0709C112.657 84.7189 139.753 69.6597 139.562 51.4353C139.371 33.2109 111.966 18.7225 78.35 19.0746C44.7343 19.4266 17.6381 34.4858 17.8289 52.7102C18.0198 70.9346 45.4254 85.423 79.0411 85.0709Z" fill="#EEF4FA"/>
</g>
<g style="mix-blend-mode:multiply">
<path d="M79.0376 84.7309C112.3 84.3826 139.111 69.4786 138.922 51.442C138.733 33.4054 111.616 19.0662 78.3536 19.4145C45.0913 19.7628 18.28 34.6668 18.4689 52.7034C18.6578 70.7401 45.7753 85.0793 79.0376 84.7309Z" fill="#EDF3F9"/>
</g>
<g style="mix-blend-mode:multiply">
<path d="M79.034 84.391C111.948 84.0463 138.479 69.2975 138.292 51.4486C138.105 33.5998 111.271 19.4099 78.3571 19.7545C45.4427 20.0992 18.9119 34.848 19.0988 52.6969C19.2857 70.5457 46.1196 84.7357 79.034 84.391Z" fill="#ECF3F9"/>
</g>
<g style="mix-blend-mode:multiply">
<path d="M79.0303 84.041C111.591 83.7 137.837 69.1109 137.652 51.4553C137.467 33.7997 110.922 19.7635 78.3608 20.1045C45.7999 20.4455 19.5539 35.0346 19.7388 52.6902C19.9237 70.3457 46.4694 84.382 79.0303 84.041Z" fill="#ECF2F9"/>
</g>
<g style="mix-blend-mode:multiply">
<path d="M79.0268 83.701C111.24 83.3637 137.205 68.9297 137.022 51.4619C136.839 33.9941 110.577 20.1071 78.3644 20.4445C46.1514 20.7818 20.1858 35.2157 20.3688 52.6836C20.5517 70.1514 46.8138 84.0384 79.0268 83.701Z" fill="#EBF2F9"/>
</g>
<g style="mix-blend-mode:multiply">
<path d="M79.0231 83.351C110.888 83.0173 136.573 68.743 136.392 51.4685C136.211 34.194 110.233 20.4608 78.368 20.7945C46.5029 21.1282 20.8178 35.4024 20.9987 52.677C21.1796 69.9515 47.1581 83.6847 79.0231 83.351Z" fill="#EAF1F9"/>
</g>
<g style="mix-blend-mode:multiply">
<path d="M79.0196 83.011C110.531 82.681 135.931 68.5619 135.752 51.4752C135.573 34.3884 109.883 20.8044 78.3716 21.1344C46.8599 21.4644 21.4598 35.5835 21.6387 52.6702C21.8176 69.757 47.5079 83.341 79.0196 83.011Z" fill="#E9F1F8"/>
</g>
<g style="mix-blend-mode:multiply">
<path d="M79.016 82.671C110.18 82.3447 135.299 68.3808 135.122 51.4818C134.945 34.5828 109.539 21.148 78.3751 21.4744C47.2114 21.8007 22.0917 35.7646 22.2686 52.6636C22.4456 69.5626 47.8523 82.9974 79.016 82.671Z" fill="#E9F0F8"/>
</g>
<g style="mix-blend-mode:multiply">
<path d="M79.0124 82.3211C109.823 81.9984 134.657 68.1942 134.483 51.4885C134.308 34.7828 109.189 21.5018 78.3788 21.8244C47.5685 22.1471 22.7337 35.9513 22.9086 52.657C23.0836 69.3627 48.2021 82.6437 79.0124 82.3211Z" fill="#E8F0F8"/>
</g>
<g style="mix-blend-mode:multiply">
<path d="M79.0088 81.9811C109.471 81.6621 134.026 68.013 133.853 51.4951C133.68 34.9772 108.845 21.8454 78.3824 22.1644C47.92 22.4834 23.3656 36.1324 23.5386 52.6504C23.7116 69.1683 48.5464 82.3001 79.0088 81.9811Z" fill="#E7EFF8"/>
</g>
<g style="mix-blend-mode:multiply">
<path d="M79.0052 81.6411C109.12 81.3257 133.394 67.8319 133.223 51.5017C133.052 35.1715 108.5 22.189 78.3859 22.5044C48.2715 22.8197 23.9976 36.3136 24.1686 52.6437C24.3396 68.9739 48.8908 81.9565 79.0052 81.6411Z" fill="#E6EFF7"/>
</g>
<g style="mix-blend-mode:multiply">
<path d="M79.0016 81.2912C108.763 80.9795 132.752 67.6453 132.583 51.5084C132.414 35.3716 108.151 22.5427 78.3896 22.8544C48.6286 23.166 24.6395 36.5002 24.8085 52.6371C24.9775 68.774 49.2406 81.6028 79.0016 81.2912Z" fill="#E5EEF7"/>
</g>
<g style="mix-blend-mode:multiply">
<path d="M78.998 80.9512C108.411 80.6432 132.12 67.4641 131.953 51.515C131.786 35.5659 107.806 22.8863 78.3931 23.1943C48.9801 23.5024 25.2714 36.6814 25.4385 52.6305C25.6055 68.5796 49.5849 81.2592 78.998 80.9512Z" fill="#E5EEF7"/>
</g>
<g style="mix-blend-mode:multiply">
<path d="M78.9943 80.6012C108.054 80.2969 131.478 67.2775 131.313 51.5217C131.148 35.7659 107.456 23.24 78.3968 23.5443C49.3372 23.8486 25.9135 36.868 26.0785 52.6238C26.2435 68.3796 49.9347 80.9055 78.9943 80.6012Z" fill="#E4EDF7"/>
</g>
<g style="mix-blend-mode:multiply">
<path d="M78.9187 80.5046C107.632 80.2175 130.782 67.3636 130.627 51.7947C130.471 36.2258 107.068 23.8375 78.3549 24.1246C49.6416 24.4118 26.4911 37.2656 26.6468 52.8345C26.8025 68.4034 50.2054 80.7918 78.9187 80.5046Z" fill="#E3EDF6"/>
</g>
<g style="mix-blend-mode:multiply">
<path d="M78.9872 79.9212C107.351 79.6242 130.214 66.9152 130.053 51.5349C129.892 36.1546 106.768 23.9272 78.4039 24.2243C50.0401 24.5213 27.1773 37.2303 27.3384 52.6105C27.4994 67.9908 50.6234 80.2182 78.9872 79.9212Z" fill="#E2ECF6"/>
</g>
<g style="mix-blend-mode:multiply">
<path d="M78.9835 79.5712C106.994 79.2779 129.572 66.7286 129.413 51.5416C129.254 36.3546 106.418 24.2809 78.4076 24.5742C50.3972 24.8676 27.8193 37.4168 27.9783 52.6038C28.1374 67.7908 50.9732 79.8645 78.9835 79.5712Z" fill="#E1EBF6"/>
</g>
<g style="mix-blend-mode:multiply">
<path d="M78.98 79.2313C106.642 78.9416 128.94 66.5474 128.783 51.5482C128.626 36.549 106.074 24.6246 78.4112 24.9143C50.7487 25.2039 28.4512 37.598 28.6083 52.5973C28.7654 67.5965 51.3176 79.521 78.98 79.2313Z" fill="#E0EBF6"/>
</g>
<g style="mix-blend-mode:multiply">
<path d="M78.9763 78.8813C106.285 78.5953 128.298 66.3609 128.143 51.5549C127.988 36.749 105.724 24.9782 78.4148 25.2642C51.1058 25.5502 29.0932 37.7846 29.2483 52.5906C29.4033 67.3965 51.6673 79.1673 78.9763 78.8813Z" fill="#DFEAF5"/>
</g>
<g style="mix-blend-mode:multiply">
<path d="M78.9015 78.7846C105.864 78.515 127.603 66.4454 127.457 51.8264C127.311 37.2074 105.335 25.575 78.3721 25.8446C51.4096 26.1143 29.6706 38.1838 29.8168 52.8028C29.963 67.4218 51.939 79.0542 78.9015 78.7846Z" fill="#DEEAF5"/>
</g>
<g style="mix-blend-mode:multiply">
<path d="M78.9692 78.2013C105.582 77.9226 127.034 65.9985 126.883 51.5681C126.732 37.1377 105.035 25.6655 78.4219 25.9442C51.8088 26.2229 30.3571 38.1469 30.5082 52.5773C30.6593 67.0078 52.3561 78.48 78.9692 78.2013Z" fill="#DDE9F5"/>
</g>
<g style="mix-blend-mode:multiply">
<path d="M78.9655 77.8514C105.225 77.5764 126.392 65.812 126.243 51.5748C126.094 37.3377 104.685 26.0192 78.4256 26.2942C52.1659 26.5692 30.9991 38.3336 31.1482 52.5707C31.2973 66.8078 52.7058 78.1264 78.9655 77.8514Z" fill="#DCE8F4"/>
</g>
<g style="mix-blend-mode:multiply">
<path d="M78.962 77.5114C104.874 77.24 125.76 65.6308 125.613 51.5814C125.466 37.5321 104.341 26.3628 78.4292 26.6342C52.5174 26.9055 31.631 38.5147 31.7781 52.5641C31.9253 66.6134 53.0502 77.7827 78.962 77.5114Z" fill="#DBE8F4"/>
</g>
<g style="mix-blend-mode:multiply">
<path d="M78.9584 77.1814C104.517 76.9137 125.118 65.4597 124.973 51.5981C124.828 37.7365 103.991 26.7165 78.4327 26.9841C52.8744 27.2518 32.273 38.7058 32.4181 52.5674C32.5633 66.429 53.4001 77.449 78.9584 77.1814Z" fill="#DAE7F4"/>
</g>
<g style="mix-blend-mode:multiply">
<path d="M78.9548 76.8214C104.165 76.5574 124.486 65.263 124.343 51.5947C124.2 37.9264 103.647 27.0601 78.4364 27.3241C53.226 27.5881 32.9049 38.8825 33.0481 52.5508C33.1912 66.2191 53.7443 77.0854 78.9548 76.8214Z" fill="#D9E6F3"/>
</g>
<g style="mix-blend-mode:multiply">
<path d="M78.9512 76.4814C103.814 76.221 123.854 65.0818 123.713 51.6013C123.572 38.1207 103.302 27.4037 78.4399 27.6641C53.5774 27.9244 33.5368 39.0636 33.678 52.5441C33.8192 66.0247 54.0887 76.7417 78.9512 76.4814Z" fill="#D8E6F3"/>
</g>
<g style="mix-blend-mode:multiply">
<path d="M78.9475 76.1314C103.457 75.8747 123.212 64.8952 123.073 51.608C122.934 38.3207 102.953 27.7574 78.4436 28.014C53.9346 28.2707 34.1788 39.2502 34.318 52.5374C34.4571 65.8247 54.4385 76.3881 78.9475 76.1314Z" fill="#D7E5F3"/>
</g>
<g style="mix-blend-mode:multiply">
<path d="M78.874 76.0446C103.036 75.803 122.518 64.9873 122.387 51.8871C122.256 38.7869 102.562 28.363 78.3996 28.6046C54.2371 28.8462 34.7558 39.6619 34.8868 52.7621C35.0178 65.8623 54.7115 76.2862 78.874 76.0446Z" fill="#D6E4F2"/>
</g>
<g style="mix-blend-mode:multiply">
<path d="M78.9404 75.4514C102.748 75.2021 121.938 64.533 121.803 51.6213C121.668 38.7096 102.258 28.4447 78.4507 28.694C54.643 28.9433 35.4527 39.6124 35.5879 52.5242C35.7231 65.4359 55.1327 75.7008 78.9404 75.4514Z" fill="#D5E4F2"/>
</g>
<g style="mix-blend-mode:multiply">
<path d="M78.9367 75.1015C102.397 74.8558 121.306 64.3463 121.173 51.6279C121.04 38.9095 101.914 28.7983 78.4544 29.044C54.9946 29.2897 36.0847 39.7991 36.2179 52.5176C36.3511 65.236 55.477 75.3472 78.9367 75.1015Z" fill="#D4E3F2"/>
</g>
<g style="mix-blend-mode:multiply">
<path d="M78.9332 74.7615C102.045 74.5195 120.675 64.1652 120.543 51.6345C120.412 39.1039 101.57 29.142 78.458 29.384C55.3461 29.6261 36.7166 39.9804 36.8479 52.511C36.9791 65.0417 55.8213 75.0036 78.9332 74.7615Z" fill="#D3E2F1"/>
</g>
<g style="mix-blend-mode:multiply">
<path d="M78.9296 74.4215C101.688 74.1832 120.033 63.9841 119.903 51.6412C119.774 39.2983 101.22 29.4856 78.4615 29.724C55.7031 29.9623 37.3585 40.1614 37.4878 52.5043C37.6171 64.8472 56.1712 74.6599 78.9296 74.4215Z" fill="#D2E1F1"/>
</g>
<g style="mix-blend-mode:multiply">
<path d="M78.9259 74.0715C101.336 73.8369 119.401 63.7974 119.273 51.6478C119.146 39.4982 100.876 29.8393 78.4652 30.074C56.0547 30.3086 37.9905 40.3481 38.1178 52.4977C38.245 64.6473 56.5155 74.3062 78.9259 74.0715Z" fill="#D0E1F1"/>
</g>
<g style="mix-blend-mode:multiply">
<path d="M78.9224 73.7315C100.979 73.5005 118.759 63.6163 118.633 51.6545C118.508 39.6926 100.526 30.1829 78.4688 30.4139C56.4117 30.6449 38.6325 40.5291 38.7578 52.491C38.883 64.4528 56.8654 73.9625 78.9224 73.7315Z" fill="#CFE0F0"/>
</g>
<g style="mix-blend-mode:multiply">
<path d="M78.9187 73.3816C100.628 73.1542 118.127 63.4296 118.003 51.6611C117.88 39.8925 100.182 30.5365 78.4724 30.7639C56.7633 30.9912 39.2645 40.7158 39.3877 52.4844C39.511 64.2529 57.2096 73.6089 78.9187 73.3816Z" fill="#CEDFF0"/>
</g>
<g style="mix-blend-mode:multiply">
<path d="M78.9152 73.0415C100.276 72.8178 117.495 63.2484 117.373 51.6677C117.252 40.0869 99.8372 30.8802 78.476 31.1039C57.1148 31.3276 39.8964 40.897 40.0177 52.4777C40.1389 64.0585 57.554 73.2653 78.9152 73.0415Z" fill="#CDDEF0"/>
</g>
<g style="mix-blend-mode:multiply">
<path d="M78.8431 72.9446C99.852 72.7345 116.791 63.3278 116.677 51.9342C116.563 40.5406 99.4394 31.4745 78.4305 31.6846C57.4216 31.8947 40.4829 41.3014 40.5968 52.695C40.7107 64.0886 57.8342 73.1547 78.8431 72.9446Z" fill="#CCDEEF"/>
</g>
<g style="mix-blend-mode:multiply">
<path d="M78.9079 72.3516C99.5678 72.1353 116.221 62.8807 116.104 51.681C115.986 40.4813 99.143 31.5775 78.4832 31.7939C57.8234 32.0102 41.1703 41.2648 41.2876 52.4645C41.4049 63.6642 58.2481 72.568 78.9079 72.3516Z" fill="#CBDDEF"/>
</g>
<g style="mix-blend-mode:multiply">
<path d="M78.9044 72.0117C99.2108 71.799 115.579 62.6997 115.464 51.6877C115.348 40.6758 98.7931 31.9212 78.4868 32.1339C58.1804 32.3465 41.8122 41.4459 41.9276 52.4578C42.0429 63.4698 58.598 72.2243 78.9044 72.0117Z" fill="#C9DCEF"/>
</g>
<g style="mix-blend-mode:multiply">
<path d="M78.9008 71.6717C98.8593 71.4627 114.947 62.5185 114.834 51.6943C114.72 40.8701 98.4488 32.2648 78.4903 32.4738C58.5319 32.6829 42.4442 41.627 42.5575 52.4512C42.6709 63.2754 58.9423 71.8807 78.9008 71.6717Z" fill="#C8DBEE"/>
</g>
<g style="mix-blend-mode:multiply">
<path d="M78.8972 71.3217C98.5077 71.1163 114.315 62.3318 114.204 51.7009C114.092 41.07 98.1046 32.6184 78.494 32.8238C58.8834 33.0291 43.0762 41.8137 43.1875 52.4446C43.2988 63.0755 59.2866 71.527 78.8972 71.3217Z" fill="#C7DAEE"/>
</g>
<g style="mix-blend-mode:multiply">
<path d="M78.8936 70.9817C98.1507 70.78 113.673 62.1507 113.564 51.7076C113.454 41.2644 97.7547 32.9621 78.4975 33.1638C59.2404 33.3654 43.7181 41.9948 43.8275 52.4379C43.9368 62.881 59.6365 71.1834 78.8936 70.9817Z" fill="#C5D9ED"/>
</g>
<g style="mix-blend-mode:multiply">
<path d="M78.8899 70.6317C97.7991 70.4337 113.041 61.964 112.934 51.7142C112.826 41.4643 97.4104 33.3157 78.5012 33.5138C59.592 33.7118 44.3501 42.1815 44.4574 52.4313C44.5648 62.6811 59.9807 70.8298 78.8899 70.6317Z" fill="#C4D9ED"/>
</g>
<g style="mix-blend-mode:multiply">
<path d="M78.8864 70.2917C97.4421 70.0974 112.399 61.7829 112.294 51.7208C112.188 41.6588 97.0605 33.6594 78.5048 33.8537C59.949 34.048 44.992 42.3625 45.0974 52.4246C45.2028 62.4866 60.3306 70.486 78.8864 70.2917Z" fill="#C3D8ED"/>
</g>
<g style="mix-blend-mode:multiply">
<path d="M78.8828 69.9517C97.0906 69.761 111.767 61.6017 111.664 51.7274C111.56 41.8531 96.7162 34.003 78.5083 34.1937C60.3005 34.3844 45.624 42.5436 45.7274 52.4179C45.8308 62.2923 60.675 70.1424 78.8828 69.9517Z" fill="#C2D7EC"/>
</g>
<g style="mix-blend-mode:multiply">
<path d="M78.8791 69.6018C96.739 69.4147 111.135 61.4151 111.034 51.734C110.932 42.053 96.3719 34.3566 78.512 34.5437C60.6521 34.7307 46.256 42.7303 46.3573 52.4114C46.4587 62.0924 61.0192 69.7888 78.8791 69.6018Z" fill="#C0D6EC"/>
</g>
<g style="mix-blend-mode:multiply">
<path d="M78.8756 69.2618C96.3821 69.0785 110.493 61.234 110.394 51.7408C110.294 42.2475 96.022 34.7003 78.5156 34.8837C61.0091 35.067 46.8979 42.9114 46.9973 52.4047C47.0967 61.8979 61.3691 69.4451 78.8756 69.2618Z" fill="#BFD5EB"/>
</g>
<g style="mix-blend-mode:multiply">
<path d="M78.872 68.9218C96.0306 68.7421 109.861 61.0528 109.764 51.7474C109.666 42.4419 95.6777 35.044 78.5191 35.2237C61.3606 35.4033 47.5298 43.0926 47.6273 52.3981C47.7247 61.7036 61.7135 69.1015 78.872 68.9218Z" fill="#BDD4EB"/>
</g>
<g style="mix-blend-mode:multiply">
<path d="M78.8683 68.5718C95.6734 68.3958 109.219 60.8663 109.124 51.7541C109.028 42.6419 95.3279 35.3976 78.5228 35.5736C61.7177 35.7496 48.1718 43.2792 48.2672 52.3914C48.3626 61.5036 62.0632 68.7478 78.8683 68.5718Z" fill="#BCD3EA"/>
</g>
<g style="mix-blend-mode:multiply">
<path d="M78.8648 68.2319C95.322 68.0595 108.587 60.6851 108.494 51.7607C108.4 42.8363 94.9835 35.7413 78.5264 35.9136C62.0692 36.086 48.8037 43.4604 48.8972 52.3848C48.9907 61.3092 62.4076 68.4042 78.8648 68.2319Z" fill="#BBD2EA"/>
</g>
<g style="mix-blend-mode:multiply">
<path d="M78.8611 67.8819C94.9704 67.7132 107.955 60.4984 107.864 51.7673C107.773 43.0362 94.6393 36.0949 78.53 36.2636C62.4208 36.4323 49.4357 43.6471 49.5272 52.3782C49.6186 61.1094 62.7519 68.0506 78.8611 67.8819Z" fill="#B9D1EA"/>
</g>
<g style="mix-blend-mode:multiply">
<path d="M50.16 52.39C50.25 60.94 63.09 67.73 78.85 67.56C94.61 67.39 107.31 60.34 107.22 51.79C107.13 43.24 94.28 36.46 78.53 36.62C62.78 36.78 50.08 43.83 50.16 52.39Z" fill="#B8D0E9"/>
</g>
<g style="mix-blend-mode:multiply">
<path d="M78.854 67.2019C94.2619 67.0405 106.682 60.1362 106.594 51.7806C106.507 43.4249 93.945 36.7822 78.5371 36.9436C63.1292 37.1049 50.7096 44.0093 50.7971 52.3649C50.8846 60.7205 63.4461 67.3632 78.854 67.2019Z" fill="#B6D0E9"/>
</g>
<g style="mix-blend-mode:multiply">
<path d="M78.8503 66.8619C93.9048 66.7043 106.04 59.9596 105.954 51.7973C105.869 43.6349 93.5953 37.1459 78.5408 37.3035C63.4863 37.4612 51.3516 44.2059 51.4371 52.3682C51.5225 60.5305 63.7959 67.0196 78.8503 66.8619Z" fill="#B5CFE8"/>
</g>
<g style="mix-blend-mode:multiply">
<path d="M78.8468 66.5219C93.5533 66.3679 105.408 59.7784 105.324 51.8038C105.241 43.8293 93.2509 37.4895 78.5443 37.6435C63.8378 37.7975 51.9835 44.387 52.067 52.3616C52.1505 60.3361 64.1402 66.6759 78.8468 66.5219Z" fill="#B3CEE8"/>
</g>
<g style="mix-blend-mode:multiply">
<path d="M78.8432 66.172C93.1963 66.0216 104.766 59.5873 104.684 51.8006C104.603 44.0138 92.901 37.8232 78.5479 37.9735C64.1948 38.1238 52.6254 44.5581 52.707 52.3449C52.7885 60.1317 64.4901 66.3223 78.8432 66.172Z" fill="#B2CDE7"/>
</g>
<g style="mix-blend-mode:multiply">
<path d="M78.8396 65.832C92.8447 65.6853 104.134 59.4107 104.054 51.8172C103.975 44.2237 92.5568 38.1868 78.5516 38.3335C64.5464 38.4802 53.2574 44.7548 53.3369 52.3483C53.4165 59.9418 64.8344 65.9787 78.8396 65.832Z" fill="#B0CCE7"/>
</g>
<g style="mix-blend-mode:multiply">
<path d="M78.836 65.482C92.4932 65.339 103.502 59.2195 103.424 51.8137C103.347 44.408 92.2124 38.5204 78.5551 38.6635C64.8979 38.8065 53.8893 44.9259 53.9669 52.3317C54.0445 59.7374 65.1787 65.625 78.836 65.482Z" fill="#AFCBE6"/>
</g>
<g style="mix-blend-mode:multiply">
<path d="M54.61 52.33C54.68 59.54 65.53 65.28 78.83 65.14C92.13 65 102.83 59.03 102.83 51.82C102.83 44.61 91.91 38.82 78.6 39.01C65.29 39.2 54.53 45.11 54.61 52.33Z" fill="#ADCAE6"/>
</g>
<g style="mix-blend-mode:multiply">
<path d="M78.8288 64.792C91.7847 64.6564 102.228 58.8518 102.154 51.8271C102.081 44.8024 91.5183 39.2178 78.5624 39.3535C65.6065 39.4891 55.1633 45.2937 55.2368 52.3184C55.3104 59.3431 65.8729 64.9277 78.8288 64.792Z" fill="#ACC9E5"/>
</g>
<g style="mix-blend-mode:multiply">
<path d="M78.8252 64.4621C91.4276 64.3301 101.586 58.6807 101.514 51.8438C101.443 45.0069 91.1684 39.5714 78.5659 39.7034C65.9635 39.8354 55.8052 45.4848 55.8768 52.3217C55.9484 59.1586 66.2228 64.594 78.8252 64.4621Z" fill="#AAC8E5"/>
</g>
<g style="mix-blend-mode:multiply">
<path d="M78.8215 64.1021C91.0761 63.9737 100.954 58.484 100.884 51.8404C100.815 45.1967 90.8241 39.9151 78.5696 40.0434C66.3151 40.1717 56.4372 45.6615 56.5068 52.3051C56.5763 58.9487 66.567 64.2304 78.8215 64.1021Z" fill="#A9C7E5"/>
</g>
<g style="mix-blend-mode:multiply">
<path d="M78.818 63.7621C90.7246 63.6374 100.322 58.3028 100.254 51.8469C100.187 45.3911 90.4798 40.2587 78.5732 40.3834C66.6666 40.508 57.0692 45.8426 57.1368 52.2985C57.2044 58.7543 66.9114 63.8868 78.818 63.7621Z" fill="#A7C6E4"/>
</g>
<g style="mix-blend-mode:multiply">
<path d="M57.78 52.29C57.84 58.56 67.26 63.54 78.78 63.42C90.3 63.3 99.64 58.12 99.58 51.85C99.52 45.58 90.09 40.61 78.58 40.73C67.07 40.85 57.71 46.03 57.78 52.29Z" fill="#A5C4E4"/>
</g>
<g style="mix-blend-mode:multiply">
<path d="M78.8107 63.0821C90.016 62.9648 99.048 57.945 98.9844 51.8702C98.9208 45.7954 89.7856 40.966 78.5804 41.0833C67.3751 41.2006 58.343 46.2204 58.4067 52.2952C58.4703 58.37 67.6055 63.1994 78.8107 63.0821Z" fill="#A4C3E3"/>
</g>
<g style="mix-blend-mode:multiply">
<path d="M78.7434 62.9746C89.5958 62.866 98.3457 58.0054 98.2868 52.1181C98.2279 46.2307 89.3826 41.5461 78.5302 41.6546C67.6778 41.7631 58.9279 46.6237 58.9868 52.5111C59.0457 58.3984 67.891 63.0831 78.7434 62.9746Z" fill="#A2C2E3"/>
</g>
<g style="mix-blend-mode:multiply">
<path d="M59.68 52.27C59.74 57.97 68.3 62.5 78.81 62.39C89.32 62.28 97.81 57.57 97.72 51.87C97.63 46.17 89.09 41.65 78.59 41.76C68.09 41.87 59.62 46.58 59.68 52.27Z" fill="#A0C1E2"/>
</g>
<g style="mix-blend-mode:multiply">
<path d="M78.8 62.0422C88.9559 61.9359 97.1422 57.3862 97.0845 51.8802C97.0269 46.3742 88.7471 41.997 78.5912 42.1033C68.4352 42.2097 60.2489 46.7594 60.3066 52.2653C60.3642 57.7713 68.644 62.1486 78.8 62.0422Z" fill="#9FC0E1"/>
</g>
<g style="mix-blend-mode:multiply">
<path d="M78.7964 61.7022C88.5989 61.5996 96.5003 57.2051 96.4446 51.8869C96.3889 46.5687 88.3972 42.3406 78.5947 42.4433C68.7922 42.5459 60.8909 46.9404 60.9465 52.2586C61.0022 57.5768 68.9939 61.8049 78.7964 61.7022Z" fill="#9DBFE1"/>
</g>
<g style="mix-blend-mode:multiply">
<path d="M78.7928 61.3523C88.2474 61.2532 95.8683 57.0184 95.8146 51.8935C95.761 46.7685 88.053 42.6942 78.5984 42.7933C69.1438 42.8923 61.5228 47.1271 61.5765 52.252C61.6302 57.3769 69.3382 61.4513 78.7928 61.3523Z" fill="#9BBEE0"/>
</g>
<g style="mix-blend-mode:multiply">
<path d="M62.21 52.25C62.27 57.18 69.69 61.11 78.79 61.01C87.89 60.91 95.23 56.84 95.18 51.9C95.13 46.96 87.71 43.04 78.6 43.14C69.49 43.24 62.16 47.31 62.21 52.25Z" fill="#9ABDE0"/>
</g>
<g style="mix-blend-mode:multiply">
<path d="M62.85 52.24C62.9 56.99 70.03 60.76 78.79 60.67C87.55 60.58 94.6 56.67 94.55 51.91C94.5 47.15 87.36 43.39 78.61 43.48C69.86 43.57 62.8 47.49 62.85 52.24Z" fill="#98BCDF"/>
</g>
<g style="mix-blend-mode:multiply">
<path d="M63.48 52.23C63.53 56.79 70.38 60.41 78.78 60.32C87.18 60.23 93.96 56.47 93.91 51.91C93.86 47.35 87.01 43.73 78.61 43.82C70.21 43.91 63.43 47.68 63.48 52.23Z" fill="#96BADF"/>
</g>
<g style="mix-blend-mode:multiply">
<path d="M78.7784 59.9823C86.8303 59.898 93.3205 56.2884 93.2747 51.9201C93.229 47.5517 86.6646 44.0789 78.6127 44.1632C70.5609 44.2475 64.0706 47.8571 64.1163 52.2254C64.1621 56.5937 70.7265 60.0666 78.7784 59.9823Z" fill="#94B9DE"/>
</g>
<g style="mix-blend-mode:multiply">
<path d="M64.75 52.22C64.75 56.4 71.07 59.72 78.75 59.64C86.43 59.56 92.66 56.1 92.62 51.93C92.58 47.76 86.29 44.43 78.62 44.51C70.95 44.59 64.71 48.04 64.75 52.22Z" fill="#92B8DE"/>
</g>
<g style="mix-blend-mode:multiply">
<path d="M65.38 52.21C65.38 56.21 71.38 59.37 78.77 59.29C86.16 59.21 92.05 55.92 92.01 51.93C91.97 47.94 86.01 44.78 78.62 44.85C71.23 44.92 65.34 48.23 65.38 52.21Z" fill="#91B7DD"/>
</g>
<g style="mix-blend-mode:multiply">
<path d="M78.7676 58.9524C85.7702 58.8791 91.4146 55.7395 91.3749 51.94C91.3351 48.1405 85.6261 45.1198 78.6235 45.1931C71.6209 45.2665 65.9764 48.406 66.0162 52.2055C66.056 56.0051 71.765 59.0257 78.7676 58.9524Z" fill="#8FB6DD"/>
</g>
<g style="mix-blend-mode:multiply">
<path d="M66.65 52.2C66.65 55.81 72.11 58.67 78.77 58.6C85.43 58.53 90.77 55.55 90.77 51.95C90.77 48.35 85.31 45.47 78.66 45.54C72.01 45.61 66.61 48.59 66.65 52.2Z" fill="#8DB5DC"/>
</g>
<g style="mix-blend-mode:multiply">
<path d="M67.29 52.19C67.29 55.61 72.46 58.33 78.76 58.26C85.06 58.19 90.16 55.39 90.16 51.95C90.16 48.51 84.99 45.82 78.68 45.89C72.37 45.96 67.25 48.78 67.29 52.19Z" fill="#8BB3DB"/>
</g>
<g style="mix-blend-mode:multiply">
<path d="M67.92 52.19C67.92 55.41 72.81 57.98 78.76 57.92C84.71 57.86 89.51 55.19 89.48 51.92C89.45 48.65 84.59 46.13 78.64 46.19C72.69 46.25 67.89 48.96 67.92 52.19Z" fill="#89B2DB"/>
</g>
<g style="mix-blend-mode:multiply">
<path d="M68.55 52.18C68.55 55.18 73.15 57.63 78.76 57.57C84.37 57.51 88.87 55 88.84 51.97C88.81 48.94 84.24 46.51 78.64 46.57C73.04 46.63 68.52 49.14 68.55 52.18Z" fill="#87B1DA"/>
</g>
<g style="mix-blend-mode:multiply">
<path d="M69.16 52.17C69.16 55.02 73.47 57.28 78.72 57.23C83.97 57.18 88.21 54.82 88.18 51.97C88.15 49.12 83.87 46.86 78.61 46.92C73.35 46.98 69.16 49.32 69.16 52.17Z" fill="#85B0DA"/>
</g>
<g style="mix-blend-mode:multiply">
<path d="M69.82 52.17C69.82 54.82 73.82 56.94 78.75 56.89C83.68 56.84 87.6 54.64 87.57 51.98C87.54 49.32 83.57 47.21 78.65 47.26C73.73 47.31 69.79 49.51 69.82 52.17Z" fill="#84AED9"/>
</g>
<g style="mix-blend-mode:multiply">
<path d="M70.46 52.16C70.46 54.63 74.19 56.59 78.74 56.54C83.29 56.49 86.97 54.45 86.94 51.99C86.91 49.53 83.2 47.56 78.65 47.6C74.1 47.64 70.43 49.69 70.46 52.16Z" fill="#82ADD9"/>
</g>
<g style="mix-blend-mode:multiply">
<path d="M71.09 52.15C71.09 54.43 74.54 56.24 78.74 56.2C82.94 56.16 86.33 54.27 86.31 51.99C86.29 49.71 82.86 47.9 78.65 47.99C74.44 48.08 71.07 49.87 71.09 52.15Z" fill="#80ACD8"/>
</g>
<g style="mix-blend-mode:multiply">
<path d="M71.72 52.15C71.72 54.23 74.89 55.89 78.72 55.85C82.55 55.81 85.67 54.09 85.65 52C85.63 49.91 82.49 48.25 78.65 48.29C74.81 48.33 71.7 50.06 71.72 52.15Z" fill="#7EAAD7"/>
</g>
<g style="mix-blend-mode:multiply">
<path d="M72.36 52.14C72.36 54.04 75.23 55.55 78.73 55.51C82.23 55.47 85.06 53.9 85.04 52.01C85.02 50.12 82.16 48.6 78.66 48.64C75.16 48.68 72.34 50.24 72.36 52.14Z" fill="#7CA9D7"/>
</g>
<g style="mix-blend-mode:multiply">
<path d="M72.99 52.13C72.99 53.84 75.58 55.2 78.73 55.13C81.88 55.06 84.42 53.68 84.4 51.97C84.38 50.26 81.82 48.91 78.67 48.97C75.52 49.03 72.97 50.39 72.99 52.13Z" fill="#7AA8D6"/>
</g>
<g style="mix-blend-mode:multiply">
<path d="M73.63 52.13C73.63 53.65 75.93 54.85 78.73 54.82C81.53 54.79 83.79 53.54 83.73 52.02C83.67 50.5 81.43 49.29 78.63 49.32C75.83 49.35 73.61 50.61 73.63 52.13Z" fill="#78A7D5"/>
</g>
<g style="mix-blend-mode:multiply">
<path d="M74.26 52.12C74.26 53.45 76.26 54.5 78.72 54.48C81.18 54.46 83.16 53.39 83.16 52.03C83.16 50.67 81.16 49.64 78.69 49.67C76.22 49.7 74.25 50.79 74.26 52.12Z" fill="#76A5D5"/>
</g>
<g style="mix-blend-mode:multiply">
<path d="M74.89 52.11C74.89 53.25 76.62 54.16 78.72 54.11C80.82 54.06 82.51 53.11 82.5 52C82.49 50.89 80.78 50 78.68 50C76.58 50 74.88 50.97 74.89 52.11Z" fill="#74A4D4"/>
</g>
<g style="mix-blend-mode:multiply">
<path d="M75.53 52.11C75.53 53.06 76.96 53.81 78.72 53.79C80.48 53.77 81.88 52.99 81.87 52.04C81.86 51.09 80.43 50.34 78.68 50.35C76.93 50.36 75.52 51.16 75.53 52.11Z" fill="#71A3D4"/>
</g>
<g style="mix-blend-mode:multiply">
<path d="M76.16 52.1C76.16 52.86 77.31 53.46 78.71 53.45C80.11 53.44 81.24 52.81 81.23 52.05C81.22 51.29 80.08 50.68 78.68 50.7C77.28 50.72 76.16 51.39 76.16 52.1Z" fill="#6FA1D3"/>
</g>
<g style="mix-blend-mode:multiply">
<path d="M76.8 52.09C76.8 52.66 77.66 53.09 78.71 53.09C79.76 53.09 80.61 52.61 80.6 52.04C80.59 51.47 79.74 51.04 78.69 51.04C77.64 51.04 76.79 51.52 76.8 52.09Z" fill="#6DA0D2"/>
</g>
<g style="mix-blend-mode:multiply">
<path d="M77.43 52.09C77.43 52.47 78 52.77 78.7 52.76C79.4 52.75 79.97 52.44 79.97 52.06C79.97 51.68 79.39 51.38 78.69 51.39C77.99 51.4 77.43 51.71 77.43 52.09Z" fill="#6B9ED2"/>
</g>
<g style="mix-blend-mode:multiply">
<path d="M78.06 52.08C78.06 52.27 78.35 52.42 78.7 52.42C79.05 52.42 79.33 52.26 79.33 52.07C79.33 51.88 79.04 51.73 78.69 51.73C78.34 51.73 78.06 51.89 78.06 52.08Z" fill="#699DD1"/>
</g>
</g>
</g>
<path d="M110.34 89.82L152.59 65.36C153.171 65.0978 153.667 64.6774 154.02 64.1469C154.374 63.6165 154.571 62.9973 154.59 62.36V56.23L152.22 59C152.066 58.8906 151.906 58.7905 151.74 58.7L65.2901 8.92999C61.8601 6.92999 56.6701 6.75 53.7101 8.47L12.0501 32.59L9.44006 29.72V35.72C9.37006 37.07 10.3401 38.51 12.2701 39.63L98.7001 89.37C102.19 91.33 107.37 91.54 110.34 89.82Z" fill="#396CAA"/>
<path d="M133.18 74.81L130.75 76.22C130.43 76.4 130.17 76.22 130.17 75.77C130.172 75.5524 130.226 75.3383 130.327 75.1454C130.428 74.9525 130.573 74.7862 130.75 74.66L133.18 73.25C133.51 73.06 133.77 73.25 133.77 73.69C133.766 73.9099 133.711 74.1259 133.609 74.3205C133.506 74.5151 133.359 74.6828 133.18 74.81Z" fill="#173D7A"/>
<path d="M65.2901 8.92999C61.8601 6.92999 56.6701 6.75 53.7101 8.47L12.0501 32.59L9.44006 29.72V35.72C9.37006 37.07 10.3401 38.51 12.2701 39.63L98.7001 89.37C100.631 90.4215 102.791 90.9813 104.99 91L104.91 31.74L65.2901 8.92999Z" fill="#5793CE"/>
<path d="M11.47 26.77L53.72 2.30003C56.72 0.590035 61.87 0.790036 65.3 2.77004L151.73 52.51C155.16 54.51 155.53 57.51 152.57 59.19L110.29 83.66C107.29 85.37 102.14 85.17 98.71 83.19L12.29 33.46C8.88002 31.48 8.51002 28.49 11.47 26.77Z" fill="#D4ECFF"/>
<path d="M110.35 84.31L152.6 59.85C154.13 58.96 154.76 57.73 154.6 56.48C154.522 57.0635 154.297 57.6177 153.947 58.0914C153.598 58.5651 153.134 58.943 152.6 59.19L110.29 83.66C107.29 85.37 102.14 85.17 98.7101 83.19L12.2901 33.46C11.6101 33.1423 11.008 32.6795 10.526 32.1042C10.044 31.529 9.69379 30.8551 9.50006 30.13C9.40006 31.5 10.3501 32.97 12.3301 34.13L98.7501 83.87C102.2 85.82 107.39 86 110.35 84.31Z" fill="white"/>
<path d="M14.7301 27.73L55.2901 4.23002C57.5001 2.95002 61.35 3.10003 63.9 4.57003L149.1 53.57C151.65 55.04 151.93 57.26 149.72 58.57L109.13 82.08C106.92 83.36 103.07 83.2 100.52 81.73L15.3201 32.73C12.8001 31.24 12.5201 29 14.7301 27.73Z" fill="#173D7A"/>
<path d="M98.93 69.87L127.58 53.33L125.75 52.28L97.1 68.81L98.93 69.87Z" fill="#D4ECFF"/>
<path d="M118.86 65.05L133.37 56.67L131.54 55.62L117.03 63.99L118.86 65.05Z" fill="#D4ECFF"/>
<path d="M111.83 69.11L116.53 66.4L114.7 65.34L110 68.06L111.83 69.11Z" fill="#FF2C9C"/>
<path d="M104.72 73.21L109.43 70.5L107.6 69.44L102.89 72.16L104.72 73.21Z" fill="white"/>
<path d="M118.7 61.8L130.47 55L128.64 53.95L116.87 60.74L118.7 61.8Z" fill="white"/>
<path d="M104.33 70.09L116.1 63.3L114.27 62.24L102.5 69.04L104.33 70.09Z" fill="#D4ECFF"/>
<path d="M113.05 55.57C113.38 55.7377 113.745 55.8252 114.115 55.8252C114.485 55.8252 114.85 55.7377 115.18 55.57C115.308 55.5261 115.419 55.4432 115.498 55.333C115.577 55.2227 115.62 55.0905 115.62 54.955C115.62 54.8194 115.577 54.6873 115.498 54.577C115.419 54.4667 115.308 54.3839 115.18 54.34C114.851 54.1674 114.486 54.0773 114.115 54.0773C113.744 54.0773 113.378 54.1674 113.05 54.34C112.922 54.3839 112.81 54.4667 112.732 54.577C112.653 54.6873 112.61 54.8194 112.61 54.955C112.61 55.0905 112.653 55.2227 112.732 55.333C112.81 55.4432 112.922 55.5261 113.05 55.57Z" fill="#FF2C9C"/>
<path d="M109.86 57.41C110.19 57.5777 110.555 57.6652 110.925 57.6652C111.295 57.6652 111.66 57.5777 111.99 57.41C112.118 57.3661 112.23 57.2832 112.308 57.173C112.387 57.0627 112.43 56.9305 112.43 56.795C112.43 56.6594 112.387 56.5273 112.308 56.417C112.23 56.3067 112.118 56.2239 111.99 56.18C111.66 56.0122 111.295 55.9248 110.925 55.9248C110.555 55.9248 110.19 56.0122 109.86 56.18C109.732 56.2239 109.62 56.3067 109.542 56.417C109.463 56.5273 109.42 56.6594 109.42 56.795C109.42 56.9305 109.463 57.0627 109.542 57.173C109.62 57.2832 109.732 57.3661 109.86 57.41Z" fill="white"/>
<path d="M106.67 59.25C107.002 59.4178 107.368 59.5053 107.74 59.5053C108.112 59.5053 108.478 59.4178 108.81 59.25C108.938 59.2061 109.05 59.1232 109.128 59.013C109.207 58.9027 109.25 58.7705 109.25 58.635C109.25 58.4994 109.207 58.3673 109.128 58.257C109.05 58.1467 108.938 58.0639 108.81 58.02C108.478 57.8522 108.112 57.7647 107.74 57.7647C107.368 57.7647 107.002 57.8522 106.67 58.02C106.542 58.0639 106.43 58.1467 106.352 58.257C106.273 58.3673 106.23 58.4994 106.23 58.635C106.23 58.7705 106.273 58.9027 106.352 59.013C106.43 59.1232 106.542 59.2061 106.67 59.25Z" fill="#D4ECFF"/>
<path d="M103.48 61.09C103.812 61.2579 104.178 61.3453 104.55 61.3453C104.922 61.3453 105.288 61.2579 105.62 61.09C105.748 61.0461 105.86 60.9633 105.938 60.853C106.017 60.7427 106.06 60.6106 106.06 60.475C106.06 60.3395 106.017 60.2073 105.938 60.0971C105.86 59.9868 105.748 59.9039 105.62 59.86C105.288 59.6922 104.922 59.6047 104.55 59.6047C104.178 59.6047 103.812 59.6922 103.48 59.86C103.352 59.9039 103.24 59.9868 103.162 60.0971C103.083 60.2073 103.04 60.3395 103.04 60.475C103.04 60.6106 103.083 60.7427 103.162 60.853C103.24 60.9633 103.352 61.0461 103.48 61.09Z" fill="#FF2C9C"/>
<path d="M100.29 62.93C100.62 63.0977 100.985 63.1852 101.355 63.1852C101.725 63.1852 102.09 63.0977 102.42 62.93C102.548 62.8861 102.66 62.8033 102.738 62.693C102.817 62.5827 102.86 62.4505 102.86 62.315C102.86 62.1795 102.817 62.0473 102.738 61.937C102.66 61.8268 102.548 61.7439 102.42 61.7C102.09 61.5323 101.725 61.4448 101.355 61.4448C100.985 61.4448 100.62 61.5323 100.29 61.7C100.162 61.7439 100.05 61.8268 99.9716 61.937C99.8928 62.0473 99.8505 62.1795 99.8505 62.315C99.8505 62.4505 99.8928 62.5827 99.9716 62.693C100.05 62.8033 100.162 62.8861 100.29 62.93Z" fill="white"/>
<path d="M36.23 27.91L41.06 25.13L39.18 24.05L34.36 26.83L36.23 27.91Z" fill="#FF2C9C"/>
<path d="M29.52 31.79L34.34 29.01L32.46 27.93L27.64 30.71L29.52 31.79Z" fill="white"/>
<path d="M57.77 15.36L62.6 12.58L60.72 11.49L55.9 14.28L57.77 15.36Z" fill="white"/>
<path d="M37.3099 30.72L44.0199 26.84L42.1499 25.76L35.4299 29.64L37.3099 30.72Z" fill="white"/>
<path d="M32.48 33.5L35.43 31.8L33.56 30.72L30.61 32.42L32.48 33.5Z" fill="#D4ECFF"/>
<path d="M81.64 40.19L87.16 36.96C87.4622 36.8236 87.7918 36.759 88.1232 36.7711C88.4545 36.7832 88.7786 36.8719 89.07 37.03L94.34 40.03C94.91 40.36 94.98 40.85 94.49 41.14L88.97 44.36C88.6684 44.4987 88.3384 44.5646 88.0067 44.5525C87.6749 44.5403 87.3506 44.4504 87.06 44.29L81.78 41.29C81.21 41 81.15 40.47 81.64 40.19Z" fill="#FF2C9C"/>
<path d="M72.01 45.81L77.53 42.58C77.8322 42.4436 78.1619 42.3789 78.4932 42.3911C78.8246 42.4032 79.1486 42.4918 79.44 42.65L84.72 45.65C85.28 45.97 85.35 46.46 84.86 46.75L79.34 50C79.0384 50.1387 78.7084 50.2046 78.3767 50.1925C78.0449 50.1803 77.7207 50.0904 77.43 49.93L72.15 46.93C71.58 46.59 71.52 46.09 72.01 45.81Z" fill="#B3E0FF"/>
<path d="M72.2899 34.83L77.8099 31.61C78.1121 31.4736 78.4418 31.409 78.7732 31.4211C79.1045 31.4333 79.4285 31.5219 79.7199 31.68L84.99 34.68C85.56 35.01 85.62 35.5 85.14 35.79L79.5999 39C79.296 39.1365 78.9647 39.2012 78.6318 39.1891C78.2988 39.177 77.9731 39.0883 77.68 38.93L72.4099 35.93C71.8399 35.61 71.7799 35.12 72.2899 34.83Z" fill="white"/>
<path d="M62.64 40.46L68.16 37.23C68.4622 37.0936 68.7918 37.029 69.1232 37.0411C69.4545 37.0533 69.7786 37.1419 70.07 37.3L75.34 40.3C75.91 40.62 75.98 41.11 75.49 41.4L69.97 44.62C69.6684 44.7587 69.3384 44.8246 69.0067 44.8125C68.6749 44.8003 68.3506 44.7104 68.06 44.55L62.78 41.55C62.21 41.23 62.15 40.74 62.64 40.46Z" fill="#396CAA"/>
</g>
<defs>
<clipPath id="clip0">
<rect width="1440" height="2856" fill="white" transform="translate(-784 -1120)"/>
</clipPath>
</defs>
</svg>
